FantasqueSansMono-LightItalic.sfdir
StartChar: exclam
Encoding: 33 33 68
Width: 1060
VWidth: 0
Flags: W
LayerCount: 2
Fore
SplineSet
583.736538912 457.757710467 m 1
 763.066149535 1294 l 1
 616.948019774 1294 l 1
 467.908861003 456.362196275 l 1
 583.736538912 457.757710467 l 1
584.721873524 245 m 1
 385.648496846 245 l 1
 343.278126476 25 l 1
 542.351503154 25 l 1
 584.721873524 245 l 1
EndSplineSet
Validated: 1
EndChar
StartChar: quotedbl
Encoding: 34 34 92
Width: 1060
VWidth: -25
Flags: W
LayerCount: 2
Fore
SplineSet
802 1197 m 0
 802 1077.76736419 770.096787792 948.360312399 736.447526652 850.617119413 c 1
 812.457632288 828.54966939 l 1
 878.456051992 1011.92536802 920.069999237 1150.42399791 970.696966206 1406.49292456 c 1
 834.727511046 1434.42178562 l 1
 800.121592287 1256.20130401 l 1
 801.070835807 1237.17886152 802 1217.69928071 802 1197 c 0
431 1197 m 0
 431 1077.76736419 399.096787792 948.360312399 365.447526652 850.617119413 c 1
 441.457632288 828.54966939 l 1
 507.456051992 1011.92536802 549.069999237 1150.42399791 599.696966206 1406.49292456 c 1
 463.727511046 1434.42178562 l 1
 429.121592287 1256.20130401 l 1
 430.070835807 1237.17886152 431 1217.69928071 431 1197 c 0
EndSplineSet
Validated: 1
EndChar
StartChar: numbersign
Encoding: 35 35 93
Width: 1060
VWidth: 6
Flags: W
LayerCount: 2
Fore
SplineSet
679 823 m 2
 712.854107464 823 l 1
 682.397001987 724.014407201 652.070162285 617.061031916 620.229116312 518 c 1
 528 518 l 2
 493.980107511 518 462.589151162 517.99852959 422.235878294 516.030077255 c 2
 386.717796642 514.297487906 l 1
 417.034840502 613.737391765 450.974632832 721.937209718 477.865274281 819.721360441 c 1
 551.634072993 820.806195716 601.538421172 823 679 823 c 2
526 410 m 0
 545.275278511 410 564.550557022 410 583.825835533 410 c 1
 534.745263918 250.033692515 500.751169183 131.876822926 463.331766002 3.7972312196 c 1
 574.920853627 3.1168099536 l 1
 608.85526752 128.066062926 634.735531652 224.704507778 691.475275476 411 c 1
 710 411 l 2
 799.360473496 411 849.199018799 409.767292487 879.625003988 408.750119671 c 1
 901.538023681 519 l 1
 718.822761413 519 l 1
 750.829715752 619.760535012 785.299081744 728.044787816 813.235409342 824 c 1
 832 824 l 2
 902.324423154 824 938.967121208 822.238304858 964.535971902 820.962886623 c 1
 985.72324218 931 l 1
 846.861545433 931 l 1
 857.159501825 963.541542199 l 2
 902.430997988 1106.59947008 931.586294562 1193.93612237 973.249632386 1299.45176732 c 1
 865.64549858 1300.78021342 l 1
 827.170304067 1190.64352007 787.594366579 1061.73018685 746.378173148 930 c 1
 512.43879761 930 l 1
 522.040708144 962.15523528 l 2
 561.375905814 1093.88240887 586.234998179 1193.81735784 615.053124579 1306.95769522 c 1
 609.335642808 1306.99593923 603.297377639 1307 597 1307 c 0
 567.40682966 1307 534.278543591 1306.38415059 504.608614726 1306.10698715 c 1
 470.258339412 1165.25559491 465.705871111 1115.51407139 410.848905707 941.485077694 c 2
 405.669646899 925.054325613 l 1
 323.265015156 920.206994334 236.221139903 916.759815292 169.152421188 897.738627513 c 1
 185.169921194 799.63143998 l 1
 222.352413725 808.193409918 266.641062459 811.812706399 319.231406881 815 c 1
 367.728263833 815 l 1
 356.066047081 776.611869856 345.704462962 740.763295449 334.479456882 699.251793895 c 0
 318.811771135 641.310697331 302.262555863 579.830732081 280.222173922 524.729777227 c 2
 274.422113243 510.229625531 l 1
 209.546105942 505.388132449 141.928699906 500.593867226 84.7945036436 485.23430011 c 1
 98.7889563934 387.273130862 l 1
 127.959935542 393.893819048 164.376270142 399.219177692 205.520067702 399.995475759 c 2
 239.976814409 400.645603056 l 1
 229.914772701 367.697348834 l 2
 183.649714408 216.201961874 153.119220229 109.469085105 126.25882387 6.80843460307 c 1
 242.734585655 6.11512649721 l 1
 259.478607419 69.8228355091 315.140631632 278.406011465 351.959195128 403.923841565 c 1
 409.021287424 407.28043523 465.182480598 410 526 410 c 0
EndSplineSet
Validated: 1
EndChar
StartChar: dollar
Encoding: 36 36 94
Width: 960
VWidth: 0
Flags: HW
LayerCount: 2
Fore
SplineSet
228.451171875 230.75390625 m 0
 192.051757812 263.610351562 172 310.715820312 172 371.0078125 c 0
 172 382.376953125 172.680664062 393.953125 174 406.055664062 c 1
 66.212890625 406.055664062 l 1
 62.7109375 381.5625 61.0029296875 338.690429688 61 336.991210938 c 0
 60.875 255.09765625 85.970703125 194.375 134.672851562 149.703125 c 0
 173.943359375 113.682617188 230.568359375 87.01953125 305.896484375 71.578125 c 2
 330.608398438 65.94140625 l 1
 261.475585938 -164.583007812 l 1
 376.590820312 -174.388671875 l 1
 426.237304688 60.3447265625 l 1
 443.190429688 61.0205078125 l 2
 521.01171875 64.125 600.413085938 83.1201171875 667.462890625 124.694335938 c 0
 752.821289062 176.461914062 826.03125 262.624023438 852.4375 402.9296875 c 0
 857.229492188 429.630859375 859.763671875 475.15234375 860 477.482421875 c 0
 860 598.2734375 796.838867188 668.959960938 721.086914062 711.287109375 c 0
 688.6328125 730.422851562 651.969726562 743.313476562 613.615234375 753.34765625 c 2
 590.955078125 759.276367188 l 1
 682.151367188 1152.07714844 l 1
 702.989257812 1146.93652344 l 2
 763.8125 1132.67675781 843.985351562 1098.38769531 873.264648438 1015.65234375 c 1
 980.724609375 1071.03808594 l 1
 945.671875 1168.32617188 843.913085938 1238.80957031 733.229492188 1257.09765625 c 2
 708.252929688 1261.69824219 l 1
 771.494140625 1498.5625 l 1
 660.172851562 1508.33398438 l 1
 611.272460938 1267.81152344 l 1
 593.516601562 1267.81152344 l 1
 585.45703125 1267.81152344 l 2
 400.671875 1267.81152344 224.239257812 1180.74414062 188.583984375 994.05859375 c 0
 184.731445312 971.173828125 182 948.709960938 182 930.737304688 c 0
 182 829.776367188 233.254882812 766.604492188 296.284179688 733.142578125 c 0
 349.2734375 703.30078125 410.170898438 686.583984375 470.61328125 668.89453125 c 1
 354.227539062 171.907226562 l 1
 332.932617188 177.966796875 l 2
 294.125 188.633789062 257.193359375 204.80859375 228.451171875 230.75390625 c 0
326.890625 866.56640625 m 0
 308.233398438 889.583007812 295 920.403320312 295 959 c 0
 295 973.34375 296.9921875 986.325195312 299.475585938 998.873046875 c 0
 306.97265625 1036.87207031 325.3984375 1067.25390625 350.864257812 1089.1796875 c 0
 399.237304688 1130.82910156 473.651367188 1145.29199219 556.62890625 1145.99902344 c 2
 586.1953125 1146.25097656 l 1
 496.55078125 779.958007812 l 1
 475.388671875 785.70703125 l 2
 440.984375 795.052734375 408.0859375 807.552734375 378.287109375 824.728515625 c 0
 359.801757812 835.290039062 341.6796875 848.323242188 326.890625 866.56640625 c 0
705.5546875 559.135742188 m 0
 729.470703125 530.670898438 745 492.900390625 745 445 c 0
 745 428.583984375 742.9765625 410.936523438 739.543945312 393.223632812 c 0
 725.59765625 315.619140625 689.872070312 259.971679688 636.33984375 226.114257812 c 0
 593.9140625 199.280273438 541.873046875 186.192382812 482.096679688 182.048828125 c 2
 450.874023438 179.884765625 l 1
 564.004882812 643.895507812 l 1
 617.4375 621.911132812 669.854492188 601.625976562 705.5546875 559.135742188 c 0
EndSplineSet
EndChar
StartChar: percent
Encoding: 37 37 156
Width: 960
VWidth: 0
Flags: HW
LayerCount: 2
Fore
SplineSet
268.332851476 937.822265625 m 0
 253.132022327 957.77734375 244.924583292 983.370117188 244.924583292 1011 c 0
 244.924583292 1096.01269531 315.622218469 1164 388.794784236 1164 c 0
 415.361561001 1164 439.350735382 1154.96484375 457.79112979 1138.47753906 c 0
 480.935513454 1117.78320312 493.930700311 1086.55566406 493.930700311 1052 c 0
 493.930700311 962.412109375 420.793259105 898 350.060499367 898 c 0
 316.642631991 898 287.429804981 912.75390625 268.332851476 937.822265625 c 0
588.92192273 1070 m 0
 588.92192273 1175.80175781 517.963104921 1264 416.462130572 1264 c 0
 291.293506667 1264 143.708984375 1155.6796875 143.708984375 996 c 0
 143.708984375 888.94921875 222.033203125 798 323.315397909 798 c 0
 452.872790652 798 588.92192273 911.502929688 588.92192273 1070 c 0
537.628355808 160.822265625 m 0
 522.427526659 180.77734375 514.220087624 206.370117188 514.220087624 234 c 0
 514.220087624 319.012695312 584.917722801 387 658.090288569 387 c 0
 684.657065333 387 708.646239715 377.96484375 727.086634123 361.477539062 c 0
 750.231017786 340.783203125 763.226204644 309.555664062 763.226204644 275 c 0
 763.226204644 185.412109375 690.088763437 121 619.356003699 121 c 0
 585.938136324 121 556.725309314 135.75390625 537.628355808 160.822265625 c 0
861.708984375 295 m 0
 861.708984375 400.583007812 787.536903851 487 685.757634904 487 c 0
 561.198737349 487 419.228865206 374.227539062 419.228865206 214 c 0
 419.228865206 107.4921875 490.77489362 21 592.610902242 21 c 0
 721.950342582 21 861.708984375 136.345703125 861.708984375 295 c 0
1062.56445312 1231.12695312 m 1
 987.729492188 1312.140625 l 1
 684.36526129 970.6484375 248.917975663 447.12109375 -22 91.6943359375 c 1
 64.31640625 18.498046875 l 1
 335.342407771 402.255859375 755.594268028 898.0703125 1062.56445312 1231.12695312 c 1
EndSplineSet
EndChar
StartChar: ampersand
Encoding: 38 38 168
Width: 1060
VWidth: 0
Flags: W
LayerCount: 2
Fore
SplineSet
375 108 m 0
 312.90001556 108 256.857544039 132.423996392 219.559049192 177.851650373 c 0
 189.798916315 214.097966057 173 262.463451927 173 319 c 0
 173 338.856913694 175.197492495 359.45257596 179.464938115 380.820258644 c 0
 203.330686371 505.363455523 294.220203516 597.646884293 386.915610377 667.932412089 c 2
 409.258285237 684.873561158 l 1
 423.542454441 660.685701306 l 2
 502.380872055 527.185980813 581.38837561 380.207538042 659.329918289 240.110081582 c 1
 645.090763341 226.760873819 l 2
 578.190268227 164.041659649 483.880814936 108 375 108 c 0
390 1012 m 0
 390 1023.7318572 391.042371728 1036.38340122 393.461248302 1048.80030096 c 0
 403.225124646 1098.92153286 435.507919925 1144.7024297 474.947004509 1176.31460715 c 0
 506.478034985 1201.5881281 543.878874122 1219 582 1219 c 0
 613.464712662 1219 642.652684332 1213.33207815 666.616155627 1198.32638065 c 0
 697.472635977 1179.00434653 715 1145.30178413 715 1103 c 0
 715 1089.67128384 712.76673066 1076.65898184 710.610324443 1064.58310703 c 0
 704.332805767 1029.42900244 684.253819579 999.985559925 650.257615825 963.928980186 c 0
 619.660834744 931.222076272 573.500241886 890.574430302 488.13229778 837.72760776 c 2
 467.607717057 825.021914931 l 1
 433.812167397 875.715239421 390 935.112603239 390 1012 c 0
826 1140 m 0
 826 1207.57342155 796.966994383 1254.56374421 751.570150539 1284.58491346 c 0
 714.911022499 1308.82778574 666.281851437 1322 613 1322 c 0
 548.021111342 1322 481.58247897 1296.48206409 425.117168147 1253.46676659 c 0
 354.441248319 1199.62582118 300.540301266 1119.26822797 283.501743829 1032.0101611 c 0
 279.97761864 1015.27056645 279 999.130112687 279 982 c 0
 279 900.107178206 318.51574455 831.763939951 349.016359527 784.537181276 c 2
 362.180629537 764.153795455 l 1
 342.132131051 750.380017869 l 2
 214.679996715 662.817482829 100.896675354 532.801619815 67.5354245213 362.182651272 c 0
 61.8293975992 332.701512174 59 303.191684264 59 277 c 0
 59 180.078529623 94.9499206224 107.319498712 153.748218266 61.1190753221 c 0
 201.001169598 23.9903412359 264.664397994 3 340 3 c 0
 464.542153662 3 575.774694129 40.5846690341 681.380979567 134.670268788 c 2
 704.515495534 155.281019377 l 1
 734.36721697 102.466435297 763.657239592 51.1886204356 790.400841531 4.07117536165 c 1
 889.036559472 71.7070962354 l 1
 860.520212242 122.098483794 810.052010011 209.003636289 781.568092404 257.426296221 c 1
 792.728353585 270.918552276 l 2
 850.933519037 341.285991106 897.833212217 469.816972576 929.54894165 622.203795675 c 1
 831.577100842 622.861324808 l 1
 812.203640909 524.626394283 794.643143221 455.416873797 759.247166439 386.591363387 c 2
 737.665602499 344.627211283 l 1
 715.044052755 386.042048507 l 2
 646.27081973 511.949967429 578.722578685 628.757959277 509.455562337 749.176003081 c 1
 529.523003754 762.055107274 l 2
 664.21770755 848.500961949 792.833940381 940.200260778 821.488613054 1089.9440341 c 0
 824.981587742 1106.53566387 826 1123.92766439 826 1140 c 0
EndSplineSet
Validated: 1
EndChar
StartChar: quotesingle
Encoding: 39 39 70
Width: 1060
VWidth: -25
Flags: W
LayerCount: 2
Fore
SplineSet
571 1197 m 0
 571 1078.16773112 538.60503907 940.429717664 505.670832096 841.873597382 c 1
 607.070940536 817.537571356 l 1
 673.021264552 1001.77332801 714.784922174 1155.26334918 765.425451401 1412.07386474 c 1
 603.993448366 1435.79136282 l 1
 569.121592287 1256.20130401 l 1
 570.070835807 1237.17886152 571 1217.69928071 571 1197 c 0
EndSplineSet
Validated: 1
EndChar
StartChar: parenleft
Encoding: 40 40 98
Width: 1060
VWidth: 66
Flags: W
LayerCount: 2
Fore
SplineSet
406 404 m 0
 406 739.33512932 522.252660209 1046.18229803 718.202885039 1215.86718218 c 0
 813.397752225 1298.30204555 927.761242785 1347.99298032 1055.27128235 1350.86798709 c 1
 1075.52359879 1457.53018702 l 1
 828.754735876 1441.22355584 618.880801523 1316.98332498 477.764816104 1096.49599816 c 0
 359.971549489 912.449361654 290 660.181113432 290 347 c 0
 290 234.646611737 312.050029974 132.139961504 351.631233303 45.7227790331 c 0
 427.767334217 -120.504287653 567.837712492 -227.573040621 745.467338063 -236.41785607 c 1
 767.923589504 -119.926051719 l 1
 641.568656156 -111.273589525 544.295211091 -50.7663423013 483.439743676 53.1791623544 c 0
 431.371356034 142.115704296 406 260.659521745 406 404 c 0
EndSplineSet
Validated: 1
EndChar
StartChar: parenright
Encoding: 41 41 99
Width: 1060
VWidth: 66
Flags: W
LayerCount: 2
Fore
SplineSet
726 865 m 0
 726 552.558430525 596.508941444 222.201877451 398.228865323 33.4839191994 c 0
 304.339091774 -55.8779910426 193.818219847 -114.089866869 73.755579406 -120.425759559 c 1
 51.4950508379 -235.902251506 l 1
 449.459880213 -211.199787437 841 219.060790366 841 907 c 0
 841 1043.15700349 809.185648674 1165.8236582 746.350070045 1260.11346161 c 0
 671.202897485 1372.87779486 551.100055076 1447.62266465 379.524495091 1458.05644076 c 1
 359.126610986 1350.62758447 l 1
 505.122709803 1345.40662321 600.480953821 1285.26960361 657.148955733 1188.3519453 c 0
 705.790656657 1105.16143936 726 995.482654329 726 865 c 0
EndSplineSet
Validated: 1
EndChar
StartChar: asterisk
Encoding: 42 42 191
Width: 1060
VWidth: 0
Flags: W
LayerCount: 2
Fore
SplineSet
527.726909085 703.928414741 m 1
 212.165291769 848.390064226 l 1
 166.745537252 761.500099062 l 1
 497.98019338 622.032875429 l 1
 168.32442739 273.949147365 l 1
 247.195276787 199.157824662 l 1
 570.303219619 573.390441992 l 1
 761.440163189 201.337781782 l 1
 861.790299748 268.237872821 l 1
 644.460809312 610.481042338 l 1
 1040.3377547 760.954677191 l 1
 1000.22452249 850.387457189 l 1
 636.045025746 695.372277816 l 1
 726.380247632 1140.81837195 l 1
 608.807724809 1140.12267655 l 1
 527.726909085 703.928414741 l 1
EndSplineSet
Validated: 1
EndChar
StartChar: plus
Encoding: 43 43 101
Width: 1060
VWidth: 6
Flags: W
LayerCount: 2
Fore
SplineSet
501.622981445 576 m 1
 321 576 l 2
 237.046011694 576 174.519742994 575.057147 121.242984108 567.17147056 c 1
 101.032227597 462.749228586 l 1
 173.303575257 469.424057515 277.017543627 470 447 470 c 2
 477.315652839 470 l 1
 395.243204601 46.6262731122 l 1
 505.399028615 45.2578777828 l 1
 587.406793947 471.298219629 l 1
 762.36575088 468.786847041 940.545747324 468.021942367 962.37138357 468.002762443 c 1
 982.693429549 573 l 1
 930 573 l 2
 865.976418837 573 727.114197956 573.534662301 604.552918148 575.480079441 c 1
 613.015511494 617.479620084 630.675947249 703.460673209 661.448486655 863.734315947 c 0
 669.694280745 907.024734923 679.785666819 958.107913917 687.173957825 998.193138403 c 1
 583.596950104 998.865716375 l 1
 501.622981445 576 l 1
EndSplineSet
Validated: 1
EndChar
StartChar: comma
Encoding: 44 44 54
Width: 1060
VWidth: 26
Flags: W
LayerCount: 2
Fore
SplineSet
561 10.4303006372 m 0
 561 11.334643733 561 12.2389868288 561 13.1433299246 c 2
 601.355704005 249 l 1
 399.634003493 249 l 1
 357.299431003 30 l 1
 445.369253794 30 l 1
 439.534866518 0.179798369468 l 2
 427.055950399 -63.6013284631 406.844744938 -114.947487839 378.060822663 -157.082808907 c 0
 345.696847667 -204.458787221 303.084877147 -239.106214609 251.940789937 -267.07838475 c 1
 274.199967502 -358.079140088 l 1
 358.951963743 -318.529672119 424.560383712 -266.729821093 472.879991303 -200.550412059 c 0
 515.164555382 -142.636707839 544.591986037 -73.1218048055 561 10.4303006372 c 0
EndSplineSet
Validated: 1
EndChar
StartChar: hyphen
Encoding: 45 45 100
Width: 1060
VWidth: 6
Flags: W
LayerCount: 2
Fore
SplineSet
953.030676894 577.035744766 m 1
 166.528741192 577.974291229 l 1
 150.032597508 468 l 1
 933.143654264 468 l 1
 953.030676894 577.035744766 l 1
EndSplineSet
Validated: 1
EndChar
StartChar: period
Encoding: 46 46 53
Width: 1060
VWidth: 26
Flags: W
LayerCount: 2
Fore
SplineSet
594.700568997 244 m 1
 394.634003493 244 l 1
 352.299431003 25 l 1
 552.365996507 25 l 1
 594.700568997 244 l 1
EndSplineSet
Validated: 1
EndChar
StartChar: slash
Encoding: 47 47 104
Width: 1060
VWidth: 60
Flags: W
LayerCount: 2
Fore
SplineSet
950.107892374 1426.75719228 m 1
 771.146952695 1118.19589004 244.462711938 271.993954566 101.242144759 41.8189657825 c 0
 82.6365841113 11.7638293518 57.894927922 -25.2337610944 41.616591782 -49.2153701921 c 1
 137.747335309 -106.893816308 l 1
 156.757439778 -76.2780325881 179.285415305 -40.0271411782 204.634871233 0.763939841129 c 0
 424.728568824 354.927748164 857.812420684 1051.84558177 1045.74266814 1371.02757475 c 1
 950.107892374 1426.75719228 l 1
EndSplineSet
Validated: 1
EndChar
StartChar: zero
Encoding: 48 48 52
Width: 960
VWidth: 0
Flags: HW
LayerCount: 2
Fore
SplineSet
385.284140693 1004.74121094 m 0
 428.184988799 1101.30664062 488.460084421 1180 572.734664352 1180 c 0
 604.85546875 1180 636.4765625 1168.41503906 660.098632812 1147.71582031 c 0
 678.83203125 1131.30078125 691.650390625 1110.32714844 700.868164062 1087.86230469 c 0
 719.000976562 1043.67089844 724.2890625 993.7734375 730.248046875 944.109375 c 1
 240.3046875 390.833007812 l 1
 243.022460938 456.056640625 l 2
 244.073242188 481.295898438 248.9375 550.177734375 259.451171875 602.74609375 c 0
 282.435546875 722.153320312 320.96484375 882.676757812 385.284140693 1004.74121094 c 0
599.094019289 279.115234375 m 0
 558.066668475 185.8828125 498.518732989 112 412.180266204 112 c 0
 387.12323987 112 363.125976562 117.823242188 341.060546875 129.169921875 c 0
 313.350585938 143.418945312 293.717773438 165.883789062 280.560546875 191.416992188 c 0
 259.826171875 231.651367188 254.250976562 277.328125 250.12890625 326.278320312 c 1
 746.7890625 886.353515625 l 1
 739.364257812 810.250976562 734.307617188 751.465820312 718.53125 674.163085938 c 0
 694.55078125 552.028320312 661.202148438 396.43359375 599.094019289 279.115234375 c 0
715.002929688 1281.19335938 m 0
 683.048828125 1298.12792969 643.44921875 1308 595.671006944 1308 c 0
 519.1728007 1308 455.7762762 1268.67089844 402.009623775 1203.421875 c 0
 349.208007812 1145.38867188 300.692382812 1066.66210938 261.689453125 979.203125 c 0
 212.951171875 869.916015625 179.122070312 747.40625 157.541992188 636.216796875 c 0
 140.80078125 551.526367188 131 465.938476562 131 386 c 0
 131 235.071289062 167.7890625 111.325195312 267.6484375 60.22265625 c 0
 300.08203125 43.6259765625 340.188476562 34 387.605613426 34 c 0
 468.715566847 34 532.815252799 72.1865234375 585.591559516 135.041015625 c 0
 639.064453125 191.008789062 685.21875 267.12109375 721.9296875 352.345703125 c 0
 767.798828125 458.831054688 798.818359375 579.01953125 820.463867188 689.813476562 c 0
 837.264648438 776.78125 849 867.323242188 849 952 c 0
 849 1102.44628906 813.533203125 1228.97460938 715.002929688 1281.19335938 c 0
EndSplineSet
EndChar
StartChar: one
Encoding: 49 49 105
Width: 1010
VWidth: 0
Flags: HW
LayerCount: 2
Fore
SplineSet
563.568359375 16 m 1
 807.178710938 1266.7890625 l 1
 652.928710938 1276.23242188 l 1
 620.45703125 1232.46191406 503.278320312 1078.68457031 214 921.24609375 c 1
 263.508789062 817.415039062 l 1
 395.663085938 902.955078125 530.203125 995.37890625 607.498046875 1072.67382812 c 2
 665.149414062 1130.32519531 l 1
 450.453125 16 l 1
 563.568359375 16 l 1
EndSplineSet
EndChar
StartChar: two
Encoding: 50 50 106
Width: 960
VWidth: 0
Flags: HW
LayerCount: 2
Fore
SplineSet
329.848597442 901.380859375 m 1
 329.516178045 907.13671875 329.310435094 913.380859375 329.310435094 919.860351562 c 0
 329.310435094 929.650390625 329.768680758 939.791992188 331.411223658 949.698242188 c 0
 344.004902737 1024.35839844 368.959312263 1082.73046875 404.841903175 1124.34472656 c 0
 449.857100626 1176.55078125 510.174642621 1200 577.401577033 1200 c 0
 641.139648438 1200 693.260742188 1174.99316406 724.051757812 1132.16308594 c 0
 748.30859375 1098.421875 757.864257812 1056.6015625 757.864257812 1013 c 0
 757.864257812 991.3046875 755.708007812 968.797851562 751.422851562 946.301757812 c 0
 745.134765625 914.337890625 728.364257812 878.84375 703.873046875 842.228515625 c 0
 673.250976562 796.447265625 630.047851562 748.651367188 584.040613009 706.490234375 c 0
 542.487338275 667.484375 497.402426271 631.690429688 449.124247634 593.298828125 c 0
 401.161484844 555.157226562 350.1686895 514.595703125 296.557347503 466.315429688 c 0
 171.603515625 367.15625 113.59765625 286.688476562 78.3271484375 194.350585938 c 0
 61.48046875 147.103515625 55.2744140625 103.966796875 46 52 c 1
 704.365234375 52 l 1
 725.344726562 156.895507812 l 1
 187.8125 154.890625 l 1
 195.608398438 186.07421875 l 2
 200.673828125 206.3359375 212.432617188 231.067382812 231.53125 259.49609375 c 0
 255.376953125 294.991210938 290.923828125 335.900390625 333.745811031 376.306640625 c 0
 388.529547779 428.3125 446.153727503 476.213867188 501.108349926 521.920898438 c 0
 553.140062157 565.196289062 602.756420154 606.494140625 647.634765625 647.012695312 c 0
 743.095703125 730.70703125 838.129882812 840.228515625 861.310546875 957.723632812 c 0
 869.142578125 999.84765625 873.462890625 1066.40527344 873.864257812 1070 c 0
 873.864257812 1163.859375 843.772460938 1223.57910156 788.415039062 1260.23046875 c 0
 743.348632812 1290.06738281 677.874023438 1306 596.554375404 1306 c 0
 432.760031412 1306 275.850585938 1187.0234375 235.28125 977.571289062 c 0
 233.602539062 970.85546875 233.32421875 962.408203125 231.573242188 953.97265625 c 0
 229.66015625 936.59765625 227.864257812 916.904296875 227.864257812 899 c 0
 227.864257812 891.346679688 228.02734375 883.836914062 228.333984375 876.805664062 c 1
 329.848597442 901.380859375 l 1
EndSplineSet
EndChar
StartChar: three
Encoding: 51 51 107
Width: 960
VWidth: 0
Flags: HW
LayerCount: 2
Fore
SplineSet
64.1171875 310.1328125 m 1
 61.4755859375 292.30078125 60 274.938476562 60 259 c 0
 60 174.079101562 92.794921875 105.887695312 153.977539062 61.033203125 c 0
 203.216796875 24.9345703125 272.737304688 3 353.516833595 3 c 0
 484.168266185 3 564.370061801 46.4208984375 636.782226562 119.119140625 c 0
 714.08984375 193.59765625 762.413085938 300.561523438 778.485351562 380.921875 c 0
 786.19140625 418.491210938 790 453.942382812 790 487 c 0
 790 536.063476562 781.4375 579.474609375 763.342773438 617.198242188 c 0
 740.788085938 664.215820312 703.178710938 703.642578125 644.301757812 734.904296875 c 2
 597.4140625 759.80078125 l 1
 646.451171875 780.108398438 l 2
 735.048828125 816.80078125 803.545898438 915.353515625 827.463867188 1037.8125 c 0
 831.181640625 1056.40429688 833 1073.98828125 833 1089 c 0
 833 1139.08300781 816.698242188 1176.12597656 789.396484375 1204.50878906 c 0
 742.149414062 1253.62792969 657.342773438 1278 564.958006516 1278 c 2
 555.617231809 1278 l 2
 469.280577236 1278 401.782202051 1241.15234375 352.312749355 1198.51171875 c 0
 309.82068288 1161.88574219 276.26953125 1120.37011719 258.983398438 1096.57226562 c 1
 337.838860706 1043.55859375 l 1
 368.504033638 1090.55078125 436.111041767 1175 539.483166405 1175 c 0
 609.3359375 1175 677.860351562 1150.51757812 706.748046875 1098.77636719 c 0
 715.334960938 1083.39648438 720 1065.80859375 720 1047 c 0
 720 1037.68164062 718.975585938 1030.45507812 717.524414062 1023.12402344 c 0
 705.6953125 963.391601562 682.331054688 918.1640625 645.856445312 884.858398438 c 0
 616.776367188 858.3046875 581.730601441 840.2265625 545.996996779 826.19921875 c 0
 481.166348177 802.403320312 436.156651019 799.21484375 403.259112541 799.01171875 c 1
 385.247604493 690.907226562 l 1
 445.633424221 690.220703125 510.22275842 684.45703125 575.305501793 636.240234375 c 0
 612.594726562 611.962890625 640.711914062 581.497070312 657.22265625 545.181640625 c 0
 670.3984375 516.201171875 676 484.290039062 676 450 c 0
 676 423.888671875 673.127929688 397.721679688 667.533203125 369.172851562 c 0
 637.942382812 218.157226562 530.97745563 108 378.991673706 108 c 0
 327.078394388 108 280.630859375 122.053710938 243.100585938 148.826171875 c 0
 195.733398438 182.618164062 172 235.090820312 172 294 c 0
 172 299.599609375 172.15625 305.17578125 172.51953125 310.819335938 c 1
 64.1171875 310.1328125 l 1
EndSplineSet
EndChar
StartChar: four
Encoding: 52 52 108
Width: 960
VWidth: 0
Flags: HW
LayerCount: 2
Fore
SplineSet
584.293668499 545 m 1
 228.653320312 545 l 1
 278.809570312 588.830078125 l 2
 382.227902723 684.391601562 538.511367962 878.586914062 624.329101562 1005.10253906 c 2
 689.056640625 1090.30566406 l 1
 584.293668499 545 l 1
587.623046875 48 m 1
 668.623046875 466 l 1
 796.643554688 466 l 1
 816.903320312 570 l 1
 688.918945312 570 l 1
 831.918945312 1306 l 1
 716.30859375 1306 l 1
 703.3515625 1276.72070312 681.043945312 1242.67285156 652.327148438 1203.80957031 c 0
 528.150503541 1018.79296875 264.399414062 716.471679688 145.680664062 597.569335938 c 0
 129.963867188 581.830078125 117.345703125 569.178710938 109 560.709960938 c 1
 134.5546875 463 l 1
 566.72950584 463 l 1
 500.944200197 48 l 1
 587.623046875 48 l 1
EndSplineSet
EndChar
StartChar: five
Encoding: 53 53 109
Width: 960
VWidth: 0
Flags: HW
LayerCount: 2
Fore
SplineSet
266.362304688 652.500976562 m 1
 302.385742188 682.930664062 385.196850845 756 489.38177274 756 c 0
 522.083593577 756 560.159340008 749.642578125 596.981445312 727.138671875 c 0
 630.6953125 709.65625 659.358398438 683.685546875 677.479492188 646.802734375 c 0
 691.9140625 617.422851562 699.36328125 582.076171875 699.36328125 540 c 0
 699.36328125 511.150390625 696.17578125 478.5625 688.874023438 443.05859375 c 0
 671.764648438 355.75 638.525390625 283.899414062 590.324206401 230.764648438 c 0
 538.879583723 164.072265625 468.110258672 129 384.725396023 129 c 0
 326.227083892 129 275.079101562 157.135742188 237.698242188 197.919921875 c 0
 214.592773438 223.127929688 196.990234375 252.627929688 182.703125 283.174804688 c 1
 76 220.575195312 l 1
 123.265625 116.404296875 211.145507812 23 356.873295767 23 c 2
 358.470637455 23 l 2
 444.564716887 23.869140625 525.092827065 52.640625 592.053423563 108.947265625 c 0
 691.076171875 179.252929688 766.607421875 293.333984375 797.817382812 454.765625 c 0
 804.528320312 489.279296875 807.36328125 520.599609375 807.36328125 551 c 0
 807.36328125 688.708984375 743.83984375 780.830078125 670.193359375 824.154296875 c 0
 612.916992188 854.521484375 558.542217 864 513.013857805 864 c 0
 451.962106795 864 396.939537645 839.705078125 355.038578226 812.97265625 c 2
 309.90625 785.358398438 l 1
 397.300546757 1157 l 1
 817.758789062 1157 l 1
 838.0390625 1261.1015625 l 1
 335.910040621 1262.93554688 l 1
 184.939453125 690.734375 l 1
 266.362304688 652.500976562 l 1
EndSplineSet
EndChar
StartChar: six
Encoding: 54 54 110
Width: 960
VWidth: 0
Flags: HW
LayerCount: 2
Fore
SplineSet
111.545898438 476.235351562 m 0
 101.883789062 427.923828125 98 382.487304688 98 339 c 0
 98 253.232421875 116.913085938 180.918945312 153.639648438 127.873046875 c 0
 199.09375 62.22265625 273.423828125 22 379.558262144 22 c 0
 465.309372355 22 544.032218614 44.5439453125 608.010773509 89.8681640625 c 0
 699.646484375 146.35546875 768.440429688 238.44921875 794.456054688 372.7734375 c 0
 800.213867188 403.484375 803 431.8203125 803 458 c 0
 803 550.637695312 769.491210938 620.190429688 711.161132812 664.599609375 c 0
 664.209960938 700.345703125 602.544254032 721 533.802668164 721 c 0
 481.573198884 721 444.464594227 713.006835938 415.192851481 700.953125 c 0
 375.757768967 684.713867188 348.948235978 660.200195312 313.719726562 633.796875 c 2
 248.862304688 586.439453125 l 1
 275.396484375 662.251953125 l 2
 296.51171875 722.581054688 319.587890625 786.872070312 356.349762651 850.950195312 c 0
 403.106091386 941.532226562 470.018607149 1026.15234375 565.112872298 1087.2421875 c 0
 639.111328125 1133.06640625 741.873046875 1165.24804688 867.381835938 1176.91894531 c 1
 860.8046875 1273.61035156 l 1
 709.263671875 1257.26464844 593.853274317 1216.70605469 512.050803686 1161.67480469 c 0
 404.190291312 1089.11328125 328.592773438 991.045898438 267.561523438 887.346679688 c 0
 182.272460938 742.2578125 134.057617188 592.711914062 111.545898438 476.235351562 c 0
312.118164062 536.162109375 m 0
 366.772979348 581.64453125 432.025262247 616 500.750295445 616 c 0
 548.964086829 616 589.84670039 602.211914062 620.726535088 574.737304688 c 0
 666.528320312 540.080078125 690 485.815429688 690 422 c 0
 690 404.069335938 688.952148438 384.2578125 684.51171875 363.059570312 c 0
 655.7265625 213.115234375 534.564091013 125 404.983164235 125 c 0
 343.655273438 125 285.278320312 150.338867188 249.309570312 201.740234375 c 0
 220.948242188 242.26953125 208 295.827148438 208 360 c 0
 208 376.491210938 209.244140625 392.50390625 210.309570312 408.4921875 c 1
 211.685546875 412.03515625 l 2
 228.6484375 455.727539062 265.041992188 499.74609375 312.118164062 536.162109375 c 0
EndSplineSet
EndChar
StartChar: seven
Encoding: 55 55 111
Width: 960
VWidth: 0
Flags: HW
LayerCount: 2
Fore
SplineSet
547.267003587 1261 m 2
 480.709288952 1261 385.28125 1266.34765625 307.586914062 1266.94140625 c 1
 275.670898438 1209.83496094 237.1015625 1149.76074219 207 1094.98339844 c 1
 284.44140625 1056.578125 l 1
 300.94140625 1090.23730469 316.869140625 1121.27929688 339.405273438 1153.34960938 c 2
 347.3359375 1164.63671875 l 1
 417.178710938 1161.25683594 497.641521019 1156 556.008423116 1156 c 2
 668.772735044 1156 l 2
 730.801813878 1156 796.295875317 1156.01464844 846.8984375 1157.98144531 c 2
 903.54296875 1160.16015625 l 1
 860.5390625 1109.25976562 l 2
 553.642093533 704.034179688 318.205078125 406.837890625 234.567382812 25 c 1
 348.404296875 25 l 1
 416.4921875 350.604492188 565.376424866 555.799804688 767.002729697 842.985351562 c 0
 847.801757812 949.508789062 942.661132812 1067.62304688 1045.79296875 1207.97851562 c 1
 1026.39453125 1261 l 1
 547.267003587 1261 l 2
EndSplineSet
EndChar
StartChar: eight
Encoding: 56 56 112
Width: 960
VWidth: 0
Flags: HW
LayerCount: 2
Fore
SplineSet
589.044308268 173.745117188 m 0
 542.105938405 140.083984375 483.553821483 122 416.790930573 122 c 0
 358.571138518 122 308.868164062 135.541992188 266.086914062 162.821289062 c 0
 211.947265625 197.34375 183 253.19140625 183 320 c 0
 183 337.296875 184.979492188 355.161132812 188.47265625 372.860351562 c 0
 222.287109375 544.18359375 376.220442254 623.166015625 502.72208484 684.502929688 c 1
 596.274052535 629.561523438 719 558.893554688 719 415 c 0
 719 397.75 716.7265625 380.203125 713.541992188 363.217773438 c 0
 697.844726562 282.315429688 651.895507812 215.926757812 589.044308268 173.745117188 c 0
394.631743413 897.862304688 m 0
 382.075570026 920.729492188 374.683020142 945.993164062 374.683020142 972 c 0
 374.683020142 981.155273438 375.74713108 987.358398438 376.778513054 993.684570312 c 0
 391.940415512 1086.60449219 470.635111878 1161 581.785191853 1161 c 0
 625.857421875 1161 667.5703125 1149.5546875 698.924804688 1128.31054688 c 0
 738.508789062 1101.48925781 759 1059.86816406 759 1015 c 0
 759 1004.18945312 757.72265625 994.067382812 755.46875 983.848632812 c 0
 748.067382812 946.766601562 723.013671875 911.959960938 688.868164062 881.901367188 c 0
 645.86328125 844.043945312 591.698711184 812.623046875 534.369314795 796.682617188 c 2
 529.083167478 795.212890625 l 1
 523.836462758 796.836914062 l 2
 465.712339983 814.826171875 419.72478849 852.16015625 394.631743413 897.862304688 c 0
789.044921875 1217.92675781 m 0
 746.551757812 1248.76074219 685.5 1268 607.565545178 1268 c 0
 428.634619586 1268 309.18359375 1141.21679688 277.452148438 979.759765625 c 0
 274.977539062 969.03515625 274 957.853515625 274 946 c 0
 274 866.306640625 325.507331856 790.190429688 378.033962552 760.501953125 c 2
 419.70884361 736.946289062 l 1
 377.345815099 715.126953125 l 2
 268.99609375 662.8515625 112.2734375 542.978515625 79.5810546875 373.418945312 c 0
 74.7822265625 346.505859375 72 320.991210938 72 297 c 0
 72 203.83203125 108.438476562 128.811523438 175.7109375 79.525390625 c 0
 229.811523438 39.8876953125 305.668945312 16 390.151232137 16 c 0
 603.161401485 16 783.672851562 172.805664062 824.411132812 382.540039062 c 0
 828.1640625 404.1953125 830 424.688476562 830 444 c 0
 830 577.73828125 738.970703125 671.719726562 655.3515625 715.877929688 c 2
 610.018539084 740.9609375 l 1
 657.60546875 761.171875 l 2
 740.161132812 794.709960938 843.026367188 890.439453125 862.413085938 989.552734375 c 0
 866.291992188 1011.89550781 868.790039062 1049.03808594 869 1051 c 0
 869 1122.05859375 841.765625 1179.67285156 789.044921875 1217.92675781 c 0
EndSplineSet
EndChar
StartChar: nine
Encoding: 57 57 113
Width: 960
VWidth: 0
Flags: HW
LayerCount: 2
Fore
SplineSet
576.230488101 1177 m 0
 697.338867188 1177 775.625976562 1059.52636719 775.625976562 945 c 0
 775.625976562 938.158203125 774.625976562 933.43359375 774.625976562 928 c 2
 774.625976562 922.323242188 l 1
 772.193359375 917.236328125 l 2
 732.447265625 834.130859375 620.57140473 743 503.50428266 743 c 0
 433.056833966 743 371.828346432 765.344726562 334.502986492 807.314453125 c 0
 310.069794615 834.788085938 295.081620726 872.102539062 295.081620726 917 c 0
 295.081620726 931.340820312 296.853698378 944.30859375 299.04757555 956.856445312 c 0
 326.696663969 1114.95703125 455.625273552 1177 576.230488101 1177 c 0
197.162109375 950.186523438 m 0
 192.395507812 925.401367188 189.625976562 900.8125 189.625976562 880 c 0
 189.625976562 790.237304688 227.931640625 728.604492188 286.279262376 689.471679688 c 0
 331.966992667 657.860351562 393.881445743 641 465.367370051 641 c 0
 527.027184403 641 573.58709563 649.948242188 613.307272144 667.711914062 c 0
 646.283203125 681.93359375 677.668945312 701.936523438 709.412109375 729.0234375 c 2
 761.939453125 773.846679688 l 1
 755.83203125 738.220703125 749.7109375 703.23828125 743.96484375 667.16015625 c 0
 740.375 644.624023438 736.705078125 621.548828125 732.166015625 598.208007812 c 0
 712.916015625 498.456054688 685.939453125 399.125 642.028320312 316.881835938 c 0
 610.216962728 251.173828125 568.976748932 195.659179688 513.186617009 162.291992188 c 0
 477.36830258 140.869140625 436.012895075 129 389.093544832 129 c 0
 317.963595068 129 269.678376566 136.751953125 227.375 158.62109375 c 0
 172.1171875 185.118164062 135.2421875 229.2421875 82.2041015625 293.033203125 c 1
 -2 224.703125 l 1
 45.9619140625 160.567382812 88.251953125 107.791015625 150.171875 72.4130859375 c 0
 203.439453125 41.9794921875 269.724280826 23 362.4863965 23 c 0
 653.9375 23 784.052734375 324.623046875 847.0859375 648.791992188 c 0
 866.908203125 747.907226562 881.625976562 849.694335938 881.625976562 940 c 0
 881.625976562 1027.73046875 867.274414062 1104.51855469 832.012695312 1161.34082031 c 0
 788.673828125 1231.1796875 711.874023438 1277 579.778107879 1277 c 0
 391.658986674 1277 236.619140625 1152.16699219 197.162109375 950.186523438 c 0
EndSplineSet
EndChar
StartChar: less
Encoding: 60 60 102
Width: 1060
VWidth: 4
Flags: W
LayerCount: 2
Fore
SplineSet
698.807787135 10.9574976207 m 1
 776.13329905 91.0201957982 l 1
 753.530624345 127.800638746 712.975439666 171.622434073 663.952925485 216.217656456 c 0
 594.021430741 279.833540134 507.655160371 345.403886948 433.203225509 401.878910445 c 0
 392.092290629 433.063338595 354.617037749 461.47534269 325.151068144 485.670976268 c 2
 299.170049958 507.004983071 l 1
 348.782149351 540.350820367 393.374736105 570.701698581 448.978009639 608.787417117 c 0
 615.013148128 722.51395064 818.144002255 861.943953718 962.779328817 935.014367372 c 1
 920.998171935 1033.89643866 l 1
 898.117211933 1025.18142517 875.514324918 1012.6581206 852.528662488 1000.81466409 c 0
 710.022135294 925.681478404 373.233867001 688.496079829 189.665195811 558.424020527 c 1
 171.428599608 463.276562075 l 1
 238.660203305 410.639314543 540.650043132 173.582284968 617.273683311 98.0701251687 c 0
 648.314325188 69.2950721068 677.699492554 41.123092242 698.807787135 10.9574976207 c 1
EndSplineSet
Validated: 1
EndChar
StartChar: equal
Encoding: 61 61 114
Width: 1060
VWidth: 6
Flags: W
LayerCount: 2
Fore
SplineSet
859.369669614 324.086690667 m 1
 700.267175318 324.978602349 574.083034505 332 410 332 c 0
 301.25694288 332 195.897082927 325.09435341 63.8371040702 325.09435341 c 1
 42.6248925793 215.611971522 l 1
 99.7954428829 218.241353489 203.045813167 219.000479937 205 219 c 0
 256.315782693 219 306.277478526 218 357 218 c 0
 529.762129532 218 667.725889591 213.395536447 836.604994976 213.022671974 c 1
 859.369669614 324.086690667 l 1
949.6371967 797.928554033 m 1
 770.509772961 797.08211443 661.312133673 789 479 789 c 0
 389.326666001 789 284.049402781 790.817973295 152.301103603 798.753819292 c 1
 143.971587926 763.588054538 136.794650008 726.943856677 129.822889027 690.184717208 c 1
 258.737396159 682.183896968 357.436878433 677 446 677 c 0
 633.368956694 677 744.856104657 688.140031578 928.39065783 688.954370798 c 1
 949.6371967 797.928554033 l 1
EndSplineSet
Validated: 1
EndChar
StartChar: greater
Encoding: 62 62 103
Width: 1060
VWidth: 6
Flags: W
LayerCount: 2
Fore
SplineSet
787.072159729 467.315523143 m 1
 795.077785133 566.585278157 l 1
 777.298776653 582.123722361 749.02843163 605.815769343 714.926246426 634.371954111 c 0
 638.418359715 698.437448332 531.955729308 787.569939952 441.160811081 871.236072506 c 0
 378.828852005 928.674022252 324.02859044 982.907960968 290.202496849 1027.07290847 c 1
 197.052342672 960.232339823 l 1
 206.766902804 944.122865329 221.664542691 927.671694351 236.772316757 910.503769276 c 0
 327.781267776 806.773136932 532.100669278 620.29559899 639.901586806 531.285667086 c 2
 665.366221976 510.259821533 l 1
 638.994691396 491.977717512 616.48017032 476.352357325 588.565756743 456.926419659 c 0
 424.500947813 342.751972015 166.978097009 163.236336828 -11.0320756602 72.0341565622 c 1
 32.9052727774 -11.8462359096 l 1
 93.6721563217 12.7575461357 182.533954626 63.3157566018 277.36318229 122.94200368 c 0
 409.814047911 206.223795948 555.092649477 307.190424892 661.769271603 381.339609899 c 0
 715.280174513 418.534168188 758.885133933 448.86846312 787.072159729 467.315523143 c 1
EndSplineSet
Validated: 1
EndChar
StartChar: question
Encoding: 63 63 119
Width: 1060
VWidth: 0
Flags: W
LayerCount: 2
Fore
SplineSet
951 1088 m 0
 951 1129.24957172 935.912508549 1166.95577393 908.411594575 1199.82433617 c 0
 853.249277357 1265.75327434 746.734977511 1311 623 1311 c 0
 485.995969031 1311 304.418896612 1283.92095709 178.070579719 1143.70318378 c 1
 231.405761932 1059.70027179 l 1
 293.509447846 1119.52345973 349.425372789 1155.40350879 400.693755179 1176.5205001 c 0
 472.138891535 1205.94811715 533.482764282 1206.00000065 584.459225129 1206.00000065 c 2
 585 1206.00000065 l 2
 663.235115521 1206.00000065 744.492866901 1181.52566898 793.497345472 1134.06870026 c 0
 818.195843516 1110.15015479 835 1079.07142082 835 1043 c 0
 835 909.413101633 738.594134743 839.491722573 630.306615257 758.772617093 c 0
 616.538901626 748.509961395 602.444542596 738.003327742 588.126199958 727.099359117 c 0
 492.358657206 654.785092142 430.108663595 582.56597751 408.574977466 470.388011124 c 1
 405.958975443 456 l 1
 530.413354902 456 l 1
 535.465133482 481.820201631 l 2
 553.522096081 574.36213495 628.558749226 644.962514538 691.397558414 690.288868706 c 0
 807.532704931 774.56393078 951 871.963369493 951 1088 c 0
529.721873524 245 m 1
 330.648496846 245 l 1
 288.278126476 25 l 1
 487.351503154 25 l 1
 529.721873524 245 l 1
EndSplineSet
Validated: 1
EndChar
StartChar: at
Encoding: 64 64 163
Width: 1060
VWidth: 6
Flags: W
LayerCount: 2
Back
SplineSet
462 285 m 4xdf80
 462 174 467 148 490 148 c 4
 568 148 652 389 697 591 c 5
 735 777 l 5
 734 813 730 881 667 881 c 4
 619 881 462 543 462 285 c 4xdf80
822 171 m 7xbf80
 848 171 855 218 871 300 c 6
 871 300 928 582 952 705 c 4
 964 767 972 835 972 900 c 4
 972 1077 915 1238 740 1238 c 4
 592 1238 367 1027 274 550 c 4
 248 416 234 295 234 190 c 4
 234 -59 322 -212 502 -212 c 4
 545 -212 582 -199 618 -178 c 5
 664 -313 l 5
 612 -342 550 -362 473 -362 c 4
 192 -362 79 -171 79 144 c 4
 79 263 95 399 124 550 c 4
 230 1095 510 1386 769 1386 c 4
 1053 1386 1123 1148 1123 933 c 4
 1123 855 1113 780 1102 721 c 4
 1071 564 1045 427 1014 270 c 4
 976 76 890 3 810 3 c 4xbf80
 719 3 686 84 686 183 c 5
 686 183 615 -7 495 -7 c 4xdf80
 382 -7 324 78 324 288 c 4
 324 559 528 1035 678 1035 c 4
 744 1035 762 998 778 958 c 5
 783 981 788 1008 790 1028 c 5
 913 1003 l 5
 781 357 l 5
 779 342 778 326 778 310 c 4
 778 241 796 171 822 171 c 7xbf80
EndSplineSet
Fore
SplineSet
654 718 m 0
 731.529771125 718 807.368699724 690.015092411 848.892700912 647.452991194 c 2
 857.988918193 638.129368481 l 1
 836.72036198 525.878655135 l 1
 813.180387393 487.299252339 767.696774084 429.342981905 708.788128634 380.33482327 c 0
 683.60660499 359.38543467 656.495225581 340.726850892 628.244604631 327.90615383 c 0
 605.675510741 317.663847431 582.139093659 311 558 311 c 0
 521.360661361 311 489.129878816 327.075399045 469.485750093 357.067126938 c 0
 454.094701184 380.565453455 447 410.460118706 447 445 c 0
 447 463.95878785 449.197038304 484.451755725 453.465696815 505.824063938 c 0
 464.166377103 561.599161405 482.226027861 609.008756388 509.579306915 645.438492494 c 0
 544.094188719 691.406217297 593.583409449 718 654 718 c 0
818 273 m 0
 818 248.05379294 819.87328234 226.138289712 824.070716435 207.172530484 c 1
 938.088749548 251.940347166 l 1
 925.007288117 287.845170691 920 324.059672548 920 359 c 0
 920 413.91159086 931.893904395 464.965165307 941.485310147 512.922194069 c 2
 1005.45729212 842.779947328 l 2
 1013.20469903 882.485407734 1018 924.015708456 1018 964 c 0
 1018 1035.8472334 1003.23859507 1103.6794167 968.927815779 1155.76536128 c 0
 926.5924479 1220.03314156 853.01684222 1265 726 1265 c 0
 441.287759108 1265 183.706531205 991.902646436 86.5439088548 490.226249406 c 0
 74.9185812055 432.09961116 70 372.562171505 70 315 c 0
 70 222.321433261 84.647376554 133.484354919 113.344796545 56.9105461325 c 0
 138.865686044 -11.1872728793 175.372962776 -69.3594327336 222.065549996 -112.746685045 c 0
 280.309527424 -166.867612901 354.829181419 -199 448 -199 c 0
 508.011133232 -199 578.344403479 -181.273442476 656.695837964 -146.028817057 c 1
 635.563582719 -62.1213329962 l 1
 582.015977641 -89.1094880164 535.149548058 -103 489 -103 c 0
 411.219134218 -103 345.11989284 -76.002806248 293.994462751 -29.114893554 c 0
 210.496709145 47.4621714101 165 177.602676472 165 334 c 0
 165 388.59829849 170.134363654 447.106646535 181.452937564 505.757438614 c 0
 263.99313087 930.53745782 457.655767813 1164 698 1164 c 0
 784.981335471 1164 843.052865324 1134.99255114 875.217410289 1085.56614552 c 0
 900.378857202 1046.90121548 908 999.905939018 908 952 c 0
 908 896.979522641 897.124257169 839.355544555 887.33405908 786.488474874 c 2
 877.466797671 733.205263266 l 1
 843.584784494 770.099010947 l 2
 805.842344841 811.196334125 741.582236126 828 676 828 c 0
 530.827693242 828 385.007010379 694.322164387 344.540401993 486.208178401 c 0
 341.03593167 468.685826784 340 449.100929623 340 431 c 0
 340 302.699104328 426.60857526 209 529 209 c 0
 643.805630663 209 704.166792932 262.681897782 774.340238824 324.972214188 c 2
 824.098175422 369.123622719 l 1
 821.426944434 337.068850872 818 307.757854753 818 273 c 0
EndSplineSet
Validated: 1
EndChar
StartChar: A
Encoding: 65 65 26
Width: 960
VWidth: 0
Flags: HW
LayerCount: 2
Fore
SplineSet
683.42578125 470.469726562 m 1
 489.813390522 467.009765625 l 1
 425.643866949 463.577148438 365.251215368 462.58984375 313.275419309 450.515625 c 2
 268.404028766 440.091796875 l 1
 591.111456819 1165.49609375 l 1
 683.42578125 470.469726562 l 1
-33 25 m 1
 75.3603515625 25 l 1
 85.9462890625 59.919921875 106.4375 106.68359375 120.7890625 132.770507812 c 2
 218.276766059 321.744140625 l 1
 228.222066333 324.350585938 l 2
 326.756440814 350.169921875 499.353592215 353.455078125 626.805664062 356.221679688 c 0
 648.025390625 356.63671875 666.799804688 357.025390625 687.298828125 357.458984375 c 1
 737.368164062 25 l 1
 856.017578125 25 l 1
 677.166015625 1276 l 1
 550.664922508 1276 l 1
 18.2353515625 147.864257812 l 2
 3.623046875 117.909179688 -19.681640625 61.6962890625 -33 25 c 1
EndSplineSet
EndChar
StartChar: B
Encoding: 66 66 27
Width: 960
VWidth: 0
Flags: HW
LayerCount: 2
Fore
SplineSet
14 28 m 1
 119.564453125 28 l 2
 177.4609375 28 229.51171875 25.7294921875 275.69415728 23.6171875 c 0
 313.228790764 21.744140625 348.337001371 20 382.514657519 20 c 0
 416.516078742 20 451.668560924 20.1640625 483.712667692 27.5146484375 c 0
 567.218223889 46.9306640625 637.612304688 80.298828125 695.3515625 129.166992188 c 0
 767.322265625 190.081054688 814.3046875 276.604492188 838.005859375 397.6953125 c 0
 842.795898438 423.594726562 845.564453125 448.07421875 845.564453125 471 c 0
 845.564453125 607.415039062 763.12890625 701.364257812 647.044921875 743.491210938 c 2
 600.854492188 760.25390625 l 1
 641.611328125 787.741210938 l 2
 719.560546875 840.3125 744.29296875 912.151367188 763.040039062 1006.87304688 c 0
 766.782226562 1026.52050781 768.564453125 1044.7890625 768.564453125 1062 c 0
 768.564453125 1096.65625 760.541015625 1125.39160156 746.734375 1149.80078125 c 0
 725.30859375 1187.68359375 688.80078125 1216.49316406 642.306640625 1236.94238281 c 0
 586.291610465 1262.453125 523.27698263 1274 462.721129978 1274 c 2
 447.02855928 1274 l 2
 357.892850628 1274 318.900660664 1267.79003906 251.760742188 1261.63964844 c 1
 235.315429688 1137.00976562 208.397460938 982.51953125 176.095703125 818.159179688 c 0
 127.228515625 567.186523438 89.9912109375 391.098632812 59.8173828125 248.41015625 c 0
 42.5 166.522460938 27.517578125 95.66796875 14 28 c 1
338.340990489 1167.92480469 m 1
 371.931196888 1171.65332031 391.750389232 1175 433.079607548 1175 c 2
 447.900368763 1175 l 2
 532.735774973 1175 603.1328125 1165.18652344 638.802734375 1102.1796875 c 0
 650.911132812 1080.79101562 656.564453125 1055.03710938 656.564453125 1025 c 0
 656.564453125 1013.04589844 655.265625 1000.11914062 653.060546875 986.887695312 c 0
 652.365234375 984.106445312 651.669921875 981.325195312 650.974609375 978.543945312 c 0
 615.586914062 799.10546875 465.350180451 781.931640625 301.901227117 778.005859375 c 2
 275.022421262 777.360351562 l 1
 283.315679246 827.642578125 292.30451179 878.369140625 301.263546157 926.686523438 c 0
 313.930324958 995 330.229075688 1081.85742188 336.435609997 1147.71289062 c 2
 338.340990489 1167.92480469 l 1
255.116210938 672 m 1
 274.440079771 672 293.169510261 672 311.898089375 672 c 0
 369.332795967 672 416.336438311 674 468.823796361 674 c 0
 515.572025771 674 554.562512983 671.067382812 590.786026736 656.26953125 c 0
 622.678710938 644.438476562 652.907226562 624.97265625 682.102539062 595.810546875 c 0
 715.361328125 563.510742188 738.564453125 525.239257812 738.564453125 464 c 0
 738.564453125 444.9921875 736.353515625 425.450195312 732.10546875 404.208007812 c 0
 702.236328125 250.599609375 585.052857732 142.7734375 479.486435002 128.206054688 c 0
 446.986841834 123.041992188 414.558764287 121 379.027419586 121 c 0
 348.667335433 121 325.021205952 122.485351562 299.891978699 124.061523438 c 0
 269.713237729 125.955078125 233.892578125 128 175.564453125 128 c 2
 144.749023438 128 l 1
 172.478515625 259.712890625 220.779296875 502.458984375 255.116210938 672 c 1
EndSplineSet
EndChar
StartChar: C
Encoding: 67 67 28
Width: 960
VWidth: 0
Flags: HW
LayerCount: 2
Fore
SplineSet
428.245716847 1064.69628906 m 0
 488.390058096 1130.03808594 563.296518044 1177 652.016617344 1177 c 0
 729.93359375 1177 830.075195312 1134.79882812 877.87890625 1024.88183594 c 1
 969.115234375 1079.62304688 l 1
 912.702148438 1216.05175781 800.43359375 1281 681.313705211 1281 c 0
 533.760142883 1281 403.25319933 1193.96289062 323.796875 1092.52441406 c 0
 258.936523438 1018.95117188 149.5546875 867.096679688 101.547851562 618.244140625 c 0
 88.755859375 550.350585938 82 488.950195312 82 433 c 0
 82 307.567382812 114.467773438 208.709960938 176.475585938 129.671875 c 0
 244.857421875 47.1162109375 358.94603564 22 454.927117151 22 c 2
 457.590488776 22 l 2
 609.087089563 22 738.793945312 119.415039062 839.288085938 258.455078125 c 1
 757.299804688 308.303710938 l 1
 686.702004249 202.470703125 594.070077875 131.009765625 462.790652513 126.014648438 c 2
 462.410913981 126 l 2
 458.141022949 126 453.870264935 126 449.600373903 126 c 0
 407.790988093 126 373.995992679 130.7109375 343.208561121 147.064453125 c 0
 317.456054688 160.129882812 293.315429688 180.102539062 269.221679688 207.50390625 c 0
 213.649414062 270.85546875 192 357.453125 192 453 c 0
 192 509.1640625 199.23828125 568.662109375 211.465820312 629.823242188 c 0
 222.063476562 685.094726562 250.168945312 772.228515625 295.998046875 861.794921875 c 0
 332.100775558 933.423828125 374.709519648 1006.53320312 428.245716847 1064.69628906 c 0
EndSplineSet
EndChar
StartChar: D
Encoding: 68 68 29
Width: 960
VWidth: 0
Flags: HW
LayerCount: 2
Fore
SplineSet
337.116183712 1174.65917969 m 2
 348.146014491 1176.70898438 357.280312091 1177.16015625 365.4291777 1177.16015625 c 0
 370.828469069 1177.16015625 375.796798182 1177 381.187330156 1177 c 2
 408.09619305 1177 l 2
 498.221613074 1177 564.313879738 1162.97265625 615.897083741 1133.89746094 c 0
 681.774414062 1097.33203125 724.741210938 1037.97851562 761.234375 964.993164062 c 0
 790.880859375 904.6015625 803.778320312 822.428710938 803.778320312 733 c 0
 803.778320312 667.185546875 796.6171875 596.783203125 783.33984375 528.321289062 c 0
 772.703125 470.9609375 743.916992188 382.969726562 716.619140625 333.833984375 c 0
 616.186143792 142.578125 438.289829246 116 333.648339044 116 c 0
 279.853387684 116 238.934747671 116.004882812 151.90234375 119.014648438 c 2
 122.245117188 120.038085938 l 1
 148.05078125 243.905273438 209.374023438 545.633789062 268.568658496 870.71484375 c 0
 279.917331271 936.89453125 293.249131181 1004.2109375 304.483931815 1068.921875 c 0
 311.24706106 1106.62402344 316.444010395 1138.37792969 321.226640323 1171.70703125 c 1
 337.116183712 1174.65917969 l 2
13.2646484375 119.911132812 m 0
 6.6884765625 91.216796875 -6.5 33.748046875 -9 21.8505859375 c 1
 85.7548828125 20.953125 202.094726562 15 285.212385835 15 c 0
 334.250109513 15 378.999233167 15.9970703125 427.997539565 21.84375 c 0
 588.793762268 42.865234375 692.868164062 114.639648438 770.513671875 226.126953125 c 0
 832.966796875 315.798828125 872.455078125 433.170898438 899.225585938 572.73046875 c 0
 911.001953125 636.517578125 917.778320312 699.912109375 917.778320312 760 c 0
 917.778320312 863.998046875 899.154296875 959.462890625 863.28125 1034.09082031 c 0
 816.299804688 1129.61425781 755.756835938 1192.99902344 667.347144932 1232.01855469 c 0
 603.230997887 1263.37597656 521.378826887 1279 415.271889822 1279 c 0
 334.70121838 1279 295.538837158 1274.93652344 231.607421875 1268.09082031 c 1
 222.444335938 1182.46777344 203.590820312 1069.13671875 181.3359375 952.301757812 c 0
 139.462890625 730.970703125 81.7744140625 452.135742188 45.708984375 278.309570312 c 0
 28.734375 196.498046875 16.685546875 138.387695312 13.2646484375 119.911132812 c 0
EndSplineSet
EndChar
StartChar: E
Encoding: 69 69 30
Width: 960
VWidth: 0
Flags: HW
LayerCount: 2
Fore
SplineSet
960.666992188 1169 m 1
 960.666992188 1269.01367188 l 1
 847.780273438 1269.33398438 739.58984375 1272 621.235849106 1272 c 2
 434.324895911 1272 l 2
 372.049618935 1272 315.686390731 1271.97167969 268.516601562 1269.2265625 c 1
 26 22 l 1
 647.295549311 22 l 2
 701.668495994 22 737.46875 29.4609375 772.900390625 41.7646484375 c 1
 739.337890625 136.413085938 l 1
 718.278320312 130.260742188 688.733421202 123 656.28165283 123 c 2
 150.322265625 123 l 1
 182.3046875 287.17578125 217.044921875 447.798828125 254.057617188 640.436523438 c 0
 256.8671875 657.291015625 259.67578125 674.145507812 262.485351562 691 c 1
 680.544132331 691 l 1
 680.544132331 791 l 1
 282.223685712 791 l 1
 347.465956437 1169 l 1
 960.666992188 1169 l 1
EndSplineSet
EndChar
StartChar: F
Encoding: 70 70 31
Width: 960
VWidth: 0
Flags: HW
LayerCount: 2
Fore
SplineSet
720.06524717 781.57421875 m 1
 702.763611003 785.302734375 660.748260024 793 602.33499061 793 c 0
 492.477080297 793 430.861410533 790 321.35932248 790 c 2
 293.847711729 790 l 1
 360.67856747 1167.88769531 l 1
 489.480915237 1168.6640625 674.90591442 1170 771.830078125 1170 c 2
 842.08984375 1170 l 2
 896.393554688 1169.44628906 928.442382812 1165.40820312 951.883789062 1158.52246094 c 0
 958.889648438 1156.46386719 965.055664062 1154.10449219 970.546875 1151.64160156 c 1
 1017.5546875 1251.10644531 l 1
 990.891601562 1261.84570312 953.341796875 1270.74511719 897.323242188 1273 c 1
 283.453125 1273 l 1
 42 27.25390625 l 1
 151.243164062 24.5224609375 l 1
 181.40625 184.219726562 251.962890625 572.354492188 275.186523438 689.44140625 c 1
 294.440748831 689.990234375 l 2
 388.644249913 692.850585938 569.278925521 693.000976562 586.507981028 693.000976562 c 0
 587.382489471 693.000976562 587.833020642 693 587.833020642 693 c 2
 622.318570686 693 659.347099229 689.728515625 690.565634432 683.254882812 c 1
 720.06524717 781.57421875 l 1
EndSplineSet
EndChar
StartChar: G
Encoding: 71 71 32
Width: 960
VWidth: 0
Flags: HW
LayerCount: 2
Fore
SplineSet
464.583806112 583.862304688 m 1
 538.909385574 608.647460938 600.967602222 613 663.235201569 613 c 0
 700.302097544 613 735.188070367 612 776 612 c 0
 790.756835938 612 805.512695312 612 820.26953125 612 c 1
 814.549804688 582.258789062 l 2
 787.626953125 442.259765625 754.744140625 337.026367188 709.316110696 261.432617188 c 0
 678.249172725 208.8671875 639.399004775 170.858398438 591.431012083 148.233398438 c 0
 553.150928119 130.177734375 509.734809724 122 460.538673135 122 c 0
 344.876726117 122 263.328125 162.65234375 212.848632812 234.821289062 c 0
 172.94921875 291.864257812 158 364.690429688 158 445 c 0
 158 500.232421875 165.247070312 559.713867188 177.469726562 621.845703125 c 0
 196.064453125 718.758789062 224.3125 822.602539062 269.08203125 913.708007812 c 0
 303.664404613 986.526367188 345.617483395 1051.65820312 401.258736161 1097.14257812 c 0
 439.226505595 1128.17285156 473.089318425 1147.44726562 506.121638534 1158.88476562 c 0
 547.441290664 1173.19238281 586.465650943 1175 629.0020101 1175 c 0
 693.333524619 1175 742.368665267 1163.70898438 783.857421875 1137.97363281 c 0
 830.27734375 1109.54101562 857.391601562 1065.43164062 875.087890625 1010.68261719 c 1
 992.92578125 1043.3359375 l 1
 968.959960938 1118.41210938 928.793945312 1177.58007812 869.036132812 1217.74707031 c 0
 816.212890625 1253.25292969 746.623180942 1274.82421875 664.765102884 1277 c 1
 647.019479294 1277 l 2
 547.326042204 1277 443.914742574 1253.07421875 344.679660047 1166.29882812 c 0
 198.892578125 1046.953125 111.875976562 856.787109375 66.5419921875 623.216796875 c 0
 53.787109375 557.481445312 47 495.049804688 47 436 c 0
 47 325.65234375 70.53515625 230.465820312 119.291992188 159.650390625 c 0
 179.73828125 71.8564453125 280.756835938 17 423.602861288 17 c 0
 460.836911517 17 518.440027384 18.2685546875 557.295473889 27.373046875 c 0
 647.869326718 52.158203125 733.074008918 96.3134765625 805.7734375 202.350585938 c 0
 865.491210938 287.631835938 912.805664062 414.982421875 935.166992188 607.904296875 c 2
 946.959960938 708.533203125 l 1
 862.376953125 709.999023438 780.977539062 710 693.864899199 710 c 0
 610.384545106 710 525.482500084 704.795898438 442.665484456 676.581054688 c 1
 464.583806112 583.862304688 l 1
EndSplineSet
EndChar
StartChar: H
Encoding: 72 72 33
Width: 960
VWidth: 0
Flags: HW
LayerCount: 2
Fore
SplineSet
869.305664062 1266 m 1
 770.305664062 752 l 1
 540.71276125 752 l 2
 432.460965748 752 347.096038204 745.072265625 261.906917608 724.577148438 c 2
 227.810546875 716.4375 l 1
 326.642054255 1270.6171875 l 1
 227.3125 1269.25585938 l 1
 -15 25 l 1
 95.015625 25 l 1
 138.07421875 248.703125 148.556640625 312.233398438 208.318359375 618.177734375 c 1
 224.659179688 621.499023438 l 2
 339.982072264 647.155273438 470.386430952 650 603.449203772 650 c 2
 749.965820312 650 l 1
 638.279401219 25 l 1
 736.045898438 25 l 1
 977.325195312 1266 l 1
 869.305664062 1266 l 1
EndSplineSet
EndChar
StartChar: I
Encoding: 73 73 50
Width: 960
VWidth: 0
Flags: HW
LayerCount: 2
Fore
SplineSet
635.141543617 1177 m 1
 653.156636438 1177 l 2
 747.9296875 1177 794.559570312 1172.53125 896.1015625 1172.04785156 c 1
 916.295898438 1274.36816406 l 1
 771.21875 1276.12402344 680.861328125 1277 593.747356624 1277 c 0
 513.667005589 1277 445.898176665 1273.52636719 320.134765625 1273.52636719 c 1
 304.0859375 1170.55078125 l 1
 399.901886396 1175.57421875 460.248821289 1175.08203125 539.964860478 1176.46386719 c 1
 361.00242502 126 l 1
 270.643554688 126 l 2
 218.422851562 126 172.416992188 125.166015625 98.4287109375 121.915039062 c 1
 79 22.08984375 l 1
 156.205078125 22.546875 219.376953125 24.6611328125 272.349609375 26.4345703125 c 0
 313.645507812 27.8173828125 345.720950831 29 372.709889082 29 c 0
 420.733357213 29 462.497828378 30 508.128100422 30 c 0
 558.520022148 30 608.50667894 29.158203125 673.241210938 25.197265625 c 1
 692.640625 125.536132812 l 1
 655.236712038 127.352539062 591.81402959 127.982421875 591.126358985 128 c 0
 548.057361326 128 525.499888483 127 483.665455793 127 c 2
 457.175633303 127 l 1
 635.141543617 1177 l 1
EndSplineSet
EndChar
StartChar: J
Encoding: 74 74 51
Width: 960
VWidth: 0
Flags: HW
LayerCount: 2
Fore
SplineSet
83.890625 118.81640625 m 0
 124.557617188 58.1005859375 194.306640625 17 307.734209344 17 c 0
 572.804722542 17 672.052734375 290.703125 741.461914062 646.802734375 c 0
 765.310546875 769.028320312 798.25390625 970.721679688 817.1640625 1147.87304688 c 1
 831.967773438 1277 l 1
 490.104500689 1277 l 1
 411.346658546 1274.67382812 369.648024477 1267.16015625 342.64356227 1260.69628906 c 1
 357.820885348 1156.71386719 l 1
 388.045516854 1163.57714844 421.346043337 1170.22070312 465.426042511 1169.99902344 c 2
 704.875 1168.87988281 l 1
 689.021484375 1024.08007812 655.676757812 760.481445312 635.5625 654.325195312 c 0
 607.342773438 510.184570312 579.334813189 392.594726562 544.588188276 303.700195312 c 0
 516.85983805 232.762695312 482.277618759 178.734375 435.247545236 147.293945312 c 0
 405.069886766 127.12109375 370.51870323 117 331.784403181 117 c 0
 262.7578125 117 211.362304688 149.140625 182.66015625 197.939453125 c 0
 159.459960938 237.3828125 151 285.98046875 151 338 c 0
 151 358.166015625 151.99609375 378.904296875 154.33984375 400.178710938 c 1
 43.9111328125 400.869140625 l 1
 38.630859375 368.232421875 36 335.862304688 36 305 c 0
 36 233.198242188 50.9248046875 168.032226562 83.890625 118.81640625 c 0
EndSplineSet
EndChar
StartChar: K
Encoding: 75 75 34
Width: 960
VWidth: 0
Flags: HW
LayerCount: 2
Fore
SplineSet
708.683818842 317.61328125 m 0
 628.610941163 467.677734375 531.155550098 626.29296875 483.981524593 689.059570312 c 2
 470.727966768 706.694335938 l 1
 485.523685954 722.794921875 l 2
 551.457723741 794.544921875 806.979492188 1048.78222656 1016.44433594 1186.97070312 c 1
 956.03515625 1274.22753906 l 1
 950.936523438 1270.46679688 945.108398438 1266.19824219 938.48828125 1261.33886719 c 0
 877.494140625 1216.56445312 754.276730575 1124.88476562 596.797444803 976.959960938 c 0
 489.128554531 874.158203125 412.272791883 796.259765625 320.50179697 686.09375 c 2
 264.370117188 621.111328125 l 1
 382.40691607 1283 l 1
 285.2890625 1283 l 1
 40 20 l 1
 147.428710938 20 l 1
 234.12109375 427.453125 l 1
 236.407226562 431.142578125 l 2
 283.48046875 507.100585938 377.349299621 604.48828125 377.943323888 605.111328125 c 2
 395.391348147 623.424804688 l 1
 410.907686936 603.079101562 l 2
 466.129811712 530.668945312 552.420025347 385.55078125 623.115995373 250.740234375 c 0
 654.510753315 190.873046875 682.705216586 133.208007812 703.527936084 84.8544921875 c 0
 714.937451363 58.3603515625 724.163861066 34.8564453125 730.529039128 14.615234375 c 1
 835.67578125 49.642578125 l 1
 829.004882812 71.32421875 817.645507812 99.51953125 802.758789062 131.225585938 c 0
 777.23046875 185.594726562 744.30402809 250.858398438 708.683818842 317.61328125 c 0
EndSplineSet
EndChar
StartChar: L
Encoding: 76 76 35
Width: 960
VWidth: 0
Flags: HW
LayerCount: 2
Fore
SplineSet
65 22 m 1
 668.666015625 22 l 2
 733.370117188 22 776.92578125 24.234375 821.80859375 41.4267578125 c 1
 784.749023438 138.881835938 l 1
 754.690429688 129.169921875 742.565429688 126 697.30078125 126 c 2
 195.333984375 126 l 1
 401.27437827 1273 l 1
 308.276367188 1273 l 1
 65 22 l 1
EndSplineSet
EndChar
StartChar: M
Encoding: 77 77 36
Width: 960
VWidth: 31
Flags: HW
LayerCount: 2
Fore
SplineSet
404.585619918 930.842773438 m 0
 373.52916974 1042.85449219 345.275310171 1128.65527344 327.743215125 1266.140625 c 1
 225.375 1266.86621094 l 1
 -14 20 l 1
 93.0908203125 20 l 1
 277.664136998 1003.62304688 l 1
 306.917280924 913.091796875 l 2
 313.684317963 892.176757812 317.042655576 877.678710938 323.08872353 853.163085938 c 0
 363.495683303 715.973632812 392.37862374 630.48046875 413.466085943 566.568359375 c 1
 494.812780438 564.357421875 l 1
 515.924098235 601.971679688 567.545838154 678.798828125 624.820470484 765.038085938 c 0
 660.458961932 818.700195312 697.832727012 874.974609375 732.403320312 924.53515625 c 2
 799.173828125 1017.75 l 1
 614.753409507 20 l 1
 711.11328125 20 l 1
 952.4296875 1266 l 1
 840.385742188 1266 l 1
 755.447265625 1116.75390625 605.417920102 904.51171875 499.740286061 744.294921875 c 2
 473.356881828 704.294921875 l 1
 462.791503983 741.275390625 456.311617622 764.116210938 443.449034358 803.47265625 c 0
 432.069032131 838.295898438 417.81752313 881.880859375 404.585619918 930.842773438 c 0
EndSplineSet
EndChar
StartChar: N
Encoding: 78 78 37
Width: 960
VWidth: 0
Flags: HW
LayerCount: 2
Fore
SplineSet
-1 22 m 1
 107.041015625 22 l 1
 176.323242188 378.762695312 244.927278854 736.1875 308.549251264 1092.12402344 c 1
 336.694919914 1009.80273438 l 2
 455.475667768 662.3984375 541.957133969 368.581054688 626.015733103 19.12109375 c 1
 734.073477472 19.8701171875 l 1
 743.341796875 68.23828125 753.6953125 117.923828125 763.119140625 166.7578125 c 0
 807.767578125 394.959960938 853.723632812 648.727539062 898.126953125 876.797851562 c 0
 927.314453125 1025.47070312 954.850585938 1162.63378906 980.870117188 1272 c 1
 878.297851562 1272 l 1
 838.19140625 1106.99414062 800.818359375 931.036132812 766.2109375 752.229492188 c 0
 740.219726562 618.276367188 716.173151242 482.387695312 695.338621331 352.622070312 c 2
 677.929249145 244.1875 l 1
 651.139464407 350.29296875 l 2
 590.543860336 590.293945312 435.621273548 1078.0703125 353.645241207 1269.39257812 c 1
 242.174804688 1272.47558594 l 1
 -1 22 l 1
EndSplineSet
EndChar
StartChar: O
Encoding: 79 79 38
Width: 960
VWidth: 0
Flags: HW
LayerCount: 2
Fore
SplineSet
902.403320312 664.494140625 m 0
 920.142578125 758.116210938 927 837.682617188 927 907 c 0
 927 1118.58203125 857.329101562 1222.08105469 782.728515625 1274.04394531 c 0
 722.517578125 1315.98339844 658.307259297 1325.96289062 620.038036677 1326 c 0
 487.66879753 1323.07617188 381.526709187 1254.68554688 311.484849951 1169.06054688 c 0
 229.0703125 1076.96484375 125.875 933.783203125 59.5419921875 592.213867188 c 0
 47.875 533.880859375 43 478.397460938 43 427 c 0
 43 323.5703125 65.2607421875 236.391601562 108.166992188 168.301757812 c 0
 163.911132812 78.390625 272.166992188 37 377.67293437 37 c 0
 516.169753435 37 639.900265619 115.086914062 733.653320312 253.521484375 c 0
 798.741210938 345.237304688 872.614257812 500.655273438 902.403320312 664.494140625 c 0
526.050627641 153.013671875 m 0
 486.116546581 129.6875 443.946773724 115 404.282950642 115 c 0
 359.260743423 115 321.628186232 123.34765625 290.267000062 139.677734375 c 0
 246.157226562 160.138671875 214.268554688 192.97265625 192.194335938 232.76953125 c 0
 164.3203125 281.659179688 155 352.938476562 155 426 c 0
 155 479.590820312 160.069335938 534.83984375 169.483398438 580.912109375 c 0
 221.01953125 845.592773438 298.384267721 992.799804688 378.533948568 1086.3125 c 0
 447.771097352 1167.57714844 532.375703775 1198 598.536069427 1198 c 0
 645.867596417 1198 689.4921875 1183.33984375 727.766601562 1147.12695312 c 0
 758.146484375 1118.38476562 781.051757812 1077.70507812 797.876953125 1024.42675781 c 0
 812.935546875 976.022460938 819 919.805664062 819 862 c 0
 819 786.58984375 808.7421875 707.297851562 796.528320312 641.134765625 c 0
 795.181640625 634.739257812 793.834960938 628.342773438 792.48828125 621.946289062 c 0
 779.823242188 560.349609375 754.922851562 481.80859375 725.969726562 412.073242188 c 0
 702.903320312 356.517578125 678.136572204 306.844726562 655.12653079 274.731445312 c 0
 622.653129096 225.103515625 575.826603392 182.087890625 526.050627641 153.013671875 c 0
EndSplineSet
EndChar
StartChar: P
Encoding: 80 80 39
Width: 960
VWidth: 0
Flags: HW
LayerCount: 2
Fore
SplineSet
506.955500146 1176 m 1
 507.222529027 1175.99316406 l 2
 681.847160191 1171.42089844 836.689453125 1165.28320312 836.689453125 973 c 0
 836.689453125 948.682617188 833.390625 923.076171875 828.236328125 895.2421875 c 0
 816.810546875 836.03515625 796.1328125 786.4296875 767.016601562 745.697265625 c 0
 730.576171875 694.717773438 683.945744545 658.502929688 632.362768756 634.021484375 c 0
 558.106852202 598.778320312 468.20742074 587 368.624033692 587 c 2
 368.181903905 587 l 2
 331.055258885 587 288.054853985 587.625 246.456054688 588.830078125 c 1
 283.419057509 782.747070312 317.388633201 976.966796875 351.929913349 1170.54785156 c 1
 405.978309889 1171.88769531 447.758261476 1176 506.68759576 1176 c 2
 506.955500146 1176 l 1
227.217773438 488.775390625 m 1
 284.178995439 486.6171875 338.759698732 485 386.554366428 485 c 0
 605.968933746 485 711.138671875 515.953125 826.037109375 644.639648438 c 0
 898.395507812 726.39453125 924.329101562 820.772460938 942.114257812 910.618164062 c 0
 947.924804688 943.598632812 951.689453125 976.186523438 951.689453125 1006 c 0
 951.689453125 1057.00292969 942.127929688 1102.05078125 919.561523438 1137.63769531 c 0
 839.456054688 1263.25683594 716.96875 1277 512.963212218 1277 c 0
 405.644742664 1277 369.994198278 1269.99609375 271.306640625 1269.08398438 c 1
 27 15.80859375 l 1
 134.0703125 15.130859375 l 1
 169.360351562 197.748046875 183.46875 263.166992188 227.217773438 488.775390625 c 1
EndSplineSet
EndChar
StartChar: Q
Encoding: 81 81 40
Width: 960
VWidth: 0
Flags: HW
LayerCount: 2
Fore
SplineSet
801.759765625 -25.8798828125 m 1
 784.806640625 -28.4482421875 765.985351562 -30 743 -30 c 2
 731.668945312 -30 l 2
 697.354492188 -29.5546875 671.151898254 -29.5009765625 650.201611552 -20.796875 c 0
 635.291989421 -14.6025390625 621.980408556 -2.2578125 614.976118244 15.7578125 c 0
 609.563010651 29.681640625 607.797792322 45.201171875 607.797792322 63 c 0
 607.797792322 70.501953125 607.797792322 78.0048828125 607.797792322 85.5068359375 c 1
 617.740112364 92.9267578125 l 2
 693.864257812 148.314453125 766.07421875 245.50390625 819.662109375 364.940429688 c 0
 886.576171875 514.078125 924 696.478515625 924 869 c 0
 924 932.69921875 915.30078125 999.765625 891.487304688 1065.49316406 c 0
 864.172851562 1139.55566406 823.684570312 1188.35839844 767.165039062 1218.4296875 c 0
 721.704101562 1242.6171875 666.054283787 1255 603.408322751 1255 c 0
 557.288886114 1255 515.003376806 1248.40332031 473.659202964 1231.35449219 c 0
 422.032353725 1210.06542969 371.139368929 1172.234375 315.973632812 1107.62988281 c 0
 202.799804688 991.602539062 136.18359375 804.360351562 96.5458984375 599.236328125 c 0
 80.8076171875 518.580078125 73 443.0390625 73 376 c 0
 73 261.118164062 96.8173828125 169.735351562 141.826171875 111.22265625 c 0
 199.340820312 37.2763671875 290.157226562 -3 390.080101592 -3 c 0
 422.606756969 -3 458.720432011 3.5791015625 495.246477144 14.22265625 c 2
 522.420894526 22.140625 l 1
 522.641225323 -9.7998046875 l 2
 522.876987849 -43.9267578125 531.4827487 -66.0947265625 544.691451372 -82.3994140625 c 0
 576.744009743 -121.965820312 642.931552575 -131 714 -131 c 0
 746.881835938 -131 774.771484375 -130.743164062 794.484375 -129.053710938 c 1
 801.759765625 -25.8798828125 l 1
549.421276299 379.208007812 m 0
 524.41758879 395.581054688 489.997974661 405 446.265312103 405 c 0
 427.060525411 405 382.642865551 396.673828125 341.236964794 371.623046875 c 0
 306.530273438 351.529296875 271.081054688 321.435546875 249.493164062 277.08203125 c 2
 218.6875 213.791992188 l 1
 202.65625 282.2890625 l 2
 191.088867188 331.712890625 187 382.58984375 187 432 c 0
 187 533.293945312 204.9921875 624.3125 218.458007812 695.78515625 c 0
 245.982421875 837.532226562 320.964816849 1000.67675781 414.00528271 1096.78125 c 0
 460.573096805 1144.8828125 515.175697779 1177 575.315717495 1177 c 0
 672.291274242 1177 751.512695312 1118.484375 786.260742188 1032.17382812 c 0
 806.629882812 979.64453125 814 925.4609375 814 874 c 0
 814 633.223632812 734.745117188 446.5078125 646.452558733 274.181640625 c 2
 615.669688729 209.006835938 l 1
 605.439309746 282.036132812 l 2
 599.003421451 327.975585938 580.247012217 359.021484375 549.421276299 379.208007812 c 0
509.051016018 268.438476562 m 0
 522.152553906 246.606445312 525.275764384 219.578125 525.275764384 188 c 0
 525.275764384 179.973632812 524.39787047 173.211914062 524.39787047 166 c 2
 524.39787047 148.825195312 l 1
 510.318132429 142.657226562 l 2
 473.550323543 126.548828125 436.330707925 119 405.882192048 119 c 0
 361.647140981 119 321.41662358 133.131835938 297.255859375 164.670898438 c 2
 292 171.427734375 l 1
 292 180 l 2
 292 185.506835938 293.198242188 189.022460938 294.111328125 190.916992188 c 0
 309.055664062 258.499023438 368.087315868 306 427.829539904 306 c 0
 462.428333553 306 491.810345495 297.166015625 509.051016018 268.438476562 c 0
EndSplineSet
EndChar
StartChar: R
Encoding: 82 82 41
Width: 960
VWidth: 0
Flags: HW
LayerCount: 2
Fore
SplineSet
924.142578125 913.815429688 m 0
 927.857421875 933.319335938 929.677734375 952.619140625 929.677734375 972 c 0
 929.677734375 1031.06152344 913.125976562 1085.99609375 888.415039062 1125.85351562 c 0
 803.794921875 1262.33691406 655.756250693 1278 430.608556532 1278 c 0
 384.928883897 1278 299.249039059 1269.69921875 251.801757812 1264.93847656 c 1
 244.555664062 1212.50976562 236.833984375 1168.07421875 225.219726562 1108.21777344 c 2
 15 25 l 1
 122.022460938 25 l 1
 231.779296875 595.940429688 l 1
 307.312829233 581.509765625 373.587350355 567.602539062 451.636594657 558.875 c 2
 465.0584865 557.374023438 l 1
 470.127503956 543.354492188 l 2
 502.789653301 453.010742188 635.695028958 191.14453125 702.533203125 85.806640625 c 0
 724.20703125 54.33203125 757.123046875 24.103515625 798.162109375 12.3662109375 c 1
 850.845703125 103.870117188 l 1
 819.008789062 121.54296875 804.782226562 142.54296875 787.984375 160.4609375 c 1
 743.604492188 227.545898438 639.801596855 403.869140625 589.91229911 529.901367188 c 2
 577.76028173 560.598632812 l 1
 607.545562795 564.802734375 l 2
 708.041015625 578.625 781.828125 619.829101562 834.233398438 688.319335938 c 0
 876.4296875 743.46875 905.465820312 818.264648438 924.142578125 913.815429688 c 0
682.660296647 693.88671875 m 0
 633.833885574 667.135742188 574.304371655 659 504.837697053 659 c 0
 429.120340519 659 351.076336414 678.547851562 275.328412063 694.428710938 c 2
 252.473632812 699.036132812 l 1
 333.245691967 1173.29589844 l 1
 361.106947282 1174.37011719 383.773420407 1175 409.144708671 1175 c 0
 521.293663093 1175 603.161264444 1167.87304688 664.395589196 1146.50390625 c 0
 716.784179688 1129.43359375 757.49609375 1102.21777344 784.348632812 1062.05957031 c 0
 810.227539062 1024.83691406 820.677734375 985.260742188 820.677734375 945 c 0
 820.677734375 926.857421875 818.631835938 908.233398438 815.241210938 890.328125 c 0
 796.509765625 791.400390625 751.889648438 727.881835938 682.660296647 693.88671875 c 0
EndSplineSet
EndChar
StartChar: S
Encoding: 83 83 42
Width: 960
VWidth: 0
Flags: HW
LayerCount: 2
Fore
SplineSet
633.400241985 611.624023438 m 0
 693.980660692 580.28515625 742.39453125 518.296875 742.39453125 429 c 0
 742.39453125 337.19921875 703.03948899 250.458984375 635.00005062 191.884765625 c 0
 580.642676074 145.08984375 506.904359919 117 417.219933581 117 c 0
 357.810299938 117 306.305447616 128.114257812 263.608352302 148.331054688 c 0
 181.155273438 184.190429688 128.694335938 249.4765625 117.6015625 326.793945312 c 1
 4 299.4453125 l 1
 9.0390625 218.89453125 45.6416015625 146.357421875 118.5625 94.4091796875 c 0
 181.836914062 49.3330078125 271.790633468 19.064453125 385.022022908 16 c 1
 401.884323058 16 l 2
 498.453388426 16 596.838976594 42.65234375 675.352932951 99.5751953125 c 0
 779.809570312 170.384765625 856.39453125 288.024414062 856.39453125 468 c 0
 856.39453125 589.322265625 793.444335938 669.6640625 718.915039062 709.786132812 c 0
 667.145985132 737.947265625 606.136542855 752.532226562 544.883957855 766.865234375 c 0
 484.594253273 780.973632812 423.980358395 794.725585938 372.55831555 824.803710938 c 0
 353.5535404 835.599609375 336.239311929 849.150390625 322.923724093 867.876953125 c 0
 306.103709633 891.532226562 297.241333607 921.901367188 297.241333607 959 c 0
 297.241333607 1003.125 312.270372872 1042.56738281 336.944954394 1074.47851562 c 0
 386.095903263 1138.04589844 471.908546039 1173 563.359280919 1173 c 0
 715.536132812 1173 820.1953125 1135.6953125 885.489257812 1087.890625 c 1
 956.217773438 1197.19824219 l 1
 887.573242188 1239.72460938 758.236328125 1277 585.911649335 1277 c 0
 521.464732778 1277 454.992507823 1264.63574219 395.670969369 1239.09375 c 0
 342.911641553 1216.37792969 296.01328667 1183.37988281 260.379663621 1139.93554688 c 0
 212.268554688 1085.75292969 181.39453125 1014.84667969 181.39453125 923 c 0
 181.39453125 825.076171875 232.62890625 763.795898438 291.150432231 731.330078125 c 0
 345.799401853 701.322265625 409.969699516 683.7890625 473.283711941 666.71875 c 0
 529.668156789 651.517578125 585.361054403 636.744140625 633.400241985 611.624023438 c 0
EndSplineSet
EndChar
StartChar: U
Encoding: 85 85 44
Width: 960
VWidth: 0
Flags: HW
LayerCount: 2
Fore
SplineSet
397.340574163 116 m 1
 396.807309095 116 l 2
 326.982914197 116 265.373046875 138.502929688 226.333007812 191.90625 c 0
 195.577148438 233.977539062 182 291.114257812 182 363 c 0
 182 387.4609375 184.092773438 414.23828125 187.154296875 441.786132812 c 0
 194.337890625 503.366210938 213.40234375 609.500976562 237.462890625 732.807617188 c 0
 271.354492188 906.971679688 314.932617188 1115.42089844 346.488311988 1277 c 1
 242.846679688 1277 l 1
 207.137695312 1123.12988281 168.151367188 938.966796875 136.551757812 774.268554688 c 0
 110.616210938 639.600585938 89.6552734375 517.739257812 79.779296875 443.669921875 c 0
 79.76953125 443.592773438 79.7587890625 443.515625 79.748046875 443.439453125 c 0
 72.90234375 395.517578125 70 352.78125 70 312 c 0
 70 223.389648438 87.224609375 155.73046875 124.291992188 108.331054688 c 0
 170.08984375 49.767578125 251.3125 12.4697265625 381.998678477 15 c 0
 495.836737295 17.3212890625 591.258732558 47.5576171875 675.935612108 137.125 c 0
 727.217643828 190.888671875 765.439453125 263.053710938 797.6875 347.711914062 c 0
 837.966796875 453.455078125 862.643554688 578.209960938 888.455078125 706.78125 c 0
 917.103515625 849.479492188 943.232421875 996.439453125 972.453125 1147.76074219 c 0
 980.71484375 1192.37304688 987.875976562 1230.83496094 1002.34472656 1277.75097656 c 1
 899.232421875 1286.45507812 l 1
 881.883789062 1235.57421875 873.017578125 1199.484375 860.52734375 1136.14355469 c 0
 830.565429688 981.79296875 807.62890625 841.16015625 779.537109375 697.192382812 c 0
 758.32421875 587.220703125 735.498162761 474.169921875 706.031759407 381.198242188 c 0
 682.450567582 306.797851562 655.304919773 243.956054688 617.372056378 206.29296875 c 0
 590.623726128 179.735351562 563.476324157 160.006835938 533.131963019 145.571289062 c 0
 495.151737265 127.502929688 452.451063159 118.8671875 397.340574163 116 c 1
EndSplineSet
EndChar
StartChar: V
Encoding: 86 86 45
Width: 960
VWidth: 0
Flags: HW
LayerCount: 2
Fore
SplineSet
183 1294.25390625 m 1
 233.682617188 1051.71777344 333.770507812 298.81640625 333.770507812 56 c 0
 333.770507812 54.529296875 333.771484375 53.07421875 333.771484375 51.6337890625 c 0
 333.771484375 49.4423828125 333.76953125 47.287109375 333.760742188 45.162109375 c 1
 447.771816526 45.8857421875 l 1
 477.579611529 147.344726562 565.730880545 348.017578125 667.024192236 565.189453125 c 0
 794.311533058 838.08984375 960.643554688 1133.625 1045.95507812 1274.03417969 c 1
 943.633789062 1332.203125 l 1
 794.204806141 1082 579.618290235 672.921875 464.886854746 370.143554688 c 2
 429.047267546 275.563476562 l 1
 421.833984375 378.215820312 l 2
 396.852539062 731.802734375 346.779296875 1082.15625 296.860351562 1331.50390625 c 1
 183 1294.25390625 l 1
EndSplineSet
EndChar
StartChar: W
Encoding: 87 87 46
Width: 960
VWidth: 0
Flags: HW
LayerCount: 2
Back
SplineSet
521 613 m 5
 568 388 702 22 710 0 c 5
 841 0 l 5
 884 170 990 1035 1036 1286 c 5
 882 1318 l 5
 761.5 675.2 796 608 752 298 c 5
 682 528 613 886 607 957 c 1029
EndSplineSet
Fore
SplineSet
546.479507746 741.500976562 m 1
 546.479507746 595 l 2
 546.479507746 432.405273438 585.97231643 110.639648438 596.862588955 25 c 1
 684.582863942 25 l 1
 711.919418068 107.109375 765.889301131 286.694335938 826.230616452 487.59375 c 0
 919.235351562 773.723632812 1028.62207031 1103.36914062 1090.91210938 1264.6640625 c 1
 989.8203125 1286.08789062 l 1
 816.71145636 818.372070312 780.204704391 658.573242188 745.767872802 508.27734375 c 0
 730.763379531 442.791992188 716.091946432 378.76171875 692.031220204 292.624023438 c 2
 660.729748167 180.565429688 l 1
 647.965680881 296.965820312 l 2
 636.890767571 397.959960938 634.230703438 527.5625 634.230703438 657 c 0
 634.230703438 752.674804688 636.3129921 846.256835938 636.848362032 938.0546875 c 1
 604.36483559 933.041015625 557.095911163 932.141601562 523.384390983 932.020507812 c 1
 493.19429745 829.341796875 378.159554555 503.97265625 270.375 286.84375 c 2
 216.8671875 179.827148438 l 1
 223.033203125 299.306640625 l 2
 228.697265625 409.047851562 238.25 488.849609375 248.354492188 573.255859375 c 0
 266.533203125 725.111328125 286.7265625 893.09765625 290.725585938 1287.44628906 c 1
 180.642578125 1265.4296875 l 1
 178.19140625 1152.23242188 166.935546875 947.122070312 155.181640625 732.487304688 c 0
 140.4765625 463.975585938 125 180.500976562 125 49 c 0
 125 40.1494140625 125.008789062 32.1552734375 125.094726562 25 c 1
 217.25 25 l 1
 256.2421875 95.4853515625 428.546169559 419.174804688 502.887496942 622.358398438 c 2
 546.479507746 741.500976562 l 1
EndSplineSet
EndChar
StartChar: X
Encoding: 88 88 47
Width: 960
VWidth: 0
Flags: HW
LayerCount: 2
Fore
SplineSet
528.827177012 636.143554688 m 1
 988.678710938 1266.265625 l 1
 898.897460938 1331.0078125 l 1
 486.836794167 774.65625 l 1
 471.975004369 814.591796875 l 2
 409.616745329 982.158203125 361.718437152 1183.29101562 279.029806885 1323.33203125 c 1
 174.076171875 1261.71875 l 1
 272.437862386 1095.55175781 332.369014253 865.3359375 401.978233647 663.784179688 c 2
 406.733327721 650.014648438 l 1
 -37 35.98046875 l 1
 48.3876953125 -32.1083984375 l 1
 458.629486822 541.477539062 l 1
 476.221102458 495.451171875 495.781728879 443.9296875 512.024058666 400.755859375 c 0
 580.713513384 218.177734375 625.263163763 100.107421875 710.575355793 -20.951171875 c 1
 801.307617188 46.0986328125 l 1
 709.936878373 170.4765625 653.244548329 316.95703125 571.407816605 527.16796875 c 0
 558.046225501 561.48828125 543.284448949 599.319335938 528.827177012 636.143554688 c 1
EndSplineSet
EndChar
StartChar: Y
Encoding: 89 89 48
Width: 960
VWidth: 0
Flags: HW
LayerCount: 2
Fore
SplineSet
310.727539062 1307.27734375 m 1
 202 1267.03417969 l 1
 218.790039062 1223.48730469 256.168945312 1144.01757812 300.354492188 1055.41699219 c 0
 367.002929688 921.770507812 449.469852485 764.33203125 497.524109646 658.842773438 c 0
 520.827427539 607.6875 533.931363953 578.873046875 547.457734908 548.487304688 c 1
 299.05078125 77.7060546875 l 1
 403.01171875 26.07421875 l 1
 601.367662861 431.159179688 801.719726562 844.278320312 1019.12011719 1291.61425781 c 1
 918.221679688 1331.30078125 l 1
 887.502929688 1253.45703125 809.05859375 1104.06445312 741.87836498 965.889648438 c 0
 691.981141893 855.450195312 645.733448483 752.838867188 629.546332508 708.342773438 c 2
 611.661859307 659.1796875 l 1
 590.316639801 706.482421875 l 2
 528.561619869 843.333007812 364.34765625 1186.24023438 310.727539062 1307.27734375 c 1
EndSplineSet
EndChar
StartChar: Z
Encoding: 90 90 49
Width: 960
VWidth: 0
Flags: HW
LayerCount: 2
Fore
SplineSet
-31 83.0947265625 m 1
 24.9208984375 20.0048828125 l 1
 157.368164062 20.265625 265.006149938 22 436.766665129 22 c 2
 659.762018988 22 l 2
 717.67510393 22 772.788085938 33.0537109375 812.111328125 54.263671875 c 1
 778.622070312 143.345703125 l 1
 739.714571272 127.65625 697.891292235 124.85546875 633.149404741 125 c 2
 128.786132812 126.112304688 l 1
 982.64453125 1161.76171875 l 1
 990.022460938 1183.04785156 1006.91992188 1232.25292969 1017.87890625 1266.97949219 c 1
 994.815429688 1271.56445312 960.733398438 1277 912.682617188 1277 c 0
 752.070939982 1277 393.926235056 1273.5625 226.769336493 1273.04199219 c 1
 227.386796461 1170.06054688 l 1
 395.905870861 1170.84863281 648.859235282 1175 820.682617188 1175 c 2
 875.82421875 1175 l 1
 -31 83.0947265625 l 1
EndSplineSet
EndChar
StartChar: bracketleft
Encoding: 91 91 96
Width: 1060
VWidth: 66
Flags: W
LayerCount: 2
Fore
SplineSet
258.430099981 -238.871769885 m 1
 344.594058748 -238.245665714 546.426948061 -234 627 -234 c 0
 679.763517507 -234 715.921809594 -237.313116044 740.850176664 -240.263278647 c 1
 762.427987794 -127.501814031 l 1
 735.919083107 -125.003028799 692.055635713 -122 651 -122 c 2
 638 -122 l 2
 619.457721603 -122 514.349377884 -123.001357017 417.785488359 -125.987869064 c 2
 386.470534136 -126.956372803 l 1
 672.301111595 1340.51438176 l 1
 792.476896185 1343.37570996 936.06294247 1344.66992744 1033.69881635 1352.02576784 c 1
 1032.34958044 1455.91693245 l 1
 1017.58129242 1454.90570277 995.568640749 1453.76903636 952.522089368 1452 c 1
 952 1452 l 2
 931.016022261 1452 873.969633401 1450.73734514 808.76614296 1449.2831595 c 0
 730.749223635 1447.54320536 640.761456867 1445.53073211 583.621648365 1445.08871723 c 1
 548.659176922 1265.58627238 514.666912073 1092.61285924 480.321341428 911.452984241 c 0
 460.0870902 804.724973778 437.056659484 683.247737493 413.54112727 562.211909918 c 2
 339.561659757 172.318842379 l 2
 306.486873217 2.21994017235 289.31499863 -82.1460946776 258.430099981 -238.871769885 c 1
EndSplineSet
Validated: 1
EndChar
StartChar: backslash
Encoding: 92 92 115
Width: 1060
VWidth: 60
Flags: W
LayerCount: 2
Fore
SplineSet
659.713153609 -116.812321046 m 1
 774.066484003 -89.4517082524 l 1
 704.338546484 213.583958231 514.187081905 1054.68393553 446.134881116 1418.87066611 c 1
 327.307839046 1391.99312088 l 1
 399.343407942 1034.74642669 590.726811203 183.612950419 659.713153609 -116.812321046 c 1
EndSplineSet
Validated: 1
EndChar
StartChar: bracketright
Encoding: 93 93 97
Width: 1060
VWidth: 66
Flags: W
LayerCount: 2
Fore
SplineSet
166 -234 m 0
 248.633413976 -234 457.473664205 -238.457943665 542.431228071 -238.935425586 c 1
 575.107845093 -71.5184491509 588.435295009 11.9525490386 621.459598007 181.791821599 c 0
 639.657956113 278.136070396 674.840485486 449.382721916 699.490557898 571.948359743 c 0
 730.106371776 729.529754704 767.104272318 905.210715883 795.44325586 1053.70698965 c 2
 871.691164228 1445.17577917 l 1
 814.570657053 1445.75169391 730.7008556 1447.63915301 657.452185697 1449.28324064 c 0
 592.664468309 1450.73741973 535.98149615 1452 515 1452 c 2
 514.463258219 1452 l 1
 464.260872609 1454.12122756 443.583248885 1455.32521366 428.295190469 1456.52387775 c 1
 385.88265479 1351.17661171 l 1
 480.89920717 1344.39275112 626.615050517 1343.06485576 742.202869301 1340.27960712 c 1
 456.475886539 -126.659286265 l 1
 370.263000934 -123.936774087 233.440342038 -122 217 -122 c 2
 204 -122 l 2
 157.358318712 -122 106.360132351 -125.722216489 80.1635403872 -128.439232245 c 1
 58.9565108093 -239.263064233 l 1
 84.4636582599 -236.615250685 119.042127952 -234 166 -234 c 0
EndSplineSet
Validated: 1
EndChar
StartChar: asciicircum
Encoding: 94 94 116
Width: 1060
VWidth: -10
Flags: W
LayerCount: 2
Fore
SplineSet
985.081044421 586.319236892 m 1
 649.063740274 1063.18763018 l 1
 123.320315433 573.79880386 l 1
 189.963645303 493.554794424 l 1
 633.349961738 875.749786645 l 1
 899.621021822 505.762658213 l 1
 985.081044421 586.319236892 l 1
EndSplineSet
Validated: 1
EndChar
StartChar: underscore
Encoding: 95 95 117
Width: 1060
VWidth: 41
Flags: W
LayerCount: 2
Fore
SplineSet
-67.7303478581 -309 m 1
 831.345732473 -309 l 1
 851.730347858 -203 l 1
 -47.3457324735 -203 l 1
 -67.7303478581 -309 l 1
EndSplineSet
Validated: 1
EndChar
StartChar: grave
Encoding: 96 96 118
Width: 1060
VWidth: -25
Flags: W
LayerCount: 2
Fore
SplineSet
954.829664932 1067.84444251 m 1
 933.536135209 1080.12089689 908.363467373 1097.40582725 880.072939447 1118.34976692 c 0
 787.017617317 1187.24014104 663.397656168 1295.59541169 586.68425188 1385.38732952 c 0
 569.26311755 1405.77851248 554.250392257 1425.09023125 542.551089506 1443.28569535 c 1
 434.525081967 1344.74845874 l 1
 558.351979439 1181.50069015 717.240107077 1074.2488111 878.123143542 959.887116107 c 1
 954.829664932 1067.84444251 l 1
EndSplineSet
Validated: 1
EndChar
StartChar: a
Encoding: 97 97 0
Width: 960
VWidth: 6
Flags: HW
LayerCount: 2
Fore
SplineSet
412.265046569 891.4609375 m 0
 446.064955391 907.5390625 484.26135075 915 527.639563156 915 c 0
 625.918432225 915 700.265625 859.52734375 750.3125 824.495117188 c 2
 764.138671875 814.81640625 l 1
 747.586914062 743.172851562 731.370117188 671.194335938 714.608398438 599.760742188 c 1
 681.94140625 506.266601562 630.123915468 371.0546875 556.26788725 267.08203125 c 0
 497.373215276 184.170898438 420.258193351 119 323.320610808 119 c 0
 290.026367188 119 257.990234375 131.672851562 232.736328125 155.111328125 c 0
 189.482421875 195.252929688 168 262.287109375 168 346 c 0
 168 397.765625 176.428710938 455.918945312 193.879882812 520.592773438 c 0
 225.734375 637.2421875 259.301757812 726.946289062 306.209960938 792.340820312 c 0
 335.386220683 837.798828125 369.922003802 871.319335938 412.265046569 891.4609375 c 0
656.038085938 990.6796875 m 0
 627.481419002 1001.48535156 591.91217163 1009 545.102721476 1009 c 0
 404.005006792 1009 310.79296875 959.072265625 231.66796875 857.0390625 c 0
 167.831054688 774.720703125 121.291992188 655.759765625 84.3408203125 498.275390625 c 0
 71.7548828125 444.060546875 66 392.001953125 66 343 c 0
 66 278.107421875 76.705078125 219.579101562 95.92578125 170.954101562 c 0
 134.362304688 73.720703125 204.76171875 17 296 17 c 0
 472.482245817 17 576.745316306 148.825195312 625.793939006 230.180664062 c 2
 677.805664062 311.852539062 l 1
 666.845703125 213.213867188 l 2
 666.02734375 205.845703125 666 199.0234375 666 191 c 0
 666 140.395507812 674.014648438 107.670898438 684.834960938 84.7041015625 c 0
 697.811523438 57.162109375 715.311523438 41.83984375 735.606445312 24.8916015625 c 1
 809.40625 107.743164062 l 1
 797.274414062 120.14453125 786.818359375 132.885742188 779.088867188 148.754882812 c 0
 770.098632812 167.213867188 766 188.342773438 766 214 c 0
 766 249.595703125 773.380859375 294.381835938 786.4453125 360.71875 c 2
 901.7109375 981.234375 l 1
 797.774414062 997.327148438 l 1
 794.227539062 971.733398438 787.901367188 944.041015625 782.5234375 919.303710938 c 1
 751.861328125 940.384765625 l 2
 725.563476562 958.46484375 696.919921875 977.166015625 656.038085938 990.6796875 c 0
EndSplineSet
EndChar
StartChar: b
Encoding: 98 98 1
Width: 960
VWidth: -2
Flags: HW
LayerCount: 2
Fore
SplineSet
524.286872453 146.795898438 m 0
 493.77274827 130.37109375 459.029227691 122 420.042803661 122 c 0
 365.45235508 122 325.057820633 131.30859375 292.881484573 155.114257812 c 0
 248.790039062 186.1328125 222.586914062 238.57421875 194.325195312 304.326171875 c 1
 225.267578125 455.838867188 l 1
 281.73309958 617.452148438 338.314994488 734.495117188 396.08635437 807.540039062 c 0
 441.916634007 865.48828125 490.064217657 898 538.472656295 898 c 0
 592.5546875 898 648.033203125 873.233398438 683.237304688 818.3671875 c 0
 710.985351562 775.120117188 725.391601562 715.842773438 725.391601562 639 c 0
 725.391601562 591.159179688 720.208984375 535.614257812 707.924804688 473.169921875 c 0
 689.803710938 380.752929688 663.7734375 302.212890625 623.109375 242.044921875 c 0
 594.861328125 200.247070312 562.483977994 167.356445312 524.286872453 146.795898438 c 0
811.849609375 488.782226562 m 0
 823.583984375 549.412109375 829.391601562 606.8515625 829.391601562 660 c 0
 829.391601562 762.799804688 807.822265625 847.587890625 769.36328125 908.995117188 c 0
 721.658203125 985.166992188 647.84375 1028 552.303879961 1028 c 0
 458.70843515 1028 383.320499618 944.322265625 320.927194571 843.473632812 c 2
 256.100585938 740.586914062 l 1
 347.136789367 1182.73535156 l 2
 362.660615782 1259.70019531 371.826840548 1342.68261719 376.736654808 1410.4453125 c 1
 280.818840838 1404.24316406 l 1
 275.6008969 1339.87109375 267.823366161 1262.70214844 251.9453125 1177.27734375 c 2
 74.935546875 263.2265625 l 2
 60.9052734375 190.442382812 39.5302734375 115.369140625 19 53.2314453125 c 1
 130.401367188 40.166015625 l 1
 138.512695312 63.2060546875 145.078125 82.2041015625 151.946289062 114.254882812 c 2
 162.009765625 161.220703125 l 1
 194.712890625 126.002929688 l 2
 241.693359375 75.408203125 301.997902076 43 394.109259288 43 c 0
 519.970524394 43 614.60546875 100.194335938 689.0390625 194.823242188 c 0
 748.834960938 270.841796875 789.2578125 372.3515625 811.849609375 488.782226562 c 0
EndSplineSet
EndChar
StartChar: c
Encoding: 99 99 2
Width: 960
VWidth: 4
Flags: HW
LayerCount: 2
Fore
SplineSet
278.118164062 180.915039062 m 0
 217.829101562 228.10546875 192 301.615234375 192 389 c 0
 192 443.8671875 201.342773438 499.157226562 209.403320312 543.494140625 c 0
 209.416015625 543.564453125 209.428710938 543.633789062 209.442382812 543.704101562 c 0
 228.333007812 642.76171875 266.33203125 722.790039062 323.871350384 781.018554688 c 0
 386.21336454 854.009765625 473.169405043 890 579.736224229 890 c 0
 652.651367188 890 704.857421875 869.283203125 736.986328125 833.698242188 c 0
 754.930664062 813.823242188 765.233398438 791.06640625 771.884765625 768.484375 c 1
 879.90234375 805.182617188 l 1
 866.1171875 851.734375 844.002929688 891.28515625 812.907226562 921.796875 c 0
 768.2890625 965.576171875 703.299804688 993 613.340277156 993 c 0
 499.439400344 993 401.627843846 965.987304688 323.9369833 909.372070312 c 0
 211.8125 838.849609375 132.599609375 721.151367188 98.55859375 542.3046875 c 0
 87.6689453125 482.903320312 77 412.473632812 77 342 c 0
 77 218.77734375 146.038085938 116.830078125 260.205078125 61.552734375 c 0
 317.408203125 33.85546875 377.383213012 18 443.596727756 18 c 0
 651.440429688 18 778.658203125 146.921875 832.844726562 205.044921875 c 1
 754.236328125 280.264648438 l 1
 718.62890625 238.197265625 676.704101562 197.993164062 624.400264928 168.973632812 c 0
 581.048882547 141.870117188 529.105478319 125 465.999429707 125 c 2
 454.798078732 125 l 2
 382.431898848 125 325.502917357 143.481445312 278.118164062 180.915039062 c 0
EndSplineSet
EndChar
StartChar: d
Encoding: 100 100 3
Width: 960
VWidth: -2
Flags: HW
LayerCount: 2
Back
SplineSet
749 478 m 4xd8
 749 761 637 865 474 865 c 4
 383 865 321 795 269 744 c 5
 269 307 l 5
 340 193 387 147 524 147 c 4
 694 147 749 274 749 478 c 4xd8
906 459 m 4
 906 191 799 -7 524 -7 c 4
 412 -7 332 28 269 84 c 5xd8
 268 42 263 20 258 -12 c 5
 93 7 l 5xe8
 103 73 112 160 112 243 c 4
 112 251 112 259 112 267 c 4
 112 516 111 877 111 1157 c 4
 111 1251 103 1335 96 1403 c 5
 255 1412 l 5
 264 1339 269 1243 269 1152 c 6
 269 949 l 5
 317 985 360 1020 460 1020 c 4
 783 1020 906 795 906 459 c 4
EndSplineSet
Fore
SplineSet
377.275105794 891.4609375 m 0
 411.952779134 907.5390625 451.141113281 915 495.645833333 915 c 0
 596.476949056 915 666.987955729 859.52734375 713.3125 824.495117188 c 2
 727.138671875 814.81640625 l 1
 710.586914062 743.172851562 694.852396647 671.194335938 679.836690267 599.760742188 c 1
 650.572509766 506.266601562 600.791646322 371.0546875 525.017618815 267.08203125 c 0
 464.593485514 184.170898438 385.475830078 119 286.020833333 119 c 0
 253.026367188 119 220.990234375 131.672851562 195.736328125 155.111328125 c 0
 152.482421875 195.252929688 131 262.287109375 131 346 c 0
 131 397.765625 139.428710938 455.918945312 156.879882812 520.592773438 c 0
 188.734375 637.2421875 222.301757812 726.946289062 269.188090007 792.340820312 c 0
 298.399780273 837.798828125 333.832438151 871.319335938 377.275105794 891.4609375 c 0
742.5390625 174.033203125 m 0
 733.823242188 192.502929688 730 213.498046875 730 239 c 0
 730 274.135742188 736.345703125 319.215820312 749.471679688 385.8515625 c 2
 939.6328125 1392.24609375 l 1
 834.64453125 1408.50292969 l 1
 817.978515625 1313.7890625 758.224609375 1002.72851562 753.4296875 980.672851562 c 2
 745.5234375 944.303710938 l 1
 714.861328125 965.384765625 l 2
 689.650614421 983.46484375 663.990763346 1002.16601562 627.367451986 1015.6796875 c 0
 598.080525716 1026.48535156 561.587565104 1034 513.5625 1034 c 0
 368.800557454 1034 273.293701172 984.072265625 194.66796875 882.0390625 c 0
 130.831054688 799.720703125 84.2919921875 680.759765625 47.3408203125 523.275390625 c 0
 34.7548828125 469.060546875 29 417.001953125 29 368 c 0
 29 303.107421875 39.705078125 244.579101562 58.92578125 195.954101562 c 0
 97.3623046875 98.720703125 167.76171875 42 259 42 c 0
 440.447977702 42 546.058329264 157.32421875 595.453389486 237.180664062 c 2
 645.971740723 318.852539062 l 1
 636.153442383 220.213867188 l 2
 635.420328776 212.845703125 635.395833333 206.0234375 635.395833333 198 c 0
 635.395833333 122.346679688 664.478047689 85.2646484375 698.994750977 50.3271484375 c 1
 772.448242188 132.790039062 l 1
 760.350585938 145.282226562 750.048828125 158.115234375 742.5390625 174.033203125 c 0
EndSplineSet
EndChar
StartChar: e
Encoding: 101 101 4
Width: 960
VWidth: 32
Flags: HW
LayerCount: 2
Fore
SplineSet
324.125 767.904296875 m 0
 380.567893086 851.090820312 455.112455968 894 541.480271944 894 c 0
 582.07429688 894 617.943359375 886.891601562 652.037109375 873.837890625 c 0
 720.338867188 847.689453125 761 795.807617188 761 735 c 0
 761 670.955078125 717.254882812 607.198242188 637.780273438 559.513671875 c 0
 588.115562544 527.420898438 528.960363916 508.0390625 468.524513058 494.887695312 c 0
 389.339449663 477.657226562 308.69140625 471.92578125 238.756835938 467.060546875 c 2
 206.213867188 464.796875 l 1
 212.462890625 496.809570312 l 2
 234.756835938 611.009765625 272.209960938 701.641601562 324.125 767.904296875 c 0
765.479492188 931.966796875 m 0
 716.833007812 970.5859375 647.8125 996 565.231152118 996 c 0
 338.130756111 996 157.109375 789.899414062 102.534179688 511.17578125 c 0
 91.76953125 455.393554688 86 402.9296875 86 356 c 0
 86 260.149414062 107.94921875 182.465820312 150.3515625 126.22265625 c 0
 202.944335938 56.4609375 289.787109375 15 406.60920238 15 c 0
 506.198551505 15 580.627971657 37.0234375 641.18359375 65.5283203125 c 0
 718.612304688 98.953125 766.311523438 141.159179688 797.592773438 170.254882812 c 1
 730.696289062 241.743164062 l 1
 673.521484375 186.244140625 577.140555169 118 435.449556878 118 c 0
 339.33271367 118 271.630859375 156.157226562 234.078125 207.688476562 c 0
 204.430664062 248.370117188 196 294.1484375 196 330 c 0
 196 341.387695312 196 352.776367188 196 364.1640625 c 1
 290.357421875 371.372070312 388.76456438 379.012695312 491.254019236 404.27734375 c 0
 565.202159345 422.506835938 641.912109375 449.3984375 706.041015625 488.37890625 c 0
 808.038085938 551.07421875 857 648.014648438 857 740 c 0
 857 813.499023438 826.197265625 883.765625 765.479492188 931.966796875 c 0
EndSplineSet
EndChar
StartChar: f
Encoding: 102 102 5
Width: 960
VWidth: -2
Flags: HW
LayerCount: 2
Fore
SplineSet
846.125976562 1008.00488281 m 1
 825.493971859 1013.48828125 797.568649096 1017.84277344 731.964661142 1020 c 0
 668.929218569 1020 558.970434269 1021 496.344532953 1021 c 2
 469.05134712 1021 l 1
 473.247623358 1043.97265625 477.443030081 1066.9453125 481.639306319 1089.91699219 c 0
 490.023163651 1138.33300781 499.659121643 1187.10058594 521.776958083 1228.24316406 c 0
 537.193447452 1256.92089844 559.192160427 1281.65527344 589.746894575 1297.18847656 c 0
 614.0941658 1309.56640625 643.204636618 1316 677.982601948 1316 c 0
 788.199632009 1316 911.309570312 1313.27734375 1022.12988281 1252.96289062 c 1
 1080.65234375 1348.6640625 l 1
 959.678710938 1410.14648438 716.076025482 1414.39746094 697.571021153 1418 c 1
 574.260844058 1418 498.403542926 1362.62792969 451.114135659 1281.76953125 c 0
 413.412109375 1220.18164062 393.375976562 1146.36425781 381.165039062 1084.00390625 c 0
 376.216796875 1060.49902344 373.748046875 1043.09960938 369.416992188 1020 c 1
 217.704101562 1020 l 1
 213.665039062 917 l 1
 348.678710938 917 l 1
 322.115234375 772.379882812 213.147460938 205.68359375 183 50 c 1
 288.993164062 50 l 1
 452.117555215 917 l 1
 742.090155711 917 l 2
 777.113324087 917 802.110122529 913.578125 820.882067763 908.89453125 c 1
 846.125976562 1008.00488281 l 1
EndSplineSet
EndChar
StartChar: g
Encoding: 103 103 6
Width: 960
VWidth: 14
Flags: HW
LayerCount: 2
Back
SplineSet
-392.676 1025.76 m 9
 -342.676 887.765 l 17
 -450.695 847.285 -511.676 784.764 -547.676 730.764 c 1
 -571.676 685.764 -553.676 643.764 -469.676 604.764 c 0
 -385.676 565.764 -262.062 489.674 -271.676 337.764 c 0
 -281.676 179.764 -430.5 42.8818 -753.5 31.8818 c 0
 -1062.19 21.3691 -1167.5 111.882 -1213.5 206.882 c 0
 -1229.24 239.396 -1265.04 345.627 -1183.5 458.882 c 0
 -1093.5 583.882 -931.676 601.764 -760.676 577.764 c 9
 -772.376 518.92 -790.676 426.882 -790.676 426.882 c 0
 -1003.68 477.882 -1114.3 356.076 -1051.5 261.882 c 0
 -979.5 153.882 -668.5 184.882 -629.5 193.882 c 0
 -590.5 202.882 -442.5 236.72 -442.5 347.882 c 0
 -442.5 426.882 -541.5 449.882 -631.5 503.882 c 0
 -721.5 557.882 -773.074 681.354 -688.676 804.882 c 0
 -637.34 880.019 -482.983 962.277 -392.676 1025.76 c 9
-364.272 1153.88 m 0
 -346.39 1245.88 -411.532 1306.88 -562.532 1306.88 c 0
 -730.532 1306.88 -767.224 1229.88 -786.272 1131.88 c 0
 -805.516 1032.88 -718.5 958.882 -589.5 958.882 c 0
 -383.5 958.882 -368.938 1129.88 -364.272 1153.88 c 0
-946.8 1118.88 m 0
 -946.76 1121.94 -944.259 1147.76 -943.676 1150.76 c 0
 -905.188 1348.76 -786.986 1458.88 -532.986 1458.88 c 0
 -432.986 1458.88 -341.514 1445.88 -274.649 1398.88 c 1
 -215.768 1457.76 -126.338 1463.88 -10.3379 1463.88 c 1
 -42.0225 1300.88 l 1
 -53.6338 1302.88 -64.4395 1303.88 -74.4395 1303.88 c 0
 -146.676 1303.88 -193.837 1289.88 -211.753 1274.88 c 1
 -202.272 1253.88 -200.272 1201.88 -207.301 1158.88 c 0
 -232.114 1007.07 -248.083 838.764 -583.676 838.764 c 2
 -586.676 838.764 l 2
 -827.424 838.764 -949.676 901.764 -946.8 1118.88 c 0
EndSplineSet
Fore
SplineSet
395.396552399 891.4609375 m 0
 430.436518033 907.5390625 470.032386364 915 515.001815519 915 c 0
 616.882902277 915 692.331054688 859.52734375 742.37890625 824.495117188 c 2
 756.204101562 814.81640625 l 1
 739.65234375 743.172851562 723.435546875 671.194335938 706.673828125 599.760742188 c 1
 674.0078125 506.266601562 621.242567023 371.0546875 544.678827785 267.08203125 c 0
 483.6249583 184.170898438 403.683628025 119 303.192118107 119 c 0
 271.535047238 119 242.536912207 131.672851562 219.676958845 155.111328125 c 0
 180.525719746 195.252929688 160.06640625 262.287109375 160.06640625 346 c 0
 160.06640625 397.765625 168.494140625 455.918945312 184.506167911 520.592773438 c 0
 213.339003407 637.2421875 243.72317946 726.946289062 286.183945081 792.340820312 c 0
 315.700077586 837.798828125 351.501128245 871.319335938 395.396552399 891.4609375 c 0
-75 -272.317382812 m 1
 86.2099609375 -365.154296875 212.254390949 -402 306.812796696 -402 c 0
 417.861377995 -402 499.008422526 -351.874023438 561.725894819 -274.327148438 c 0
 617.61923657 -205.217773438 659.586914062 -113.546875 693.090820312 -17.455078125 c 0
 736.657226562 107.501953125 759.412109375 233.458007812 778.491210938 335.611328125 c 2
 893.77734375 956.234375 l 1
 789.840820312 972.327148438 l 1
 786.293945312 946.733398438 779.967773438 919.041015625 774.58984375 894.303710938 c 1
 743.926757812 915.384765625 l 2
 717.62890625 933.46484375 688.985351562 952.166015625 648.104492188 965.6796875 c 0
 618.503191304 976.485351562 581.629903553 984 533.10520846 984 c 0
 386.834566851 984 290.33146069 934.072265625 218.709912367 832.0390625 c 0
 159.896484375 749.720703125 113.358398438 630.759765625 76.40625 473.275390625 c 0
 63.8203125 419.060546875 58.06640625 367.001953125 58.06640625 318 c 0
 58.06640625 253.107421875 68.7705078125 194.579101562 87.9921875 145.954101562 c 0
 126.428710938 48.720703125 194.356075506 -8 276.942198343 -8 c 0
 458.30584287 -8 558.732824092 114.931640625 609.513371665 196.180664062 c 2
 698.02734375 330.21484375 l 1
 677.858398438 264.932617188 657.624023438 202.1640625 639.456454306 135.78515625 c 0
 625.726869386 82.970703125 607.12404202 11.1337890625 577.964143273 -58.9814453125 c 0
 530.280089132 -173.637695312 448.469194596 -297 301.381778813 -297 c 0
 218.804495524 -297 113.80859375 -259.565429688 -22.4951171875 -168.688476562 c 1
 -75 -272.317382812 l 1
EndSplineSet
EndChar
StartChar: h
Encoding: 104 104 8
Width: 960
VWidth: -2
Flags: HW
LayerCount: 2
Fore
SplineSet
634.361328125 239.240234375 m 2
 629.35546875 214.602539062 619.89453125 170.727539062 619.89453125 136.833984375 c 0
 619.89453125 58.041015625 680.252929688 -4.5673828125 756.52734375 -30.27734375 c 1
 802.298828125 67.451171875 l 1
 784.499023438 75.7216796875 764.349609375 85.3291015625 749.568359375 106.486328125 c 0
 736.739257812 124.848632812 730.89453125 148.6640625 730.89453125 179.31640625 c 0
 730.89453125 199.57421875 741.57421875 252.086914062 744.4296875 265.497070312 c 0
 768.73828125 391.431640625 787.42578125 487.225585938 817.32421875 645.221679688 c 0
 825.958984375 694.920898438 833.89453125 740.83203125 833.89453125 778.224609375 c 0
 833.89453125 873.169921875 801.52734375 930.879882812 743.526367188 965.505859375 c 0
 697.225585938 993.145507812 632.311523438 1006.18261719 558.336962862 1006.18261719 c 0
 478.688984216 1006.18261719 382.674412106 944.69140625 314.505485174 822.943359375 c 2
 254.285293763 715.390625 l 1
 366.583173108 1402 l 1
 272.568320306 1402 l 1
 47.4384765625 181.624023438 l 2
 34.5595703125 113.120117188 23.65234375 66.447265625 7 7.66015625 c 1
 111.541992188 2.1044921875 l 1
 124.727539062 48.9404296875 141.2890625 114.795898438 153.278320312 184.896484375 c 2
 205.844726562 484.466796875 l 1
 207.102539062 487.349609375 l 2
 280.603741492 665.305664062 362.117161651 772.4296875 434.695159457 832.684570312 c 0
 492.680220491 880.82421875 544.636378522 899.456054688 580.9636211 899.456054688 c 0
 633.15625 899.456054688 673.430664062 879 697.1328125 844.084960938 c 0
 715.717773438 816.708007812 722.89453125 783.34765625 722.89453125 749.211914062 c 0
 722.89453125 702.17578125 707.764648438 627.713867188 696.439453125 567.083007812 c 2
 634.361328125 239.240234375 l 2
EndSplineSet
EndChar
StartChar: i
Encoding: 105 105 9
Width: 960
VWidth: 0
Flags: HW
LayerCount: 2
Fore
SplineSet
627.086914062 1231 m 1
 660.532226562 1406 l 1
 476.444335938 1406 l 1
 443 1231 l 1
 627.086914062 1231 l 1
EndSplineSet
Refer: 177 305 N 1 0 0 1 0 0 2
EndChar
StartChar: j
Encoding: 106 106 10
Width: 960
VWidth: 0
Flags: HW
LayerCount: 2
Fore
SplineSet
872.08203125 1226.26660156 m 1
 905.548828125 1401.38574219 l 1
 723.24609375 1403.73339844 l 1
 689 1228.61328125 l 1
 872.08203125 1226.26660156 l 1
EndSplineSet
Refer: 330 567 N 1 0 0 1 0 0 2
EndChar
StartChar: k
Encoding: 107 107 11
Width: 960
VWidth: -2
Flags: HW
LayerCount: 2
Fore
SplineSet
544.131138677 888.521484375 m 0
 575.449166423 909.0546875 607.844714949 922 643.661132812 922 c 0
 687.225585938 922 721.844726562 900.231445312 741.879882812 866.494140625 c 0
 757.643554688 839.952148438 764.661132812 807.354492188 764.661132812 772 c 0
 764.661132812 643.715820312 692.859375 504 558.580363777 504 c 0
 539.014810531 504 510.914180643 511.198242188 483.233101458 518.860351562 c 0
 465.643143387 523.729492188 448.755806373 528.881835938 436.457410477 532.752929688 c 1
 405.676036944 436.69140625 l 1
 557.288012818 357.401367188 658.362304688 192.305664062 715.609375 30.064453125 c 1
 808.780273438 71.6943359375 l 1
 753.09375 198.915039062 706.615234375 307.100585938 598.881662891 393.221679688 c 2
 562.853378161 425.553710938 l 1
 607.227183493 437.3671875 l 2
 715.493164062 462.731445312 782.647460938 517.216796875 821.728515625 583.604492188 c 0
 853.138671875 636.963867188 866.661132812 699.34765625 866.661132812 762 c 0
 866.661132812 854.741210938 835.750976562 931.771484375 784.168945312 974.694335938 c 0
 753.103515625 1000.54394531 713.234375 1016 662.661132812 1016 c 0
 618.139714116 1016 580.190594844 1010.56347656 538.051865846 986.327148438 c 0
 485.383930662 956.03515625 424.705778449 894.8828125 352.091492995 771.904296875 c 2
 291.108398438 672.264648438 l 1
 393.338887369 1269.78515625 l 2
 398.972492887 1303.36914062 401.570674346 1347.38183594 401.570674346 1383 c 0
 401.570674346 1398.6875 401.084568412 1413.11914062 400.44344776 1424.53613281 c 1
 302.864257812 1412.80371094 l 1
 304.72265625 1395.61914062 305.661132812 1378.51464844 305.661132812 1361 c 0
 305.661132812 1323.11035156 301.455078125 1285.51171875 294.202148438 1248.20800781 c 2
 61 50 l 1
 166.9453125 50 l 1
 182.865234375 133.008789062 236.326171875 405.817382812 245.48046875 451.58984375 c 1
 279.59765625 549.825195312 350.614640824 680.495117188 431.197019741 780.543945312 c 0
 466.788061871 824.733398438 504.915785056 862.809570312 544.131138677 888.521484375 c 0
EndSplineSet
Substitution2: "'ss01' Style Set 1 - No loop k-1" k.noloop
EndChar
StartChar: l
Encoding: 108 108 12
Width: 1010
VWidth: -2
Flags: HW
LayerCount: 2
Back
SplineSet
552.328 1446.4 m 4
 744.828 1446.4 777.393 1282.82 753.41 1153.6 c 6
 592.217 283.5 l 6
 573.022 179.894 607.104 124 699.104 124 c 4
 792.104 124 890.331 148 969.438 200 c 5
 1045.13 83 l 5
 945.333 12 796.501 -18 672.501 -18 c 4
 438.631 -18 412.279 155.212 435.438 279.5 c 6
 600.924 1167.6 l 6
 608.682 1208.93 611.328 1295.6 550.328 1297.6 c 4
 501.328 1297.6 435.328 1298.6 313.328 1186.6 c 5
 216.328 1319.6 l 5
 351.328 1408.6 417.328 1446.4 552.328 1446.4 c 4
EndSplineSet
Fore
SplineSet
861.336914062 190.905273438 m 1
 788.631835938 148.877929688 612.275390625 123.29296875 598.32421875 123.29296875 c 0
 597.744140625 123.29296875 597.4453125 123.336914062 597.4453125 123.42578125 c 0
 597.4453125 123.541015625 597.94921875 123.732421875 599 124 c 1
 549.307617188 124 503.169921875 130.603515625 465.657226562 153.499023438 c 0
 417.375976562 182.965820312 391 236.874023438 391 316 c 0
 391 343.0390625 394.221679688 372.526367188 400.428710938 405.627929688 c 2
 593.299804688 1433.30175781 l 1
 481.510742188 1442.27246094 l 1
 288.587890625 392.459960938 l 2
 282.829101562 361.748046875 280 333.237304688 280 306 c 0
 280 214.25390625 310.2265625 140.947265625 368.510742188 93.462890625 c 0
 415.344726562 55.3076171875 482.620117188 32 573 32 c 0
 685.04296875 32 817.325195312 57.9990234375 910.522460938 115.185546875 c 1
 861.336914062 190.905273438 l 1
EndSplineSet
EndChar
StartChar: m
Encoding: 109 109 13
Width: 960
VWidth: 4
Flags: HW
LayerCount: 2
Fore
SplineSet
873.689453125 975.88671875 m 0
 859.330078125 991.135742188 839.87109375 1001 808.793945312 1001 c 0
 730.1640625 1001 660.20197648 939.594726562 609.276984667 862.2265625 c 2
 546.198811194 766.39453125 l 1
 569.317960747 882.439453125 l 2
 570.770459009 889.728515625 571.475257744 896.889648438 571.475257744 904 c 0
 571.475257744 926.420898438 565.202986768 948.205078125 553.437663292 965.036132812 c 0
 538.931942251 985.786132812 515.366274244 1001 479.131739539 1001 c 0
 456.222716316 1001 425.492615953 989.469726562 394.042832907 968.680664062 c 0
 354.855147726 942.776367188 315.224446198 903.520507812 286.170103324 861.705078125 c 2
 234.276779337 787.018554688 l 1
 246.257482302 880.560546875 l 2
 249.665906494 907.171875 253.20390859 952.75 253.20390859 989 c 0
 253.20390859 998.46484375 252.850195933 1007.72851562 252.304742999 1015.88964844 c 1
 145.215820312 988.149414062 l 1
 146.813476562 972.225585938 147.793945312 955.520507812 147.793945312 937 c 0
 147.793945312 903.377929688 144.603515625 862.581054688 134.326171875 810.169921875 c 2
 -15 25 l 1
 75.171875 25 l 1
 206.166992188 700.502929688 l 1
 208.7890625 704.555664062 l 2
 256.027481161 782.06640625 299.028959246 832.33984375 337.747362288 862.409179688 c 0
 368.633306346 886.395507812 397.168462078 898 422.649781801 898 c 0
 442.879694306 898 460.822731909 889.58984375 470.586602083 872.467773438 c 0
 477.860475237 859.711914062 479.131739539 846.288085938 479.131739539 835 c 0
 479.131739539 823.420898438 478.136266046 811.874023438 475.975466944 800.895507812 c 2
 340.475502484 25 l 1
 421.190279328 25 l 1
 538.643018546 701.54296875 l 1
 541.029703454 705.625976562 l 2
 585.595747179 781.884765625 623.289784357 831.422851562 657.73824525 861.629882812 c 0
 687.663085938 885.727539062 717.025390625 898 745.793945312 898 c 0
 758.408203125 898 770.037109375 895.751953125 780.302734375 890.912109375 c 0
 793.247070312 884.809570312 802.999023438 874.754882812 809.07421875 863.809570312 c 0
 817.763671875 848.15234375 819.793945312 831.328125 819.793945312 816 c 0
 819.793945312 797.458007812 817 781.538085938 814.30859375 768.078125 c 0
 813.411132812 763.592773438 813.578125 760.383789062 812.227539062 754.66015625 c 2
 701.689453125 184.884765625 l 1
 700.85546875 183.216796875 l 1
 698.309570312 167.375 696.793945312 153.830078125 696.793945312 142 c 0
 696.793945312 90.8466796875 716.530273438 58.28125 742.350585938 36.4345703125 c 0
 758.403320312 22.853515625 777.401367188 13.41015625 795.67578125 7.669921875 c 1
 857.739257812 102.548828125 l 1
 839.837890625 113.801757812 822.763671875 129.171875 810.758789062 149.009765625 c 0
 801.772460938 163.862304688 795.793945312 181.470703125 795.793945312 201 c 0
 795.793945312 201.734375 795.790039062 202.509765625 795.790039062 203.325195312 c 0
 795.790039062 208.01171875 795.892578125 213.993164062 797.278320312 220.921875 c 2
 899.309570312 744.083984375 l 2
 904.9765625 771.471679688 909.793945312 809.166015625 909.793945312 846 c 0
 909.793945312 898.458007812 899.083007812 948.91796875 873.689453125 975.88671875 c 0
EndSplineSet
EndChar
StartChar: n
Encoding: 110 110 15
Width: 960
VWidth: 6
Flags: HW
LayerCount: 2
Fore
SplineSet
317.469003623 1004.41308594 m 1
 200.3125 991.682617188 l 1
 203.061523438 957.420898438 206.640625 926.84375 206.640625 889 c 0
 206.640625 843.90625 201.353515625 789.098632812 184.1875 700.23828125 c 2
 53 24.1923828125 l 1
 160.1484375 24.87109375 l 1
 254.533203125 492.939453125 l 1
 308.048145693 638.572265625 378.900411232 748.002929688 451.877045429 816.98828125 c 0
 509.732334618 871.680664062 569.146724215 902 623.640625 902 c 0
 653.330078125 902 678.793945312 896.509765625 698.754882812 882.17578125 c 0
 724.538085938 863.66015625 734.640625 833.930664062 734.640625 802 c 0
 734.640625 789.583007812 733.564453125 774.9921875 730.102539062 759.803710938 c 2
 621.182617188 199.211914062 l 2
 618.331054688 184.004882812 616.640625 170.580078125 616.640625 159 c 0
 616.640625 83.9873046875 664.954101562 47.4912109375 727.776367188 12.22265625 c 1
 799.206054688 87.6962890625 l 1
 765.12109375 108.853515625 728.640625 136.619140625 728.640625 190 c 0
 728.640625 196.705078125 728.653320312 205.756835938 731.216796875 216.38671875 c 2
 845.102539062 800.801757812 l 2
 847.727539062 813.924804688 848.640625 826.307617188 848.640625 838 c 0
 848.640625 942.412109375 751.272460938 1005 651.640625 1005 c 0
 541.835210061 1005 451.454352257 953.569335938 352.482926683 838.326171875 c 2
 312.333784794 791.575195312 l 1
 314.962198286 840.555664062 318.409999136 898.837890625 318.409999136 948 c 0
 318.409999136 969.506835938 318.075367042 988.8984375 317.469003623 1004.41308594 c 1
EndSplineSet
EndChar
StartChar: o
Encoding: 111 111 14
Width: 960
VWidth: 6
Flags: HW
LayerCount: 2
Fore
SplineSet
393.204494202 131.001953125 m 0
 393.109857952 131.001953125 393.014391558 131.001953125 392.919755308 131.001953125 c 0
 309.056640625 131.001953125 247.209960938 156.838867188 214.864257812 211.795898438 c 0
 189.915039062 254.184570312 185 307.266601562 185 368 c 0
 185 401.181640625 189.23046875 436.612304688 196.451171875 473.749023438 c 0
 244.1953125 721.612304688 369.433362289 903 533.180640518 903 c 0
 569.897845495 903 600.076847749 897.357421875 629.087890625 885.752929688 c 0
 666.012695312 871.173828125 692.440429688 846.72265625 708.98828125 816.23828125 c 0
 732.603515625 772.735351562 737 719.619140625 737 662 c 0
 737 624.631835938 731.760742188 584.458984375 724.641601562 543.759765625 c 0
 723.47265625 536.80078125 721.674804688 531 720.533203125 525.172851562 c 0
 691.115234375 375.040039062 647.271484375 260.858398438 567.251351046 195.056640625 c 0
 515.325934558 148.422851562 461.047894083 132.052734375 393.204494202 131.001953125 c 0
173.340820312 91.025390625 m 0
 224.211914062 49.73046875 293.95703125 26 370.818040062 26 c 0
 371.951184643 26 373.085159366 26 374.218303946 26 c 0
 527.676795413 26 629.68359375 100.462890625 707.861328125 213.862304688 c 0
 770.760742188 305.100585938 809.384765625 423.040039062 833.478515625 547.887695312 c 0
 843.120117188 595.134765625 848 645.616210938 848 695 c 0
 848 743.331054688 843.005859375 787.91015625 831.276367188 823.098632812 c 0
 808.3203125 891.967773438 771.91796875 939.267578125 713.159179688 969.373046875 c 0
 665.772460938 993.65234375 602.045945878 1007 529.780376634 1007 c 0
 294.490234375 1007 143.061523438 748.755859375 86.537109375 459.190429688 c 0
 77.748046875 412.314453125 73 368.979492188 73 329 c 0
 73 223.262695312 109.989257812 142.450195312 173.340820312 91.025390625 c 0
EndSplineSet
EndChar
StartChar: p
Encoding: 112 112 7
Width: 960
VWidth: -2
Flags: HW
LayerCount: 2
Fore
SplineSet
616.13976968 236.208984375 m 0
 554.379901925 155.306640625 474.436186339 123 388.991700685 123 c 0
 302.194353403 123 255.873585367 187.985351562 220.942382812 236.130859375 c 0
 215.657226562 242.6171875 210.586914062 248.775390625 205.322265625 255.16796875 c 1
 238.047898981 437.758789062 l 1
 293.947968005 572.161132812 362.503363784 693.140625 435.737406027 775.256835938 c 0
 493.517605827 840.043945312 555.637369464 883 619.077148438 883 c 0
 676.340820312 883 712.983398438 854.885742188 733.176757812 815.908203125 c 0
 750.353515625 782.752929688 757.077148438 740.970703125 757.077148438 692 c 0
 757.077148438 642.494140625 749.783203125 586.079101562 737.618164062 522.2109375 c 0
 712.641601562 393.693359375 671.188476562 300.564453125 616.13976968 236.208984375 c 0
223.201109833 48.220703125 m 0
 256.883895493 17.4013671875 286.674602317 -7 349.918281768 -7 c 0
 503.370080798 -7 613.487814002 56.4375 701.403320312 167.671875 c 0
 772.529296875 257.04296875 821.13671875 378.984375 849.532226562 525.768554688 c 0
 859.284179688 577.454101562 864.077148438 625.807617188 864.077148438 671 c 0
 864.077148438 751.80078125 848.112304688 819.362304688 819.084960938 868.229492188 c 0
 783.193359375 928.65234375 727.640625 963 648.077148438 963 c 0
 590.034743574 963 545.885491895 957.016601562 503.675341883 934.102539062 c 0
 451.01867189 905.517578125 398.207636916 848.579101562 334.095004035 733.721679688 c 2
 275.19175564 628.196289062 l 1
 283.523995718 684.49609375 290.662075243 733.719726562 299.438331445 790.80859375 c 0
 307.736749983 844.788085938 321.286179518 934.711914062 327.328094238 982.435546875 c 1
 224.596465191 968.6640625 l 1
 221.256835938 904.873046875 213.15234375 826.606445312 198.497070312 750.58203125 c 0
 196.591796875 742.961914062 195.541015625 734.907226562 193.467773438 726.467773438 c 2
 8.5693359375 -176.036132812 l 2
 -7.994140625 -255.364257812 -18.40234375 -329.3359375 -24 -394.979492188 c 1
 88.38671875 -399.142578125 l 1
 94.759765625 -334.48828125 100.349609375 -255.612304688 117.444335938 -171.658203125 c 2
 170.393554688 88.3828125 l 1
 188.127929688 75.29296875 206.484375 61.951171875 223.201109833 48.220703125 c 0
EndSplineSet
EndChar
StartChar: q
Encoding: 113 113 16
Width: 960
VWidth: -2
Flags: HW
LayerCount: 2
Fore
SplineSet
435.243819971 891.4609375 m 0
 469.036590274 907.5390625 507.22491858 915 550.593969536 915 c 0
 648.852082173 915 723.265625 859.52734375 773.3125 824.495117188 c 2
 787.732421875 814.400390625 l 1
 744.637695312 655.62890625 l 1
 692.520507812 537.798828125 621.534149542 388.650390625 544.533453275 276.897460938 c 0
 510.481518962 227.4765625 474.945359188 185.283203125 438.202040737 156.633789062 c 0
 408.906277506 133.791015625 378.167209447 119 346.318169215 119 c 0
 313.026367188 119 280.990234375 131.672851562 255.736328125 155.111328125 c 0
 212.482421875 195.252929688 191 262.287109375 191 346 c 0
 191 397.765625 199.428710938 455.918945312 216.879882812 520.592773438 c 0
 248.734375 637.2421875 282.301757812 726.946289062 329.209960938 792.340820312 c 0
 358.381230841 837.798828125 392.909720026 871.319335938 435.243819971 891.4609375 c 0
716.079101562 -381.283203125 m 1
 696.770507812 -321.868164062 687 -261.853515625 687 -196 c 0
 687 -157.625 690.103515625 -116.482421875 696.251953125 -73.439453125 c 0
 710.53125 25.86328125 750.963867188 183.774414062 783.569335938 311.53125 c 0
 802.46484375 385.571289062 818.336914062 449.6953125 825.463867188 483.826171875 c 2
 924.138671875 956.323242188 l 1
 820.774414062 972.327148438 l 1
 817.227539062 946.733398438 810.901367188 919.041015625 805.5234375 894.303710938 c 1
 774.861328125 915.384765625 l 2
 748.563476562 933.46484375 719.919921875 952.166015625 679.038085938 965.6796875 c 0
 650.414738849 976.485351562 614.853003679 984 568.053439649 984 c 0
 426.985524708 984 333.79296875 934.072265625 254.66796875 832.0390625 c 0
 190.831054688 749.720703125 144.291992188 630.759765625 107.340820312 473.275390625 c 0
 94.7548828125 419.060546875 89 367.001953125 89 318 c 0
 89 253.107421875 99.705078125 194.579101562 118.92578125 145.954101562 c 0
 157.362304688 48.720703125 227.76171875 -8 319 -8 c 0
 475.853285734 -8 559.12506902 133.120117188 612.501772303 225.154296875 c 0
 636.053301665 265.763671875 659.959476514 304.572265625 684.845703125 344.497070312 c 1
 667.256989413 232.7421875 l 2
 663.083937352 204.93359375 654.366137481 174.92578125 644.075450775 138.905273438 c 0
 627.985116844 82.5830078125 607.686777811 11.52734375 593.042306248 -84.33203125 c 0
 588.057661632 -116.690429688 585.512909762 -152.306640625 585.512909762 -190 c 0
 585.512909762 -265.008789062 595.94596617 -346.037109375 616.443793289 -417.499023438 c 1
 716.079101562 -381.283203125 l 1
EndSplineSet
EndChar
StartChar: r
Encoding: 114 114 17
Width: 960
VWidth: 4
Flags: HW
LayerCount: 2
Fore
SplineSet
367.50390625 768.446289062 m 0
 371.924804688 793.103515625 382.391584291 857.366210938 382.391584291 865 c 0
 382.391584291 951.129882812 332.643554688 1012.86035156 290.029296875 1055.75097656 c 1
 204.663085938 959.001953125 l 1
 256.03515625 914.366210938 281.6796875 866.87890625 281.6796875 816 c 0
 281.6796875 805.221679688 280.490234375 794.4921875 278.157226562 783.887695312 c 2
 135 50.806640625 l 1
 240.243164062 50.1318359375 l 1
 327.095703125 480.533203125 l 1
 403.600619674 606.127929688 477.650058124 725.088867188 545.95422428 806.272460938 c 0
 576.045938669 842.038085938 605.114260869 870.802734375 633.199860966 889.994140625 c 0
 655.585008866 905.2890625 680.2734375 915 706.6796875 915 c 0
 733.43359375 915 755.354492188 910.48828125 772.397460938 898.04296875 c 0
 794.685546875 881.767578125 800.6796875 856.508789062 800.6796875 834 c 0
 800.6796875 814.04296875 796.953125 794.052734375 793.232421875 773 c 1
 898.810546875 773 l 1
 905.88671875 812.286132812 909.6796875 847.97265625 909.6796875 879 c 0
 909.6796875 933.563476562 892.158203125 971.341796875 863.033203125 994.751953125 c 0
 839.4765625 1013.68652344 805.879882812 1025 761.6796875 1025 c 0
 696.235351562 1025 643.313432607 1012.171875 595.663030646 979.524414062 c 0
 536.033213051 938.668945312 475.934444453 865.12109375 406.931416801 742.244140625 c 2
 345.118164062 641.694335938 l 1
 352.573242188 683.94140625 359.935546875 726.239257812 367.50390625 768.446289062 c 0
EndSplineSet
EndChar
StartChar: s
Encoding: 115 115 18
Width: 960
VWidth: 6
Flags: HW
LayerCount: 2
Fore
SplineSet
609.363992392 398.737304688 m 0
 638.766601562 369.638671875 665 336.08203125 665 295 c 0
 665 293.938476562 665.025390625 292.712890625 665.025390625 291.331054688 c 0
 665.025390625 287.551757812 664.837890625 282.60546875 663.4375 276.674804688 c 0
 655.299804688 234.791992188 634.010742188 200.078125 608.473504039 173.443359375 c 0
 558.205984135 120.12109375 482.590296249 98 408.41185825 98 c 0
 344.166956833 98 267.750976562 126.060546875 219.958984375 184.881835938 c 0
 195.953125 214.426757812 181 251.78125 181 295 c 0
 181 298.059570312 181.068359375 301.115234375 181.204101562 304.176757812 c 1
 73.4306640625 304.86328125 l 1
 71.80078125 291.717773438 71 279.094726562 71 267 c 0
 71 159.377929688 133.391601562 80.123046875 230.493164062 37.7802734375 c 0
 279.13671875 16.5673828125 333.786069906 5 386.844685281 5 c 0
 470.806700612 5 548.559729037 15.904296875 610.754064087 45.4775390625 c 0
 647.596679688 61.90625 681.974609375 83.9072265625 709.828125 112.869140625 c 0
 744.546875 148.970703125 769.911132812 196.481445312 782.418945312 260.581054688 c 0
 785.231445312 276.573242188 786.860351562 304.619140625 787 306 c 0
 787 370.211914062 757.229492188 417.034179688 706.66015625 461.340820312 c 0
 666.21875 496.774414062 615.2469443 529.38671875 565.577576458 564.28515625 c 0
 513.756546126 600.694335938 458.1149248 639.677734375 407.512945221 688.831054688 c 0
 386.651760179 709.1953125 375.629755337 736.754882812 375.629755337 766 c 0
 375.629755337 782.41015625 379.120941461 798.754882812 385.812662356 814.083007812 c 0
 409.421134548 868.165039062 470.110822297 907 561.970129792 907 c 0
 665.103515625 907 764.532226562 889.466796875 837.528320312 857.322265625 c 1
 876.651367188 957.827148438 l 1
 787.416992188 990.84765625 688.338867188 1005 574.047746655 1005 c 0
 496.576944907 1005 433.893136127 990.463867188 386.826150992 963.407226562 c 0
 328.3698451 929.803710938 288.705078125 877.434570312 272.428710938 802.666015625 c 0
 268.765625 786.182617188 267 770.991210938 267 756 c 0
 267 693.624023438 296.01171875 638.354492188 351.199877143 594.231445312 c 0
 387.64165972 563.374023438 430.207339965 534.001953125 471.733415075 505.405273438 c 0
 523.320239389 469.881835938 573.313957293 435.775390625 609.363992392 398.737304688 c 0
EndSplineSet
EndChar
StartChar: t
Encoding: 116 116 19
Width: 960
VWidth: 0
Flags: HW
LayerCount: 2
Fore
SplineSet
839.327148438 219.767578125 m 1
 757.984375 282.286132812 l 1
 706.2578125 205.083984375 624.651367188 149 509.036934459 149 c 0
 461.483538311 149 418.662713666 159.813476562 384.915580302 187.655273438 c 0
 336.045898438 223.063476562 307.236328125 283.618164062 307.236328125 367 c 0
 307.236328125 395.782226562 310.408203125 428.28515625 317.673828125 463.693359375 c 0
 320.024414062 477.122070312 322.374023438 490.549804688 324.724609375 503.978515625 c 0
 357.708007812 647.385742188 372.545705696 726.916015625 410.28884221 919 c 1
 426.413457882 919 l 2
 463.787511339 919 486.697024003 922 524.579964707 922 c 2
 804.682617188 922 l 1
 823.801757812 1018.91699219 l 1
 547.625287154 1017.00097656 l 1
 422.588415282 1017.00097656 l 1
 434.436620545 1087.34472656 448.284425146 1170.40234375 460.44499291 1245.19140625 c 1
 372.865258127 1245.86914062 l 1
 327.8046875 1012 l 1
 227.236328125 1012 l 2
 202.537109375 1012 150.95703125 1009.64648438 123 1005.40234375 c 1
 135.512695312 909.25 l 1
 156.12109375 912.965820312 177.298828125 915 198.236328125 915 c 2
 308.58203125 915 l 1
 284.883789062 811.05078125 261.551757812 705.626953125 247.137695312 639.64453125 c 0
 235.506835938 586.405273438 225.630859375 541.193359375 214.716796875 493.8828125 c 0
 212.0703125 479.655273438 209.544921875 465.395507812 206.7734375 451.192382812 c 0
 199.012695312 411.415039062 195.236328125 376.049804688 195.236328125 343 c 0
 195.236328125 227.8828125 237.858398438 150.118164062 304.704101562 102.369140625 c 0
 358.59375 63.873046875 419.216338253 44 486.1314162 44 c 0
 679.575195312 44 790.318359375 144.357421875 839.327148438 219.767578125 c 1
EndSplineSet
EndChar
StartChar: u
Encoding: 117 117 20
Width: 960
VWidth: 6
Flags: HW
LayerCount: 2
Fore
SplineSet
83.59375 270.489257812 m 0
 80.7578125 254.422851562 79 238.888671875 79 225 c 0
 79 104.430664062 180.504882812 25 300 25 c 0
 422.238827987 25.9091796875 540.688729051 136.805664062 621.977064401 309.892578125 c 2
 701.73046875 464.255859375 l 1
 664.4296875 292.672851562 l 2
 654.666992188 247.759765625 650 211.356445312 650 182 c 0
 650 136.6640625 659.162109375 106.5546875 671.452148438 84.5615234375 c 0
 686.854492188 56.9951171875 708.208984375 40.5859375 730.013671875 24.095703125 c 1
 802.91015625 105.323242188 l 1
 777.291992188 128.62109375 745 160.620117188 745 217 c 0
 745 226.81640625 746.270507812 234.740234375 747.302734375 242.993164062 c 2
 893.359375 984.883789062 l 1
 784.790039062 1000.00097656 l 1
 720.034179688 683.728515625 l 1
 666.205078125 551.140625 595.672997578 398.098632812 517.499005563 285.831054688 c 0
 482.95034262 236.213867188 446.403527817 194.422851562 407.903377933 166.344726562 c 0
 377.153148402 143.919921875 344.697344474 130 309 130 c 0
 265.384765625 130 232.405273438 147.372070312 214.279296875 177.091796875 c 0
 200.313476562 199.991210938 196 226.862304688 196 254 c 0
 196 272.130859375 197.879882812 291.83984375 201.434570312 310.661132812 c 0
 231.211914062 468.305664062 261.931640625 604.090820312 287.034179688 715.0546875 c 0
 315.609375 841.368164062 335.008464234 936.578125 338.907523999 991.42578125 c 1
 227.962890625 972.913085938 l 1
 227.407226562 941.602539062 220.6328125 898.857421875 210.399414062 846.700195312 c 0
 197.071289062 778.775390625 177.630859375 695.65625 157.126953125 607.9453125 c 0
 130.74609375 495.091796875 102.607421875 374.653320312 83.59375 270.489257812 c 0
EndSplineSet
EndChar
StartChar: v
Encoding: 118 118 21
Width: 960
VWidth: 6
Flags: HW
LayerCount: 2
Fore
SplineSet
386.700055165 134.182617188 m 1
 386.700055165 192 l 2
 386.700055165 198.736328125 387.55424044 204.091796875 387.55424044 210 c 0
 387.55424044 309.465820312 337.530273438 603.456054688 307.623046875 772.768554688 c 0
 300.693359375 811.99609375 294.520507812 844.369140625 291.149414062 867.346679688 c 0
 286.344726562 900.109375 281.75 921.862304688 274.005859375 942.036132812 c 0
 265.99609375 962.90234375 254.022460938 983.553710938 232.876953125 1013.5703125 c 1
 134 945.768554688 l 1
 143.297851562 931.07421875 152.405273438 913.982421875 160.455078125 897.458007812 c 0
 170.594726562 876.642578125 178.559570312 858.602539062 181.401367188 843.916015625 c 0
 209.755859375 707.145507812 285.884765625 270.767578125 285.884765625 66 c 0
 285.884765625 50.041015625 285.28125 35.3115234375 284.1875 22.1328125 c 1
 376.000976562 23.15625 433.714446101 31.388671875 482.64658308 88.673828125 c 0
 584.192028544 207.553710938 701.178710938 374.249023438 794.524414062 557.991210938 c 0
 865.044921875 696.802734375 913.240234375 845.051757812 918.420898438 989.342773438 c 1
 810.26953125 986.587890625 l 1
 783.712890625 661.038085938 593.015829175 361.297851562 422.676770742 173.786132812 c 2
 386.700055165 134.182617188 l 1
EndSplineSet
EndChar
StartChar: w
Encoding: 119 119 22
Width: 960
Flags: HW
LayerCount: 2
Fore
SplineSet
508.073453819 330.844726562 m 2
 507.264669734 180.751953125 497.548039592 115.662109375 485.077055112 28.748046875 c 1
 512.117374243 25.724609375 566.975722709 19.0517578125 590.308755133 16.7021484375 c 1
 723.475585938 154.458984375 959.106445312 412.000976562 959.106445312 778 c 0
 959.106445312 840.423828125 952.21875 929.52734375 913.068359375 1017.20605469 c 1
 807.255859375 981.4765625 l 1
 833.127929688 924.716796875 855.106445312 846.462890625 855.106445312 777 c 0
 855.106445312 447.224609375 701.397881835 259.461914062 616.362478524 143.448242188 c 0
 598.575270801 119.181640625 580.920127075 94.94140625 563.179530174 70.64453125 c 1
 568.237667567 148.846679688 l 2
 573.503827334 230.278320312 577.016902281 322.693359375 577.016902281 420 c 0
 577.016902281 533.783203125 573.145614532 654.629882812 564.696108229 771.638671875 c 1
 496.196325743 770.427734375 l 1
 499.2519241 731.16796875 501.003282593 688.201171875 501.003282593 647 c 0
 501.003282593 606.126953125 498.900616605 568.515625 494.969770583 536.274414062 c 1
 493.197696169 532.44140625 l 2
 421.354881921 376.991210938 342.446212265 269.16015625 241.03125 174.607421875 c 2
 179.74609375 118.17578125 l 1
 199.842773438 199.041015625 l 2
 241.177734375 365.3671875 259.111328125 554.274414062 260.106445312 795.10546875 c 0
 260.106445312 896.923828125 248.448242188 964.334960938 234.28515625 1012.52246094 c 1
 125.018554688 987.625976562 l 1
 143.181640625 920.163085938 154.106445312 814.534179688 154.106445312 737 c 0
 154.106445312 520.940429688 113.646484375 194.83984375 87 38.845703125 c 1
 118.038085938 30.4326171875 150.234375 17.8818359375 177.561523438 7.87109375 c 1
 337.899930755 169.892578125 417.759806454 262.178710938 467.707618464 345.05859375 c 2
 508.515393468 412.7734375 l 1
 508.073453819 330.844726562 l 2
EndSplineSet
EndChar
StartChar: x
Encoding: 120 120 23
Width: 960
VWidth: 4
Flags: HW
LayerCount: 2
Fore
SplineSet
634.505425684 62.7958984375 m 0
 661.972419745 38.23828125 693.669921875 28 728.661132812 28 c 0
 741.66796875 28 756.026367188 28.9443359375 770.458984375 30.5205078125 c 1
 789.594726562 132.13671875 l 1
 782.493164062 131.436523438 775.168945312 131 767.661132812 131 c 0
 747.098632812 131 732.154296875 132.954101562 721.123046875 135.8046875 c 0
 716.190429688 137.079101562 712.02734375 138.510742188 708.130859375 140.375 c 0
 705.333984375 141.712890625 702.590820312 143.05859375 699.234375 146.130859375 c 0
 693.103515625 151.197265625 690.470703125 155.885742188 686.3046875 162.529296875 c 0
 681.293945312 170.522460938 675.518554688 180.895507812 668.83203125 193.473632812 c 0
 631.287224401 271.533203125 576.102456 403.311523438 539.5986339 475.759765625 c 2
 531.532596419 491.768554688 l 1
 542.836932557 505.153320312 l 2
 632.385589596 611.177734375 781.138671875 794.747070312 848.18359375 878.668945312 c 0
 877.725585938 915.646484375 896.560546875 955.661132812 910.669921875 994.798828125 c 1
 788.057617188 994.09375 l 1
 778.61328125 973.624023438 762.942382812 943.884765625 740.466796875 914.75 c 0
 648.24241791 791.5078125 583.92645119 703.366210938 503.155103922 615.125 c 2
 481.384404774 591.33984375 l 1
 414.239077274 738.87890625 364.345161104 868.681640625 289.243020984 1027.67382812 c 1
 191.237304688 975.413085938 l 1
 255.00059039 857.55859375 307.276482313 741.48046875 351.258275246 643.831054688 c 0
 372.841981434 595.91015625 390.543399188 556.844726562 409.423571635 516.026367188 c 1
 298.712379469 395.500976562 157.797851562 254.547851562 66.1044921875 167.2890625 c 0
 34.775390625 137.4765625 9.6220703125 113.532226562 -6 98.5478515625 c 1
 73.2080078125 17.2548828125 l 1
 144.518554688 85.48046875 290.921588636 230.671875 433.840133798 396.345703125 c 2
 455.491996299 421.446289062 l 1
 469.827540759 390.455078125 l 2
 506.278061127 311.651367188 545.733575851 207.889648438 583.576931638 136.153320312 c 0
 602.152148274 100.94140625 620.309689045 74.6318359375 634.505425684 62.7958984375 c 0
EndSplineSet
EndChar
StartChar: y
Encoding: 121 121 24
Width: 960
VWidth: 14
Flags: HW
LayerCount: 2
Fore
SplineSet
117.481445312 861.817382812 m 1
 122.836914062 862.541015625 128.669921875 863 134.868164062 863 c 0
 140.110824615 863 142.455670494 862.161132812 145.292047639 862 c 2
 146.896462994 862 l 1
 163.555702116 859.4453125 176.978355575 851.34375 189.05623679 839.41015625 c 0
 203.484335809 825.154296875 215.646377204 806.030273438 226.994571748 783.126953125 c 0
 252.488839175 731.676757812 274.173515454 659.377929688 293.403221364 576.081054688 c 0
 337.445855368 385.302734375 366.793584673 142.083984375 381.496547261 -30.8876953125 c 1
 352.953711596 -82.3759765625 317.064766564 -148.140625 270.249323211 -200.729492188 c 0
 235.120505766 -240.19140625 192.872095184 -273 143.443209632 -273 c 0
 102.825195312 -273 64.5654296875 -253.794921875 32.5009765625 -231.676757812 c 0
 5.0712890625 -212.755859375 -18.42578125 -191.017578125 -35.41015625 -172.913085938 c 1
 -107 -253.366210938 l 1
 -84.6572265625 -278.168945312 -50.787109375 -309.696289062 -9.8837890625 -334.305664062 c 0
 30.4833984375 -358.592773438 77.265625 -376 126.868164062 -376 c 0
 261.386539954 -376 367.66204611 -285.53515625 510.003770869 -38.71484375 c 0
 686.364114949 267.53515625 846.716796875 701.557617188 935.544921875 957.989257812 c 1
 832.409179688 986.487304688 l 1
 757.41796875 753.932617188 607.836399349 364.372070312 503.926331456 146.48828125 c 2
 469.169072255 73.607421875 l 1
 460.801401548 155.1953125 l 2
 444.112616831 317.926757812 410.340210804 544.508789062 359.435836132 718.616210938 c 0
 336.82808383 795.938476562 310.721416793 862.743164062 282.636985515 908.00390625 c 0
 260.008640829 944.470703125 237.182430187 964.91015625 216.727029734 970.741210938 c 0
 194.870451809 976.453125 179.126230819 979 157.195341245 979 c 0
 144.216767036 979 128.606445312 978.001953125 108.651367188 975.924804688 c 1
 117.481445312 861.817382812 l 1
EndSplineSet
EndChar
StartChar: z
Encoding: 122 122 25
Width: 960
VWidth: 6
Flags: HW
LayerCount: 2
Fore
SplineSet
-33 91.013671875 m 1
 32.51953125 0.8359375 l 1
 95.669921875 46.54296875 148.341796875 86 250.214933728 86 c 0
 318.694065172 86 369.982563471 68.4794921875 418.1945159 52.06640625 c 0
 466.180813506 35.73046875 511.173186891 20.4697265625 572.419814746 19.9990234375 c 0
 664.608693857 19.9990234375 728.30078125 61.947265625 773.455078125 119.265625 c 0
 804.466796875 158.6328125 824.145507812 205.927734375 833.337890625 251.842773438 c 1
 730.122070312 270.856445312 l 1
 722.91015625 240.186523438 710.222062207 211.534179688 691.94224476 187.630859375 c 0
 662.504951259 149.140625 617.873270229 125 561.341406719 125 c 0
 522.757097256 125 487.109854107 138.491210938 449.302010451 152.24609375 c 0
 399.545122051 170.34765625 345.270695173 190 273.867823487 190 c 2
 212.103515625 190 l 1
 259.121191985 234.02734375 l 2
 360.051974463 328.657226562 438.253808188 396.827148438 517.449766899 466.1484375 c 0
 671.404102277 600.90625 792.360351562 700.725585938 962.392578125 890.438476562 c 1
 910.853515625 1002.88867188 l 1
 845.764648438 995.6640625 754.876953125 995 709.626830981 995 c 2
 437.618598746 995 l 2
 386.484682885 995 340.450210654 993.028320312 294.721349679 977.368164062 c 0
 263.26915406 966.596679688 231.583307975 949.372070312 196.440429688 920.85546875 c 1
 255.650194378 837.133789062 l 1
 304.624398137 877.8359375 403.975596857 888.875 424.022451477 888.875 c 0
 426.337634422 888.875 427.594727233 888.727539062 427.594727233 888.461914062 c 1
 470.231939457 888.465820312 514.900045084 888.249023438 559.832006941 888.49609375 c 0
 605.553760677 888.747070312 651.549143096 889 695.980933043 889 c 0
 746.57421875 889 793.524414062 893.504882812 842.284179688 897.255859375 c 1
 792.28515625 849.010742188 l 2
 668.341770885 724.79296875 572.33186267 640.513671875 460.453267672 541.418945312 c 0
 334.910118236 430.221679688 192.200195312 305.484375 -33 91.013671875 c 1
EndSplineSet
EndChar
StartChar: braceleft
Encoding: 123 123 160
Width: 1060
VWidth: 66
Flags: W
LayerCount: 2
Fore
SplineSet
769 964 m 0
 769 1024.45147638 757 1081.22990781 757 1142 c 0
 757 1162.83801777 758.015383522 1184.57256094 762.485310147 1206.92219407 c 0
 788.812917843 1340.84958974 924.541114708 1343.99182857 1055.48694423 1350.02278844 c 1
 1072.49446082 1457.51029331 l 1
 947.641294561 1450.60975899 818.326019795 1432.82537982 720.186550143 1339.85114542 c 0
 674.624536402 1296.14880571 652.553700166 1251.2728575 643.514689853 1206.07780593 c 0
 639.956405318 1188.28638326 639 1171.17252922 639 1152 c 0
 639 1104.24803304 648.808433129 1053.25788293 656.714123174 1006.81195391 c 0
 659.795763678 984.213256882 662 962.981907263 662 943 c 0
 662 926.049225569 660.936527295 910.142900006 657.496678588 893.983419013 c 0
 629.066606896 748.196025628 486.775799551 702.730783937 364.570133812 669.877732725 c 1
 340.830278694 547.349448242 l 1
 405.353692312 527.309773649 469.877079804 503.506442521 510.568621119 457.983252516 c 0
 534.201414839 431.544338576 549 397.387123494 549 356 c 0
 549 341.647557491 547.024472093 328.62671713 544.514689853 316.077805931 c 0
 537.859542115 282.80206724 523.701906574 246.398119202 500.83294372 204.81818674 c 0
 464.169013035 140.408578779 423.346170992 69.1512743602 410.527806434 4.14385409828 c 0
 407.73482406 -9.82105776775 406 -23.2666514192 406 -36 c 0
 406 -66.5600440263 413.553883336 -95.2643155199 432.816174571 -124.157752373 c 0
 460.910538021 -166.299297548 501.980708541 -191.983368239 552.297261948 -208.406132198 c 0
 609.173836701 -226.970014236 676.74505579 -232.652483002 743.272406346 -236.028140731 c 1
 767.95957687 -127.678892319 l 1
 717.651052203 -125.542483248 670.317220038 -123.460241192 630.279022817 -114.619604297 c 0
 597.429758609 -107.366320251 566.956441114 -95.2051444959 547.20641749 -69.5845622971 c 0
 534.468002333 -53.0597409193 528 -32.2819049808 528 -9 c 0
 528 1.11812131582 529.235704994 11.674168306 531.485310147 22.9221940689 c 0
 542.010196137 76.0728683194 566.815929461 124.605555462 591.033612712 172.755621138 c 0
 617.230182435 224.840147125 642.871360365 276.444821942 653.445347209 331.71793499 c 0
 657.160379065 351.221852235 659 370.695778237 659 389 c 0
 659 497.338025868 596.143684131 568.980208719 529.854012989 585.762403945 c 2
 429.512861217 611.165227178 l 1
 530.381784073 634.365079436 l 2
 569.411846166 643.341993717 615.084442511 668.434785578 655.620779637 706.35405071 c 0
 706.300953236 753.762254705 748.489144932 820.358518697 763.45453203 897.765693342 c 0
 768.001185746 920.49896192 769 941.720842407 769 964 c 0
EndSplineSet
Validated: 1
EndChar
StartChar: bar
Encoding: 124 124 161
Width: 1060
VWidth: 66
Flags: W
LayerCount: 2
Fore
SplineSet
369.540054073 147.206389447 m 0
 353.470090262 65.9112784047 346.138541774 23.9979275934 333.553818815 -41.7222923056 c 0
 324.921934502 -87.363610453 316.586842748 -125.171543386 305.036698003 -172.198494193 c 1
 414.422937414 -172.877911829 l 1
 436.074244402 -84.0048660745 445.966984704 -28.6694331446 467.444492519 78.7181059285 c 2
 497.485310147 228.922194069 l 2
 531.273022487 402.539054402 571.048653896 624.522977415 609.056904918 836.640364127 c 0
 644.048063787 1031.91988838 677.515874838 1218.71014569 703.461892467 1351.80360649 c 2
 725.706681575 1467 l 1
 616.629151096 1467 l 1
 581.490928453 1285.45251634 546.613227844 1098.02245684 499.441918309 841.812285625 c 0
 454.765502483 599.153087456 407.245131429 341.042350506 369.540054073 147.206389447 c 0
EndSplineSet
Validated: 1
EndChar
StartChar: braceright
Encoding: 125 125 162
Width: 1060
VWidth: 66
Flags: W
LayerCount: 2
Fore
SplineSet
358 254 m 0
 358 194.622389002 371 138.854367584 371 79 c 0
 371 57.2952282693 368.815767681 35.6528757742 364.558377094 13.3015751929 c 0
 338.206076304 -120.751433174 202.973661055 -122.178016928 72.3833629973 -128.041090106 c 1
 54.695043795 -235.531645258 l 1
 179.715983525 -228.862353184 308.825929306 -212.681428045 406.813449857 -119.851145417 c 0
 452.375463598 -76.1488057064 474.446299834 -31.2728574979 483.485310147 13.9221940689 c 0
 487.043594682 31.7136167434 488 48.827470778 488 68 c 0
 488 115.751966962 478.191566871 166.742117074 470.285876826 213.188046086 c 0
 467.204236322 235.786743118 465 257.018092737 465 277 c 0
 465 293.950774431 466.063472705 309.857099994 469.503321412 326.016580986 c 0
 497.933393103 471.803974372 640.224200448 517.269216063 762.429866188 550.122267275 c 1
 786.169721306 672.650551758 l 1
 721.646307688 692.690226351 657.122920196 716.493557479 616.431378881 762.016747484 c 0
 592.798585161 788.455661424 578 822.612876506 578 864 c 0
 578 878.352442509 579.975527907 891.37328287 582.485310147 903.922194069 c 0
 589.140457885 937.19793276 603.298093426 973.601880798 626.16705628 1015.18181326 c 0
 662.830986965 1079.59142122 703.653829008 1150.84872564 716.472193566 1215.8561459 c 0
 719.26517594 1229.82105777 721 1243.26665142 721 1256 c 0
 721 1286.56004403 713.446116664 1315.26431552 694.183825429 1344.15775237 c 0
 666.043367983 1386.36843854 624.865530411 1412.45703738 574.529327892 1429.29745808 c 0
 517.678308008 1448.3174684 450.21561633 1454.53660721 383.852246568 1458.00583081 c 1
 359.850749114 1349.65621374 l 1
 408.903630851 1347.47633838 455.033823 1345.06284174 494.268350791 1336.39957767 c 0
 527.972946147 1328.9573622 559.10496425 1316.57222423 579.301388339 1290.59717477 c 0
 592.33697095 1273.83183544 599 1252.71033458 599 1229 c 0
 599 1218.88187868 597.764295006 1208.32583169 595.514689853 1197.07780593 c 0
 585.005147084 1144.00461495 560.465997466 1095.49468649 536.48909413 1047.34655694 c 0
 510.551087948 995.260327773 485.142946927 943.629966175 474.554652791 888.28206501 c 0
 470.839620935 868.778147765 469 849.304221763 469 831 c 0
 469 722.661974132 531.856315869 651.019791281 598.145987011 634.237596055 c 2
 698.487138783 608.834772822 l 1
 597.618215927 585.634920564 l 2
 558.588153834 576.658006283 512.915557489 551.565214422 472.379220363 513.64594929 c 0
 421.699046764 466.237745295 379.510855068 399.641481303 364.54546797 322.234306658 c 0
 359.919976978 299.106851696 358 275.526196231 358 254 c 0
EndSplineSet
Validated: 1
EndChar
StartChar: tilde
Encoding: 126 126 120
Width: 1060
VWidth: -12
Flags: W
LayerCount: 2
Fore
SplineSet
446 741 m 0
 358.132638169 741 290.806710097 720.138376186 234.346387853 686.028964877 c 0
 169.807874046 647.039270428 118.636898651 589.651866442 70.0880371727 523.510185692 c 1
 143.963582553 463.48630507 l 1
 179.535496994 507.353885505 224.2916488 551.400004276 271.320475295 584.392149756 c 0
 314.574847152 614.736401044 360.633820188 637 406 637 c 0
 471.958071717 637 509.19293911 585.139374094 541.717230928 542.937495132 c 0
 582.987293287 489.387545877 620.323568304 442 695 442 c 0
 890.642548271 442 991.018145654 593.894432786 1036.58987799 685.895841784 c 1
 949.940087925 725.9385478 l 1
 930.413952617 689.031225507 898.530702231 645.110346208 860.149327405 609.167120212 c 0
 823.066041739 574.439523209 778.146924643 545 729 545 c 0
 666.699337385 545 634.835267791 595.077224918 607.411577105 634.95723189 c 0
 586.545963332 665.300369591 565.719710139 694.817206293 537.189333066 714.608064455 c 0
 514.498023033 730.348497791 486.434304256 741 446 741 c 0
EndSplineSet
Validated: 1
EndChar
StartChar: cent
Encoding: 162 162 155
Width: 1060
VWidth: 6
Flags: W
LayerCount: 2
Fore
SplineSet
486 259 m 2
 480.598176895 259 475.817118508 258 469 258 c 0
 406.028054952 258 357.737670253 282.036767779 329.022146585 324.331922831 c 0
 306.443423124 357.588171985 297 399.362666954 297 445 c 0
 297 468.497946823 299.139533271 493.208642057 304.492906692 518.962385266 c 0
 321.594380768 606.417437168 361.820914254 651.22624535 386.624713345 674.968686261 c 0
 433.018666068 720.293050265 563.865150027 746.321047615 578.561403153 746.321047615 c 0
 579.445244949 746.321047615 579.908983631 746.226907099 579.908983631 746.037161786 c 0
 579.908983631 745.818800809 579.294823999 745.473824114 578 745 c 1
 613.600106473 745 641.596311775 744.369877634 665.437770074 736.629052021 c 0
 682.082503366 731.224853328 697.67582777 720.938897915 706.887011704 704.440754088 c 0
 712.325721107 694.699486232 715.160057553 684.016291644 716.34043041 672.598219464 c 1
 832.042973296 711.622154047 l 1
 824.98409995 739.537915191 813.439869112 763.128161549 797.023833141 782.361172724 c 0
 771.757158375 811.963583375 733.31027376 833.472644806 674.287800767 842.274241656 c 2
 648.51043978 846.118234084 l 1
 679.71656333 1008 l 1
 568.570984631 1008 l 1
 536.256792476 843.491385391 l 1
 519.550498592 840.413910202 l 2
 447.537336276 827.14832767 373.200719226 795.099589867 309.126613673 734.794549346 c 0
 262.815811741 690.336179491 211.619776744 614.326578296 188.56759503 496.347407727 c 0
 187.892706598 492.635521349 187.260093322 488.909448092 186.540401993 485.208178401 c 0
 179.743462916 450.252491719 176 418.804847189 176 390 c 0
 176 356.020591303 180.957506406 326.599522349 191.302762284 300.513591562 c 0
 204.20265769 267.986046312 225.565514178 239.834685873 259.266644678 213.792903215 c 0
 293.940367598 187.120808661 337.189426122 172.051179621 379.028525899 163.493181939 c 2
 403.305681391 158.527400134 l 1
 375.378015148 16 l 1
 484.388966029 16 l 1
 511.972122468 157.856233113 l 1
 530.263050003 159.851607026 l 2
 632.967227155 171.055699079 729.989515387 214.425417831 792.003786771 282.74958682 c 1
 713.166219773 336.82824848 l 1
 694.772046289 316.884580573 667.605996825 300.124158011 634.760843705 286.814126443 c 0
 593.471416549 270.082172817 542.581935257 259 488 259 c 2
 486 259 l 2
EndSplineSet
Validated: 1
EndChar
StartChar: sterling
Encoding: 163 163 154
Width: 1060
VWidth: 0
Flags: W
LayerCount: 2
Fore
SplineSet
194 114 m 0
 175.804409234 114 162.298645096 123.798520882 155.221281479 136.071765886 c 0
 148.873720462 147.079420115 147 159.345633754 147 173 c 0
 147 181.250334136 148.075228619 189.256732551 149.050559731 196.985173222 c 0
 149.205710654 199.968765353 149.683651701 202.000371191 150 203.178168952 c 2
 150 203.495643334 l 1
 154.285703779 224.924162227 162.419444926 244.451165778 171.953055153 260.424809792 c 0
 176.005365479 267.214489781 180.215739458 273.256800862 184.750118449 278.526991385 c 0
 188.387410345 282.754520958 192.122521798 286.618657348 197.60432243 290.107075932 c 2
 212.164586031 299.372698224 l 1
 225.979002409 289.01188594 l 2
 242.747341679 276.435631487 251.215603308 259.334371754 260.054004448 243.822539639 c 0
 268.435098738 229.113303715 276.877323408 214.61166097 287.585532714 202.71365063 c 2
 303.442833635 185.094427385 l 1
 283.979928006 165.631521756 266.917624908 147.38645573 241.18414351 130.935828351 c 0
 227.573731678 122.235108459 212.455363548 114 194 114 c 0
522 707 m 1
 664 707 l 2
 754.120455297 707 829.946200086 707.063755964 899.004834267 713.872686519 c 1
 919.07008723 816.205476626 l 1
 868.874397291 812.635767498 813.430857837 812 753 812 c 2
 696.257967305 812 l 1
 522.214750501 808.472096957 l 1
 524.520885413 884.574549052 527.07973244 988.945999334 539.450497945 1055.74813306 c 0
 545.649337265 1086.74232966 556.708209114 1122.55882917 579.960848911 1153.91824578 c 0
 609.403775188 1193.62612408 657.946860601 1223 730 1223 c 0
 732.104706315 1223 734.20941263 1223 736.314118945 1223 c 2
 736.627602303 1222.99225967 l 2
 759.607336529 1222.42485883 779.350850985 1217.81258783 795.899171085 1208.97242819 c 0
 832.174095094 1189.59426064 848.371677844 1152.9124889 854.211109957 1107.1110099 c 1
 960.526377682 1136.60492288 l 1
 955.79784774 1181.53464943 942.298370129 1221.83736493 920.313110523 1253.05542314 c 0
 889.219758575 1297.20655388 840.554618761 1326 766 1326 c 0
 686.056720452 1326 618.60629928 1306.70746175 565.096276415 1269.50932467 c 0
 498.409575222 1223.1512609 450.849334112 1147.41642786 429.53730044 1038.19225529 c 0
 415.633741557 967.604956351 414.776134938 893.926247536 413.650413142 814 c 1
 280.685051405 814 l 1
 261.22417488 711.99816442 l 1
 307.683622454 711.978558829 362.263506965 711.047124112 414 709.057258995 c 1
 414 685.371505997 414 661.685752998 414 638 c 0
 414 559.875579975 413.018952506 482.756911806 395.572189397 392.372683712 c 0
 391.557653064 370.295893935 387.439229341 348.444484676 380.950230664 326.814490657 c 2
 366.638040882 279.107191382 l 1
 336.919191624 319.113334613 l 2
 322.622716732 338.358589276 304.389004225 361.987236117 283.411679142 378.200458529 c 0
 266.592652626 391.199762137 248.997326863 399 230 399 c 2
 221 399 l 2
 209.428979765 399 194.104161385 396.602400262 179.127142839 389.603384633 c 0
 107.775005432 351.941258007 65.5722045071 283.318022893 46.4949592494 186.977934342 c 0
 42.8362675568 169.599148802 41 152.056087904 41 137 c 0
 41 102.620079535 49.1197934173 73.6018079213 62.8928202204 52.8630111686 c 0
 79.7832029523 27.4302417737 105.510027867 12 144 12 c 0
 223.248966057 12 310.458180961 51.1740315656 366.63900375 111.95983983 c 2
 381.824477549 128.390024595 l 1
 399.808181693 115.138874173 l 2
 492.269880037 47.0092017094 579.327508677 9 691 9 c 0
 750.08489066 9.41904177773 798.667564088 22.4894135173 836.688239534 46.6560465586 c 0
 886.526018309 78.3338454702 919.844937738 130.141715367 934.57002334 205.607779078 c 1
 829.554970568 204.261432248 l 1
 823.596136533 174.364327816 817.288650638 145.06105502 788.36317317 127.854749961 c 0
 765.608071405 114.318889644 737.141344678 112 695 112 c 0
 652.725185406 112 617.618814644 118.970069656 584.867491429 132.609904467 c 0
 543.944592413 149.652928314 507.714784757 175.996154544 462.099763526 209.929280095 c 2
 446.126108421 221.812121087 l 1
 454.083911188 240.001384554 l 2
 474.366807457 286.362290312 491.84724812 339.869488135 501.426214898 389.618585072 c 0
 520.980132091 497.231794811 522 675.48496556 522 682 c 2
 522 707 l 1
EndSplineSet
Validated: 1
EndChar
StartChar: currency
Encoding: 164 164 153
Width: 1060
VWidth: 6
Flags: W
LayerCount: 2
Fore
SplineSet
504 230 m 0
 453.664398518 230 412.636987063 244.247540704 387.337808899 277.745188092 c 0
 367.522414901 303.981972414 360 337.915745086 360 377 c 0
 360 404.705191687 364.349318377 434.20304506 370.46269956 466.807744706 c 0
 402.798641523 632.529447266 473.342326512 752.776415207 598.031338298 765.827911639 c 0
 603.843647497 766.602886199 609.655956696 767.377860759 615.468265895 768.152835319 c 1
 661.904137259 763.931392468 697.966098671 741.065765018 720.084892252 702.332116786 c 0
 737.007474202 672.697890398 745 635.875593347 745 594 c 0
 745 570.454060969 742.842425566 544.778803149 737.538751698 517.199699037 c 0
 716.997843138 411.756368427 677.916948435 321.481510521 615.264546529 270.586932029 c 0
 583.781136683 245.0119369 546.083205663 230 504 230 c 0
243 356 m 0
 243 337.873835111 243.925165239 321.869817139 247.514689853 303.922194069 c 2
 250.200140498 290.494940842 l 1
 94.5383916273 140.563072298 l 1
 149.713470598 77.7776376064 l 1
 297.544010557 200.804395693 l 1
 313.674203125 184.674203125 l 2
 351.520027787 146.828378463 393.057676056 123.925596387 468.150350995 123.000044377 c 0
 528.423687493 123.033489043 588.667737252 143.176577289 643.075094613 179.760832184 c 2
 663.13265102 193.247809768 l 1
 760.265523318 58.4511706598 l 1
 859.225886606 133.91734698 l 1
 748.144650423 283.635534878 l 1
 758.562090309 298.393574716 l 2
 804.552622969 363.546829318 829.880132374 423.947755589 851.45789494 524.80430214 c 0
 857.280678237 557.881153718 860.999999918 588.265573388 861 618 c 0
 861 643.75388724 859.092327594 667.732990836 853.638990107 691.364119947 c 2
 850.333397521 705.688354485 l 1
 1008.23299467 848.368713358 l 1
 948.099733674 911.700552071 l 1
 813.546286443 798.233839107 l 1
 797.355001152 816.352658361 l 2
 780.398267903 835.32805033 763.453936763 848.604168675 743.308361695 858.048871737 c 0
 718.148899592 869.844198898 686.809236253 876 643 876 c 2
 626.544400026 876 l 1
 560.305613693 873.119761674 511.288081644 855.591742422 457.310250723 809.059129559 c 2
 436.715254062 791.304822094 l 1
 343.733977191 919.659410819 l 1
 243.676304864 843.901458914 l 1
 350.016757937 698.282099751 l 1
 341.391102283 684.061424214 l 2
 305.849029914 625.465034631 272.034033372 548.129921731 255.660770137 463.82956534 c 0
 255.305051506 461.339534925 255.02605231 458.773469579 254.56413649 456.331914532 c 0
 247.674439697 419.914945767 243 387.483704907 243 356 c 0
EndSplineSet
Validated: 1
EndChar
StartChar: yen
Encoding: 165 165 150
Width: 1060
VWidth: 0
Flags: W
LayerCount: 2
Fore
SplineSet
432.023044399 399 m 1
 412.346123456 308.486163662 387.102930067 189.954267746 376.517952071 138.092830149 c 2
 353.338810632 19 l 1
 462.380585825 19 l 1
 486.57210884 147.301574303 513.711829385 272.654951073 539.683823866 399.176053909 c 1
 663.092757465 398.112377207 776.86209492 395.091760824 898.706838625 393.041968404 c 1
 922.251866942 505.227103328 l 1
 797.49199578 507.368014447 687.223165489 510.402721951 562.796529874 512.529672987 c 1
 570.34007203 545.721258473 578.536491234 579.725066723 584.67814535 613.504164362 c 1
 592.876384903 622.522227871 597.020969989 627.478268819 609.499832448 642.700710968 c 0
 621.197266885 656.969921771 640.445029868 680.093956257 657.201977668 699.64372869 c 1
 764.463156417 702.995640526 845.921607859 707.925145328 967.39939957 707.999207467 c 1
 988.649325495 816.990763014 l 1
 895.85815318 816.850630864 830.8794397 814.842797068 751.037359639 812.089621894 c 1
 768.106954929 832.573136242 785.178908821 853.4481796 802.680782764 873.450321249 c 0
 807.884090967 879.396959196 812.96049182 885.202455045 817.662090718 890.839368722 c 0
 945.260616253 1048.96236215 1041.05565092 1185.56930345 1106.8592608 1281.0345801 c 1
 1026.42367486 1333.35040835 l 1
 958.728624376 1231.34850255 765.000543788 971.847824794 637.289351772 817.102876803 c 2
 629.776736579 808 l 1
 526.817851465 808 l 1
 469.03551115 958.417520821 378.71317811 1214.90910548 345.474366399 1320.14067251 c 1
 237.158810723 1269.49963349 l 1
 262.620310712 1186.77899573 326.110314432 999.315309585 383.467072656 843.63268012 c 2
 396.370372693 808.609437162 l 1
 329.201220869 811.144122137 268.661117703 813.465993126 190.340742415 817.848676701 c 1
 184.826980656 794.118919569 180.566431947 769.947358089 175.499948432 745.004670013 c 2
 168.225268571 709.190861465 l 1
 278.221117876 702.439286343 360.543584524 697.826256997 440.760646355 696.784476973 c 1
 449.94510719 674.74177097 463.601006038 640.626106194 472.074215522 624.738838412 c 2
 476.187268727 617.026863651 l 1
 456.768920846 513 l 1
 436 513 l 2
 341.291289801 513 249.272906783 510.059834498 126.693786022 506.105922363 c 1
 105.52304644 395.471734867 l 1
 170.724321728 398.254681313 231.062891935 399 289 399 c 2
 432.023044399 399 l 1
EndSplineSet
Validated: 1
EndChar
StartChar: brokenbar
Encoding: 166 166 164
Width: 1060
VWidth: 66
Flags: W
LayerCount: 2
Fore
SplineSet
417.426645455 -169.877934861 m 1
 445.179681453 -56.7874450313 450.415844264 -31.1259757384 487.457704726 159.782074334 c 0
 502.975377445 240.108850763 531.10024844 392.691114928 551.075413831 503 c 1
 438.944429945 503 l 1
 416.853917055 379.409339394 384.556603819 206.133831493 366.542989871 113.221506918 c 2
 337.527362972 -33.8583943415 l 2
 327.283980796 -85.9289204003 320.558918421 -115.989140387 307.738361388 -169.196641171 c 1
 417.426645455 -169.877934861 l 1
616.629151096 1467 m 1
 579.423708801 1274.77188148 540.419166065 1058.92488224 493.897210366 800 c 1
 605.088920065 800 l 1
 638.645353982 986.9959154 675.968412698 1208.99228538 707.460450508 1370.79620379 c 2
 725.784827978 1467 l 1
 616.629151096 1467 l 1
EndSplineSet
Validated: 1
EndChar
StartChar: section
Encoding: 167 167 159
Width: 1060
VWidth: 4
Flags: W
LayerCount: 2
Fore
SplineSet
301 629 m 0
 301 631.363694562 301.115875471 637.098162397 302.662802199 642.855620231 c 0
 306.240920546 661.506071399 310.385328023 679.462961791 322.517575231 696.167894761 c 0
 338.115751064 717.64507849 362.351316894 731.06816945 400.155855717 745.388070519 c 2
 413.660566149 750.503491138 l 1
 424.835704827 741.339877421 l 2
 525.189394555 659.049851845 647.363748574 587.284773751 733.541260951 491.762711839 c 0
 756.584773477 466.293566416 765 438.575914475 765 414 c 0
 765 411.359610034 765 408.719220069 765 406.078830103 c 0
 759.070494672 380.87843246 756.507628381 359.775981068 741.062396018 339.175221938 c 0
 726.917936364 320.309425716 705.633860523 307.453784052 674.962087315 295.656948203 c 2
 661.592846675 290.514932572 l 1
 625.510499063 319.380810661 588.036281329 347.063947899 547.844754171 376.185342689 c 0
 473.254329666 430.230992437 395.300430323 486.391456105 336.587344032 552.092493256 c 0
 315.891560237 574.030291118 301 600.723551018 301 629 c 0
310 979 m 0
 310 931.230172609 319.718927313 884.595217723 336.254127272 852.395091489 c 2
 346.531079902 832.382078472 l 1
 327.639820338 820.050284034 l 2
 288.675703347 794.615374332 257.909631824 769.922134227 235.046126317 737.379009562 c 0
 216.746713402 711.332256774 202.891923749 679.635812358 194.550121535 636.258440846 c 0
 191.885717291 622.048284878 191 608.87061643 191 595 c 0
 191 546.894150737 206.83038313 503.298100376 234.866839458 465.177382821 c 0
 312.66738862 367.36638273 409.987849487 307.54486248 502.784381224 240.156904909 c 0
 549.572210499 205.351324594 586.931130205 171.16756789 612.363060814 137.783935328 c 0
 632.847859648 110.894234822 646.140766411 84.3349617762 648 55.8267134104 c 0
 648 52.2178089402 648 48.6089044701 648 45 c 0
 648 22.3846294817 645.792498948 3.54966813794 642.571643183 -13.6282292728 c 0
 619.628501076 -131.785411127 509.077828056 -188.752654676 408.819129583 -191.98680624 c 2
 408.410123025 -192 l 1
 408 -192 l 2
 354.009385007 -192 311.772504929 -178.341346293 284.425582293 -153.711235218 c 0
 272.683477672 -143.470987362 262.793527569 -131.965697234 256.296512578 -117.831840316 c 0
 248.135335945 -100.077701676 246 -80.6650068209 246 -57 c 0
 246 -56.3833918459 246.004365326 -55.7729206579 246.012475271 -55.1681917376 c 1
 138.462223019 -55.8620643328 l 1
 136.811498469 -69.0417805602 136 -81.5462007751 136 -93 c 0
 136 -170.792004783 166.479145903 -223.060981001 216.57202487 -255.96459797 c 0
 257.145401403 -282.615308971 312.68447215 -297 378 -297 c 0
 524.318569612 -297 715.365337699 -203.341541891 755.464225614 1.81555907133 c 0
 756.112293462 5.49002189243 756.29982347 6.94171099977 757.566647234 11.5634712495 c 0
 761.2248396 34.863145497 762.994781882 74.3200226164 763 76 c 0
 763.135956789 119.771401723 754.602423151 156.888585915 739.624741671 186.843948875 c 2
 729.704988596 206.683455025 l 1
 748.290428374 218.904018167 l 2
 787.201821558 244.489591768 816.480242078 270.49511403 838.338651528 304.705865911 c 0
 855.796136702 332.028699951 868.928212671 365.233756406 877.360007741 409.271059931 c 0
 879.203591292 421.235254733 881 433.180762516 881 442 c 0
 881 492.567387178 856.965119094 539.762170227 826.4542864 578.411909706 c 0
 767.966064029 652.50213792 695.188125292 708.111289333 627.010185526 758.491169509 c 0
 604.574206028 775.070167974 582.77263749 791.171099919 562.400317184 807.468956164 c 0
 551.536618319 816.159915257 541.29743818 824.18898909 531.655189787 831.749632479 c 0
 493.278093066 861.841736599 463.490685127 884.433681228 443.033066361 913.779423827 c 0
 426.488394124 937.512180724 418 964.976882092 418 998 c 0
 418 1016.07527447 419.975141967 1036.89761638 424.466163999 1059.8254657 c 0
 446.358887311 1171.59357945 556.627067303 1235.79579781 654.428651339 1237.99358622 c 2
 654.714064692 1238 l 1
 655 1238 l 2
 710.182716655 1238 751.189684044 1227.51683676 780.250423979 1201.09798227 c 0
 792.331262683 1189.01714357 803.541621753 1177.34188362 810.844046709 1160.91142747 c 0
 816.603284365 1147.95314275 819 1133.51164675 819 1117 c 0
 819 1113.21204268 818.881066018 1109.28878646 818.649367365 1105.18366714 c 1
 920.573627465 1105.85866224 l 1
 922.207579534 1118.67177403 923 1130.61308362 923 1142 c 0
 923 1218.04218896 892.867178554 1269.65271551 843.476581677 1302.26009986 c 0
 803.493527592 1328.65667925 748.903926227 1343 685 1343 c 0
 542.087328014 1343 353.864291104 1239.31769434 314.548523002 1035.25013609 c 0
 311.045626446 1017.73565331 310 998.151236517 310 979 c 0
EndSplineSet
Validated: 1
EndChar
StartChar: dieresis
Encoding: 168 168 173
Width: 1060
VWidth: -28
Flags: W
LayerCount: 2
Fore
SplineSet
523.709160819 1287.38625108 m 1
 340.536697629 1289.73461599 l 1
 306.290839181 1114.61374892 l 1
 489.463302371 1112.26538401 l 1
 523.709160819 1287.38625108 l 1
928.83941692 1284.38458113 m 1
 745.536697629 1286.73461599 l 1
 711.291158071 1111.61537961 l 1
 895.372197339 1109.2654089 l 1
 928.83941692 1284.38458113 l 1
EndSplineSet
Validated: 1
EndChar
StartChar: copyright
Encoding: 169 169 165
Width: 1060
VWidth: 6
Flags: W
LayerCount: 2
Fore
SplineSet
163 507 m 0
 163 639.417391932 214.358700481 757.768435796 292.142069107 848.249606255 c 0
 389.232916273 961.190118445 528.101096381 1032 664 1032 c 0
 781.461733215 1032 872.406940292 993.900621874 928.897241944 918.702493051 c 0
 973.749677336 858.996329056 995 779.036896544 995 683 c 0
 995 490.602082326 918.574785736 347.857606434 807.961867297 259.657784929 c 0
 719.675890743 189.260877557 610.69401577 154 503 154 c 0
 382.578180564 154 289.614837893 200.412975606 231.814274756 277.931960021 c 0
 185.808945999 339.631814995 163 419.131312864 163 507 c 0
687 1121 m 0
 389.637091146 1121 70 880.186397622 70 480 c 0
 70 373.173353934 102.754501987 279.193016739 159.357279971 207.925347512 c 0
 229.99275192 118.989333593 338.567674933 64 472 64 c 0
 604.746320997 64 741.7603376 104.506799504 852.340435641 187.207882813 c 0
 990.224744558 290.329347894 1089 459.490995499 1089 704 c 0
 1089 820.0863246 1058.56461043 915.019157959 1004.15208576 984.436935638 c 0
 936.389064039 1070.88685512 829.340345229 1121 687 1121 c 0
620 771 m 0
 649.288703602 771 673.056491166 767.918775575 693.529463543 757.49508225 c 0
 711.497603138 748.346709786 724.185767365 734.419046542 734.044727031 717.55266869 c 1
 818.380702941 763.736655497 l 1
 810.661693553 781.121792082 799.377054529 795.803722868 785.547083959 808.298385935 c 0
 748.513861363 841.755987039 692.52107109 858 650 858 c 0
 560.999065059 858 476.656780726 820.432379861 419.036909128 748.28129174 c 0
 372.892416604 690.499570712 343 609.477863973 343 505 c 0
 343 445.180654687 366.785169837 396.225525208 406.09634453 364.207373874 c 0
 437.642317147 338.513821516 480.186119125 323 531 323 c 0
 586.0458707 323 681.529732198 334.490179732 764.682703793 429.678328292 c 1
 698.406047849 470.649351966 l 1
 683.660889111 452.602789632 667.935996225 439.021937214 650.674601602 429.468778843 c 0
 621.887655168 413.536910978 591.245660369 410 559 410 c 0
 535.055037397 410 515.340757474 412.354264892 498.373376606 418.333837994 c 0
 476.879821003 425.908506585 460.525858042 440.364019125 451.492670254 458.926118422 c 0
 439.080023643 484.43259347 438.999986339 513.266078469 438.999986339 545.725920638 c 0
 438.999986339 546.149994578 439 546.574687477 439 547 c 0
 439 627.522762234 474.226416431 698.939218239 527.728982097 738.894659907 c 0
 554.524993651 758.90578392 586.214982254 771 620 771 c 0
EndSplineSet
Validated: 1
EndChar
StartChar: ordfeminine
Encoding: 170 170 193
Width: 960
VWidth: 6
Flags: HW
LayerCount: 2
Back
SplineSet
364 1449 m 5
 474 1511 592 1537 707 1537 c 5
 926 1537 1008 1394 967 1181 c 4
 948 1078 l 4
 941 1043 925 955 935 938 c 4
 945 920 972 887 999 869 c 5
 893 750 l 5
 851 780 822 819 802 892 c 5
 718 811 605 754 455 754 c 4
 313 754 231 842 257 976 c 4
 294 1164 468 1244 619 1244 c 4
 713 1244 796 1220 827 1193 c 5
 849 1308 827 1395 681 1395 c 4
 562 1395 494 1381 412 1329 c 5
 364 1449 l 5
EndSplineSet
Fore
SplineSet
634.198081127 927.625976562 m 0
 583.819910422 874.341796875 523.685519313 837 462.92968156 837 c 0
 420.644254688 837 387.337890625 859.00390625 369.087890625 891.142578125 c 0
 354.375976562 917.047851562 349.754882812 947.610351562 349.754882812 979 c 0
 349.754882812 1023.49707031 358.296875 1071.13183594 367.509765625 1113.55859375 c 0
 394.455078125 1229.26171875 419.85391885 1306.75585938 450.414664378 1359.27636719 c 0
 467.426561301 1388.51269531 487.44730939 1409.63085938 510.494945357 1423.12792969 c 0
 539.259398539 1439.97167969 571.610697459 1445 609.007356073 1445 c 0
 698.241210938 1445 762.997070312 1367.4375 789.717773438 1313.20800781 c 2
 793.904296875 1304.71191406 l 1
 778.291992188 1207.18652344 l 1
 760.291015625 1105.5625 700.912109375 1001.49511719 634.198081127 927.625976562 c 0
847.84375 883.754882812 m 0
 838.853515625 902.213867188 834.754882812 923.342773438 834.754882812 949 c 0
 834.754882812 985.28515625 836.88671875 1026.98535156 846.219726562 1079.29785156 c 2
 924.098632812 1516.59960938 l 1
 827.530273438 1528.99707031 l 1
 822.924804688 1496.31152344 815.515625 1464.79589844 808.803710938 1433.921875 c 1
 776.145507812 1470.3125 l 2
 747.05859375 1502.72460938 678.9453125 1537 614.044517263 1537 c 0
 568.138630786 1537 529.859813083 1529.34082031 497.409312258 1514.73535156 c 0
 456.911159376 1494.73339844 424.923874058 1462.90917969 393.848632812 1417.62988281 c 0
 346.799804688 1352.3515625 311.612304688 1258.05175781 280.873046875 1134.69140625 c 0
 265.40234375 1071.03320312 257.754882812 1007.51757812 257.754882812 951 c 0
 257.754882812 896.323242188 267.467773438 851.071289062 289.822265625 818.678710938 c 0
 317.091796875 779.1640625 366.576171875 752 453.694886045 752 c 0
 587.686325163 752 705.955078125 887.548828125 705.955078125 887.548828125 c 1
 737.340820312 919.37890625 l 1
 748.030273438 875.9921875 l 2
 761.405273438 821.708007812 778.454101562 789.888671875 805.463867188 761.129882812 c 1
 878.161132812 842.743164062 l 1
 866.029296875 855.14453125 855.573242188 867.885742188 847.84375 883.754882812 c 0
826.083984375 534 m 1
 843.509765625 625 l 1
 188.42578125 625 l 1
 171 534 l 1
 826.083984375 534 l 1
EndSplineSet
EndChar
StartChar: guillemotleft
Encoding: 171 171 157
Width: 1060
VWidth: 6
Flags: W
LayerCount: 2
Fore
SplineSet
852.199538017 943.620693833 m 1
 779.776199831 812.271511868 635.946670728 657.902970028 480.408390853 560.461910183 c 1
 460.465061968 459.947532603 l 1
 531.494149744 401.482975445 583.046180483 338.768047902 617.575774451 267.057480429 c 0
 642.798744633 214.674776282 658.809766797 157.863042227 667.410429494 95.0728831532 c 1
 779.873362917 127.00680252 l 1
 765.039515374 272.850260205 706.626939581 379.197119428 608.900940158 481.761039614 c 2
 589.682500619 501.930887051 l 1
 611.833813886 518.870126608 l 2
 754.125710896 627.681577263 866.555319097 762.330273179 940.253722996 894.256984072 c 1
 852.199538017 943.620693833 l 1
529.838487971 943.799019518 m 1
 505.833463665 891.471004643 465.857562326 842.182877435 417.811440819 794.457485003 c 0
 336.350293701 713.540127012 228.564824403 634.985552931 130.679281328 559.900763308 c 1
 112.023971879 466.624216061 l 1
 229.966759412 339.345127717 324.925098167 228.742135979 344.835542681 87.5831451143 c 1
 454.272552088 120.137192216 l 1
 437.53120295 271.783106856 354.104101364 371.12977578 253.319659209 484.392291726 c 2
 235.218389037 504.734671538 l 1
 382.359888899 614.586887189 540.453540684 730.853083224 621.742473963 908.09531273 c 1
 529.838487971 943.799019518 l 1
EndSplineSet
Validated: 1
EndChar
StartChar: logicalnot
Encoding: 172 172 194
Width: 1060
VWidth: 6
Flags: W
LayerCount: 2
Fore
SplineSet
918.71827525 573.105048768 m 1
 829.263505489 573.952494398 734.286307889 575 657 575 c 2
 538 575 l 2
 441.5459053 575 336.465012242 574.106075307 209.704155542 568.088228872 c 1
 208.051805953 551.800782918 207.994459442 535.271633609 204.747106774 519.225891012 c 2
 193.886435613 465.56139822 l 1
 333.248822373 472.13223683 443.469787066 473 506 473 c 0
 640.333229702 473 675.561993902 471.008721114 795.149357543 468.331392077 c 1
 743.278126476 199 l 1
 846.367770535 199 l 1
 918.71827525 573.105048768 l 1
EndSplineSet
Validated: 1
EndChar
StartChar: uni00AD
Encoding: 173 173 195
Width: 1060
VWidth: 6
Flags: W
LayerCount: 2
Fore
SplineSet
917.640633745 573.115263856 m 1
 828.191335737 573.963667239 734.165166113 575 657 575 c 2
 538 575 l 2
 441.5459053 575 336.465012242 574.106075307 209.704155542 568.088228872 c 1
 208.051805953 551.800782918 207.994459442 535.271633609 204.747106774 519.225891012 c 2
 193.886435613 465.56139822 l 1
 333.248822373 472.13223683 443.469787066 473 506 473 c 0
 630.031291945 473 764.089389932 470.063269537 897.434360349 470.063269537 c 1
 917.640633745 573.115263856 l 1
EndSplineSet
Validated: 1
EndChar
StartChar: registered
Encoding: 174 174 166
Width: 1060
VWidth: 6
Flags: W
LayerCount: 2
Fore
SplineSet
819 732 m 0
 819 787.375596951 798.951573528 822.155150876 763.216719143 844.412699266 c 0
 733.91636839 862.662500081 691.33455712 873 637 873 c 0
 581.840091334 873 515.140974432 865.475404922 440.09173747 854.10671189 c 1
 434.096713 813.356376261 428.758961393 778.66280599 419.582769412 731.426272273 c 2
 337.327776123 308 l 1
 401.316610522 308 l 1
 448.922816072 557.415120384 l 1
 476.438159263 547.53781808 l 1
 476.438159263 547.53781808 513.914163539 534.301844728 540.329795199 530.779760506 c 2
 557.392089886 528.504787882 l 1
 561.336840726 511.739596811 l 2
 566.751477083 488.727392293 593.133642691 428.434585097 628.586857903 377.044702976 c 0
 652.449490691 342.455516108 680.231921005 312.608698134 705.826768631 296.976236022 c 1
 747.431889467 344.765901847 l 1
 731.806308812 357.535125502 717.195806594 373.025139129 702.066345245 391.47849729 c 0
 670.640772251 429.808173442 640.818165877 476.144048731 630.062129521 511.773419162 c 2
 621.846054435 538.989167883 l 1
 649.866598449 543.659258552 l 2
 693.837465289 550.987736359 732.18582878 568.682194881 760.94190132 594.620364661 c 0
 796.723271635 626.895400024 819 672.534899911 819 732 c 0
746 708 m 0
 746 673.862110613 731.526659025 639.937839638 700.656046713 617.435020806 c 0
 676.223371621 599.625070825 643.393959653 590 603 590 c 0
 567.130332387 590 525.698389397 600.229501835 480.052663652 622.521600455 c 2
 462.84356642 630.926043289 l 1
 492.776737173 787.099108084 l 1
 510.266646636 789.722594503 l 2
 551.449651793 795.900045277 585.736600576 798 614 798 c 0
 649.447623917 798 676.997187476 796.687746695 700.217742806 787.130733569 c 0
 716.66115926 780.36302519 730.738603079 768.051207737 738.246814963 751.183872771 c 0
 744.091098206 738.054583851 746 723.704812775 746 708 c 0
163 507 m 0
 163 639.417391932 214.358700481 757.768435796 292.142069107 848.249606255 c 0
 389.232916273 961.190118445 528.101096381 1032 664 1032 c 0
 781.461733215 1032 872.406940292 993.900621874 928.897241944 918.702493051 c 0
 973.749677336 858.996329056 995 779.036896544 995 683 c 0
 995 490.602082326 918.574785736 347.857606434 807.961867297 259.657784929 c 0
 719.675890743 189.260877557 610.69401577 154 503 154 c 0
 382.578180564 154 289.614837893 200.412975606 231.814274756 277.931960021 c 0
 185.808945999 339.631814995 163 419.131312864 163 507 c 0
687 1121 m 0
 389.637091146 1121 70 880.186397622 70 480 c 0
 70 373.173353934 102.754501987 279.193016739 159.357279971 207.925347512 c 0
 229.99275192 118.989333593 338.567674933 64 472 64 c 0
 604.746320997 64 741.7603376 104.506799504 852.340435641 187.207882813 c 0
 990.224744558 290.329347894 1089 459.490995499 1089 704 c 0
 1089 820.0863246 1058.56461043 915.019157959 1004.15208576 984.436935638 c 0
 936.389064039 1070.88685512 829.340345229 1121 687 1121 c 0
EndSplineSet
Validated: 1
EndChar
StartChar: macron
Encoding: 175 175 176
Width: 1060
VWidth: -34
Flags: W
LayerCount: 2
Fore
SplineSet
686 1311 m 2
 636.95127867 1311 585.171203614 1310 537 1310 c 0
 499.981023051 1310 464.683965556 1310.61029285 433.240733822 1312.99317742 c 1
 413.022332631 1208.53143793 l 1
 452.258672878 1207.01406594 494.493585797 1207 537 1207 c 2
 618 1207 l 2
 690.774506226 1207 759.516702549 1207.00823725 816.293817174 1208.88924221 c 1
 835.775474911 1311 l 1
 686 1311 l 2
EndSplineSet
Validated: 1
EndChar
StartChar: degree
Encoding: 176 176 175
Width: 1060
VWidth: -26
Flags: W
LayerCount: 2
Fore
SplineSet
643 1329 m 0
 513.911490473 1329 385.364496834 1221.49991816 359.575501222 1091.38511614 c 0
 356.734377578 1075.23879726 355.000000865 1060.79486054 355 1047 c 0
 355 941.492867293 431.173957327 863 543 863 c 0
 672.088509527 863 800.635503166 970.500081837 826.424498778 1100.61488386 c 0
 829.265622422 1116.76120274 830.999999135 1131.20513946 831 1145 c 0
 831 1250.50713271 754.826042673 1329 643 1329 c 0
614 1229 m 0
 642.806687588 1229 668.819083344 1219.96442622 688.813501218 1203.47716663 c 0
 713.909510857 1182.78316953 728 1151.55606723 728 1117 c 0
 728 1107.06425539 726.992057394 1098.46464363 725.514689853 1091.07780593 c 0
 711.194978431 1019.47924882 644.768128697 963 572 963 c 0
 543.193312412 963 517.180916656 972.035573782 497.186498782 988.522833368 c 0
 472.090489143 1009.21683047 458 1040.44393277 458 1075 c 0
 458 1084.93574461 459.007942606 1093.53535637 460.485310147 1100.92219407 c 0
 474.805021569 1172.52075118 541.231871303 1229 614 1229 c 0
EndSplineSet
Validated: 1
EndChar
StartChar: plusminus
Encoding: 177 177 145
Width: 1060
VWidth: -6
Flags: W
LayerCount: 2
Fore
SplineSet
388 217 m 0
 610.248977414 217 688.476435421 212.929413364 885.569971655 210.052450023 c 1
 904.938938961 310.236763673 l 1
 746.22020904 313.212014226 710.781162073 315.515053526 545.935594718 318.549021023 c 1
 565.788795644 423.654202397 590.797826262 542.462330001 612.438541434 651.686342822 c 0
 614.297105115 661.908443069 616.155668796 672.130543316 618.014232477 682.352643562 c 1
 675.390518928 684.1569293 734.375087313 686.853381034 767.265232149 688.638662242 c 0
 821.606160393 691.588294677 865.555226497 693.950120449 979.366347232 693.999220249 c 1
 998.697859476 793.98980082 l 1
 824.207334868 793.71718802 822.545556136 787.967323028 668.489139882 785.004699639 c 2
 637.314222509 784.405181997 l 1
 710.472985209 1146.19029617 l 1
 601.484621595 1146.87147344 l 1
 529.510255701 786 l 1
 509 786 l 2
 412.236124195 786 343.000117128 786.942699511 187.397950799 795.781631636 c 1
 167.979479059 695.341260564 l 1
 322.126087703 686.629688853 475.339984737 684 479 684 c 2
 509.499128667 684 l 1
 485.495097572 563.979844528 459.320024678 436.236180173 436.629151096 319 c 1
 416 319 l 2
 285.066526738 319 231.342512868 314.365725253 99.6494933506 311.082713798 c 1
 80.3769174015 211.39697613 l 1
 226.508928771 215.938972263 260.438885308 217 388 217 c 0
EndSplineSet
Validated: 1
EndChar
StartChar: uni00B2
Encoding: 178 178 196
Width: 1060
VWidth: 65
Flags: W
LayerCount: 2
Fore
SplineSet
542.61573862 1308.37027138 m 1
 575.311598223 1372.85700015 639.062402478 1410 733 1410 c 0
 795.445485363 1410 844.203450444 1392.60618003 865.182118441 1351.20535318 c 0
 871.895306983 1337.95705941 875 1323.24701713 875 1308 c 0
 875 1290.45671562 873.113856296 1273.21071272 865.909370027 1256.41384067 c 0
 860.154694208 1242.99712367 851.218888549 1230.61531406 839.328898714 1219.16655432 c 0
 806.125642563 1187.19545025 749.94915582 1159.02617171 646.269145707 1112.20294134 c 0
 589.906241908 1086.47205047 527.797393224 1059.1514653 475.682936271 1029.28787333 c 0
 439.41327364 1008.50395906 409.683066826 986.842946097 394.326255404 968.14769741 c 0
 353.934412059 918.779888877 349.585292438 891.323877825 338.384534201 831.342218392 c 0
 336.018709529 818.672885493 333.715839323 806.335196324 331.53434502 794 c 1
 879.44615107 794 l 1
 898.51024246 890.635221875 l 1
 462.627229557 885.446138388 l 1
 488.010646833 924.578906688 l 2
 501.901270566 945.993618276 523.71749208 962.51331368 549.443679547 978.323626779 c 0
 583.24421303 999.096118543 627.085195005 1019.59547575 671.296145405 1040.59567719 c 0
 813.502292628 1108.10209727 891.86552556 1155.74174084 930.943228634 1199.89367632 c 0
 961.628091323 1234.56296267 971 1267.35933604 971 1316 c 0
 971 1388.73347681 942.409281827 1436.06664792 897.809042387 1465.5477611 c 0
 861.649754347 1489.44933823 812.961323598 1502 758 1502 c 0
 687.073228518 1502 625.900829428 1489.78502937 576.100601204 1464.85970761 c 0
 521.253715333 1437.40850253 478.920714596 1394.52761403 450.804010119 1331.3232035 c 1
 542.61573862 1308.37027138 l 1
EndSplineSet
Validated: 1
EndChar
StartChar: uni00B3
Encoding: 179 179 197
Width: 1060
VWidth: 65
Flags: W
LayerCount: 2
Fore
SplineSet
818 1014 m 0
 818 974.088573775 798.253350718 932.496761962 755.105633576 904.803846816 c 0
 720.903627982 882.852436603 673.521489926 870 611 870 c 0
 567.463830405 870 531.564025746 875.815768088 500.375822603 889.348961276 c 0
 468.817259905 903.042860977 443.517309345 924.228423887 420.767823319 951.571974354 c 1
 333.925309162 881.960117767 l 1
 395.491008884 809.718041631 481.508578002 781 584 781 c 0
 800.582516751 781 918 893.009356035 918 1013 c 0
 918 1053.26277797 912.985500773 1080.46652897 904.417782167 1100.0250241 c 0
 893.886241617 1124.06655651 877.574381703 1139.5007861 849.164391721 1156.54678009 c 2
 816.499735573 1176.14557378 l 1
 847.459964382 1198.33373776 l 2
 880.132334214 1221.74893614 901.892055107 1240.95093481 915.115391972 1265.48134531 c 0
 925.709930928 1285.13511292 932 1309.8695343 932 1347 c 0
 932 1394.94403404 911.069368602 1437.51892588 872.120801742 1466.55331208 c 0
 840.83577465 1489.87487774 796.885713615 1505 741 1505 c 2
 730 1505 l 2
 635.787555918 1505 573.357801312 1484.60071218 520.504820835 1452.57544736 c 1
 566.639568642 1380.8795555 l 1
 605.137027906 1405.67975998 653.213739685 1420 712 1420 c 0
 760.560562543 1420 799.085455962 1409.27805032 823.460579014 1385.14446034 c 0
 837.907042819 1370.84114653 846 1351.98152535 846 1332 c 0
 846 1274.05656471 811.671828859 1230.41348558 762.292325171 1209.48848313 c 0
 737.826841166 1199.12101739 709.91562178 1194 680 1194 c 0
 673.404899213 1194 666.041851057 1194.29542603 658.337069994 1194.7224887 c 1
 642.643499542 1130.26675292 l 1
 681.468637748 1128.37551803 714.492241646 1122.74373507 741.749443591 1112.42438357 c 0
 782.468155122 1097.00861573 818 1067.64213632 818 1014 c 0
EndSplineSet
Validated: 1
EndChar
StartChar: acute
Encoding: 180 180 174
Width: 1060
VWidth: -43
Flags: W
LayerCount: 2
Fore
SplineSet
903.394947882 1627.97927934 m 1
 836.817857042 1571.87257954 744.715673371 1503.42990475 651.598724832 1444.9590759 c 0
 579.613761302 1399.75763246 507.316152376 1360.47715895 444.52286683 1337.75416431 c 1
 488.232928885 1233.68258799 l 1
 565.515999089 1259.70539371 678.555210294 1314.58435767 782.471979346 1375.29476779 c 0
 863.736574391 1422.77129096 939.973961738 1474.15020596 989.931794132 1517.03460466 c 1
 903.394947882 1627.97927934 l 1
EndSplineSet
Validated: 1
EndChar
StartChar: uni00B5
Encoding: 181 181 169
Width: 1060
VWidth: 6
Flags: W
LayerCount: 2
Fore
SplineSet
725 182 m 0
 725 136.663670188 734.162428077 106.555164947 746.45168156 84.5610763182 c 0
 761.854109151 56.9953370309 783.208823875 40.5862450253 805.014131787 24.0961718524 c 1
 877.909920753 105.322908128 l 1
 852.291655099 128.621408199 820 160.620284689 820 217 c 0
 820 226.81648642 821.270670514 234.7400066 822.302347909 242.993425754 c 2
 968.358916413 984.883412794 l 1
 859.789949268 1000.00061075 l 1
 795.033900054 683.728312415 l 1
 741.205526798 551.140529868 662.631077009 398.098663018 572.349941697 285.83078992 c 0
 532.450201818 236.214013193 490.243509383 194.42306628 445.779958701 166.345213722 c 0
 410.26729476 143.919669051 372.785542611 130 334 130 c 0
 290.385229626 130 257.405620978 147.371758443 239.27973955 177.091757542 c 0
 225.313641188 199.991191833 221 226.862657688 221 254 c 0
 221 272.130852415 222.879496331 291.840264859 226.434524626 310.661002889 c 0
 256.211861768 468.305728937 286.931778162 604.090723906 312.034308827 715.05483786 c 0
 340.609151889 841.368084281 361.596029804 936.578373329 366.098952006 991.425903574 c 1
 252.963027108 972.912752227 l 1
 252.407531654 941.602084916 245.633285882 898.857779886 235.399067585 846.69973172 c 0
 222.071309507 778.775653147 202.631046586 695.656347831 182.127274638 607.945024949 c 0
 155.77189151 495.201597781 127.6623984 374.888435361 108.649102901 270.794425769 c 0
 108.258375836 268.325796214 106.555188969 253.483999483 97.5745652633 209.371175841 c 2
 -21.3935079943 -375 l 1
 84.6117976597 -375 l 1
 176.271790293 70.9413124767 l 1
 205.826455278 55.0272621005 l 2
 241.277379768 35.9383027599 282.325997349 25 325 25 c 0
 462.33551044 25.9095066917 599.130783681 136.80559202 693.008654331 309.892916031 c 2
 776.730780532 464.255586214 l 1
 739.430140312 292.672641199 l 2
 729.666514356 247.759961802 725 211.356618035 725 182 c 0
EndSplineSet
Validated: 1
EndChar
StartChar: paragraph
Encoding: 182 182 170
Width: 1060
VWidth: 0
Flags: W
LayerCount: 2
Fore
SplineSet
1060.68976079 1295.18521674 m 1
 956.996609373 1296.4842666 918.694539454 1303 803 1303 c 0
 577.948351641 1303 413.803737502 1289.51053548 279.61116048 1156.2629766 c 0
 217.796164267 1095.37059227 182.983917334 1008.36383587 165.534866518 919.179798369 c 0
 156.623402322 872.64215201 149 825.192338675 149 780 c 0
 149 734.861371008 156.490264503 691.81040657 175.496478755 651.911956606 c 0
 226.808305666 548.552838396 322.233282252 509.760177197 485.825023115 497.934268243 c 2
 513.652853625 495.922617844 l 1
 463.541545173 224.207967569 l 2
 445.05531594 129.135931517 415.366455293 67.4379871037 395.749272443 34.5921855061 c 1
 491.118987271 0.15312181836 l 1
 497.397118216 10.4219358812 506.166970136 26.14366504 516.103586417 47.9167920868 c 0
 531.588659579 81.8477053596 548.85355352 129.087106425 560.439942404 188.69067144 c 0
 622.795168355 523.97420944 689.316453151 863.757070992 753.39247051 1199.3933524 c 1
 787.675004721 1198.74651213 825.327329931 1197.45155045 853.770187686 1196.11760102 c 0
 882.462929172 1194.77193223 908.545729644 1193.96986747 937.216660472 1193.27057647 c 1
 860.825543402 801.33419263 786.032972391 407.799262727 710.30480904 15.1999251651 c 1
 811.371492758 15.864837558 l 1
 1060.68976079 1295.18521674 l 1
EndSplineSet
Validated: 1
EndChar
StartChar: cedilla
Encoding: 184 184 198
Width: 1060
VWidth: 12
Flags: W
LayerCount: 2
Fore
SplineSet
411.693411113 -98.2155325229 m 1
 425.961019719 -94.8570938075 438.668109262 -94 460 -94 c 0
 494.226410996 -94 525.143323921 -104.212613373 544.521407626 -125.393309515 c 0
 554.314450649 -136.097333285 561 -150.200129569 561 -166 c 0
 561 -171.023890977 560.276962231 -173.11083218 560 -174.495719544 c 0
 560 -175.748189283 560 -177.000659021 560 -178.25312876 c 0
 554.819381857 -197.939477704 545.227494795 -213.231173868 531.740935426 -225.453368295 c 0
 507.037125533 -247.841196011 473.741458573 -258 444 -258 c 0
 398.479561953 -258 363.899622855 -241.276774552 337.26943816 -225.752290457 c 1
 302.011472373 -289.097110345 l 1
 344.769012413 -315.406278107 398.965783955 -333 451 -333 c 0
 490.597765398 -333 541.703036649 -314.501167959 581.121753174 -282.261315741 c 0
 612.58658707 -256.526799646 635.918753383 -223.110308979 643.45223821 -185.244302418 c 0
 646.289267449 -170.088880033 647.854392606 -146.288516914 648 -145 c 0
 648 -107.781581256 636.210448871 -83.1864338221 616.570882043 -67.2715248168 c 0
 600.553604215 -54.2919351257 576.945938602 -45.5591528326 544.748971548 -43.9691791509 c 2
 511.860916543 -42.3450776692 l 1
 521.969466842 -12.0194267732 l 2
 523.89618737 -3.11788486461 528.087775025 18.7496908062 530.316667208 30.1284508063 c 1
 435.777312281 27.5559513525 l 1
 411.693411113 -98.2155325229 l 1
EndSplineSet
Validated: 1
EndChar
StartChar: uni00B9
Encoding: 185 185 199
Width: 1060
VWidth: 65
Flags: W
LayerCount: 2
Fore
SplineSet
905.173497406 1488.74162584 m 1
 779.361738744 1500.79544703 l 1
 679.982630279 1374.64917599 537.776731505 1288.37977012 394.868421466 1247.18577882 c 1
 414.102559867 1165.2855766 l 1
 536.312674915 1207.17375021 660.693704831 1273.12817734 738.203654412 1343.51077523 c 2
 794.212765924 1394.36962362 l 1
 675.434602978 794 l 1
 769.408624432 794 l 1
 905.173497406 1488.74162584 l 1
EndSplineSet
Validated: 1
EndChar
StartChar: ordmasculine
Encoding: 186 186 200
Width: 960
VWidth: 6
Flags: HW
LayerCount: 2
Fore
SplineSet
733.926757812 935.810546875 m 0
 681.424804688 875.606445312 620.550832021 850 547.854258493 850 c 0
 491.067369598 850 447.217665709 865.650390625 420.587450263 907.670898438 c 0
 396.491210938 944.043945312 387.754882812 992.4453125 387.754882812 1051.68066406 c 0
 387.754882812 1085.29296875 392.034179688 1120.00683594 398.182617188 1156.2421875 c 0
 398.196289062 1156.31835938 398.208984375 1156.39550781 398.22265625 1156.47167969 c 0
 416.921476816 1261.88964844 453.510632889 1336.93554688 503.652483279 1382.04492188 c 0
 543.616271727 1417.99804688 590.898876205 1434 640.295549991 1434 c 0
 686.78515625 1434 731.178710938 1424.74316406 765.25 1400.50488281 c 0
 809.087890625 1369.31835938 828.754882812 1316.24511719 828.754882812 1249.48144531 c 0
 828.754882812 1222.51855469 825.83203125 1192.72753906 820.302734375 1160.83300781 c 0
 803.370117188 1063.16113281 775.538085938 988.850585938 733.926757812 935.810546875 c 0
373.037109375 808.354492188 m 0
 414.272460938 776.259765625 462.712086727 758 522.642997176 758 c 0
 645.086674456 758 733.587890625 795.619140625 800.284179688 874.350585938 c 0
 854.130859375 943.655273438 891.248046875 1045.85644531 916.182617188 1186.48925781 c 0
 922.009765625 1221.46386719 925.452148438 1280.85742188 925.754882812 1283.93359375 c 0
 925.754882812 1373.22558594 894.623046875 1436.74023438 834.955078125 1477.85644531 c 0
 786.586914062 1508.42675781 716.967773438 1526 635.253297728 1526 c 0
 552.993350888 1526 479.540931928 1492.50390625 422.779484084 1416.83300781 c 0
 369.728515625 1356.1171875 327.166015625 1266.65234375 304.286132812 1141.36621094 c 0
 295.578125 1094.56152344 291.754882812 1052.19628906 291.754882812 1013.27734375 c 0
 291.754882812 919.287109375 321.849609375 851.1796875 373.037109375 808.354492188 c 0
826.083984375 534 m 1
 843.509765625 625 l 1
 188.42578125 625 l 1
 171 534 l 1
 826.083984375 534 l 1
EndSplineSet
EndChar
StartChar: onequarter
Encoding: 188 188 201
Width: 1060
VWidth: 0
Flags: W
LayerCount: 2
Fore
SplineSet
1024.7546784 650 m 1
 182.670853511 650 l 1
 165.245321596 559 l 1
 1007.32914649 559 l 1
 1024.7546784 650 l 1
EndSplineSet
Refer: 971 8324 N 1 0 0 1 0 0 2
Refer: 199 185 N 1 0 0 1 0 0 2
Validated: 1
EndChar
StartChar: onehalf
Encoding: 189 189 202
Width: 1060
VWidth: 0
Flags: W
LayerCount: 2
Fore
SplineSet
1024.7546784 650 m 1
 182.670853511 650 l 1
 165.245321596 559 l 1
 1007.32914649 559 l 1
 1024.7546784 650 l 1
EndSplineSet
Refer: 969 8322 N 1 0 0 1 0 0 2
Refer: 199 185 N 1 0 0 1 0 0 2
Validated: 1
EndChar
StartChar: threequarters
Encoding: 190 190 203
Width: 1060
VWidth: 0
Flags: W
LayerCount: 2
Fore
SplineSet
1024.7546784 650 m 1
 182.670853511 650 l 1
 165.245321596 559 l 1
 1007.32914649 559 l 1
 1024.7546784 650 l 1
EndSplineSet
Refer: 971 8324 N 1 0 0 1 0 0 2
Refer: 197 179 N 1 0 0 1 0 0 2
Validated: 1
EndChar
StartChar: Aring
Encoding: 197 197 76
Width: 960
VWidth: -8
Flags: HW
LayerCount: 2
Fore
SplineSet
683.42578125 470.469726562 m 1
 489.814151021 467.009765625 l 1
 425.644451305 463.577148438 365.251633949 462.58984375 313.275695219 450.515625 c 2
 268.404181506 440.091796875 l 1
 591.112495377 1165.49609375 l 1
 683.42578125 470.469726562 l 1
731.13671875 1413.94042969 m 0
 708.884765625 1394.0234375 678.028320312 1380 642.848632812 1380 c 0
 588.428601481 1380 551.269596051 1419.22753906 551.269596051 1467 c 0
 551.269596051 1467.95703125 551.212344274 1469.19726562 551.212344274 1470.71777344 c 0
 551.212344274 1473.78515625 551.444821186 1477.99121094 552.845754812 1483.30957031 c 0
 557.043350986 1505.03515625 568.734857748 1524.3515625 584.445265745 1539.28515625 c 0
 604.553651134 1558.39941406 634.818359375 1571 669.848632812 1571 c 0
 695.015625 1571 716.997070312 1564.57324219 734.102539062 1552.40234375 c 0
 755.662109375 1537.0625 767.848632812 1513.24414062 767.848632812 1488 c 0
 767.848632812 1484.34570312 766.254882812 1478.27734375 766.254882812 1471.546875 c 0
 761.732421875 1449.64941406 748.766601562 1429.72167969 731.13671875 1413.94042969 c 0
850.848632812 1510 m 0
 850.915039062 1586.86914062 787.223632812 1645 694.848632812 1645 c 0
 637.685546875 1645 581.696313012 1621.37792969 542.253308672 1583.0625 c 0
 510.809938949 1552.51855469 488.361170325 1513.28613281 480.738009512 1470.48828125 c 0
 479.162718202 1459.74609375 478.432324323 1441.81933594 478.431456872 1441 c 0
 478.369000389 1391.24023438 501.126581626 1350.62304688 538.28038235 1326.72167969 c 2
 556.681623851 1314.88378906 l 1
 18.236328125 172.8671875 l 2
 3.6240234375 142.912109375 -19.6806640625 86.697265625 -33 50 c 1
 75.3603515625 50 l 1
 85.9462890625 84.919921875 106.4375 131.68359375 120.7890625 157.770507812 c 2
 218.276781203 346.744140625 l 1
 228.222108776 349.350585938 l 2
 326.756753729 375.169921875 499.354378902 378.455078125 626.805664062 381.221679688 c 0
 648.025390625 381.63671875 666.799804688 382.025390625 687.298828125 382.458984375 c 1
 737.368164062 50 l 1
 856.02734375 50 l 1
 676.193359375 1310.82421875 l 1
 695.609375 1317.60839844 l 2
 771.45703125 1344.109375 833.209960938 1407.06347656 848.264648438 1479.58789062 c 0
 849.993164062 1490.109375 850.84765625 1509.20996094 850.848632812 1510 c 0
EndSplineSet
EndChar
StartChar: AE
Encoding: 198 198 82
Width: 960
VWidth: 0
Flags: HW
LayerCount: 2
Fore
SplineSet
1002.18457031 1169 m 1
 1022.19140625 1269.03125 l 1
 912.641601562 1269.25 847.850585938 1270 721.311291843 1270 c 0
 638.887112955 1270 545.385892744 1269.98828125 487.058220338 1268.44140625 c 1
 -13.6767578125 148.387695312 l 2
 -27.767578125 118.09375 -51.4453125 61.7099609375 -65 25 c 1
 43.3623046875 25 l 1
 54.310546875 59.5830078125 73.6796875 98.4951171875 87.7314453125 130.921875 c 2
 182.687792594 343.3515625 l 1
 193.601764011 346.2734375 l 2
 195.109935396 346.676757812 271.464490259 366.931640625 422.600561014 371.98828125 c 2
 449.603495744 372.891601562 l 1
 408.880165545 24.775390625 l 1
 731.552262051 22 l 1
 736.99483274 22 l 2
 792.209960938 22 824.323242188 33.498046875 865.681640625 45.4736328125 c 1
 855.994140625 141.063476562 l 1
 830.401367188 133.255859375 792.404296875 124.018554688 757.390283041 124 c 2
 506.375247015 121.76953125 l 1
 565.062393962 691 l 1
 830.184570312 691 l 1
 850.184570312 791 l 1
 570.028368079 791 l 1
 609.366955496 1169 l 1
 1002.18457031 1169 l 1
459.692207312 465.35546875 m 1
 439.382346188 465.002929688 l 2
 324.758618145 463.015625 261.381184323 450.3984375 261.381184323 450.3984375 c 1
 219.261399139 442.155273438 l 1
 540.999222212 1259.85351562 l 1
 459.692207312 465.35546875 l 1
EndSplineSet
EndChar
StartChar: Ccedilla
Encoding: 199 199 83
Width: 960
VWidth: 6
Flags: HW
LayerCount: 2
Fore
SplineSet
347.385684977 8.109375 m 1
 319.578125 -152.243164062 l 1
 333.200976922 -148.859375 344.496897785 -148 363.484691386 -148 c 0
 393.870709839 -148 421.318523072 -158.212890625 438.52206576 -179.393554688 c 0
 447.216170789 -190.09765625 453.151536069 -204.200195312 453.151536069 -220 c 0
 453.151536069 -225.0234375 452.509968685 -227.110351562 452.263745527 -228.49609375 c 0
 452.263745527 -229.748046875 452.263745527 -231.000976562 452.263745527 -232.252929688 c 0
 447.664400974 -251.939453125 439.148894434 -267.231445312 427.175859886 -279.453125 c 0
 405.243792185 -301.840820312 375.684008484 -312 349.280042724 -312 c 0
 306.479492188 -312 271.899414062 -295.276367188 245.26953125 -279.751953125 c 1
 210.01171875 -343.096679688 l 1
 252.768554688 -369.40625 306.965820312 -387 355.494576514 -387 c 0
 390.649001194 -387 436.019952965 -368.500976562 471.015719766 -336.26171875 c 0
 498.949910434 -310.526367188 519.663867089 -277.110351562 526.35177357 -239.244140625 c 0
 528.870359042 -224.088867188 530.260132712 -200.288085938 530.389313171 -199 c 0
 530.389313171 -161.78125 519.922228009 -137.186523438 502.487200872 -121.271484375 c 0
 488.266946517 -108.291992188 467.308500669 -99.5595703125 438.724072788 -97.96875 c 2
 404.773020442 -96.0810546875 l 1
 418.957728497 -64.1240234375 l 1
 422.085802983 -46.890625 426.377368588 -21.294921875 429.625953704 -3 c 1
 457.590488776 -3 l 2
 609.087089563 -3 738.793945312 94.4150390625 839.288085938 233.455078125 c 1
 757.299804688 283.303710938 l 1
 686.702004249 177.470703125 594.070077875 106.009765625 462.790652513 101.014648438 c 2
 462.410913981 101 l 2
 458.141022949 126 453.870264935 126 449.600373903 101 c 0
 407.790988093 101 373.995992679 105.7109375 343.208561121 122.064453125 c 0
 317.456054688 135.129882812 293.315429688 155.102539062 269.221679688 182.50390625 c 0
 213.649414062 245.85546875 192 332.453125 192 428 c 0
 192 484.1640625 199.23828125 543.662109375 211.465820312 604.823242188 c 0
 222.063476562 660.094726562 250.168945312 747.228515625 295.998046875 836.794921875 c 0
 332.100775558 908.423828125 374.709519648 981.533203125 428.245716847 1039.69628906 c 0
 488.390058096 1105.03808594 563.296518044 1152 652.016617344 1152 c 0
 729.93359375 1152 830.075195312 1109.79882812 877.87890625 999.881835938 c 1
 969.115234375 1054.62304688 l 1
 912.702148438 1191.05175781 800.43359375 1256 681.313705211 1256 c 0
 533.760142883 1256 403.25319933 1168.96289062 323.796875 1067.52441406 c 0
 258.936523438 993.951171875 149.5546875 842.096679688 101.547851562 593.244140625 c 0
 88.755859375 525.350585938 82 463.950195312 82 408 c 0
 82 282.5703125 114.466796875 183.713867188 176.471679688 104.676757812 c 0
 215.249023438 57.90625 267.88671875 30.2314453125 327.520507812 14.1396484375 c 2
 347.385684977 8.109375 l 1
EndSplineSet
EndChar
StartChar: multiply
Encoding: 215 215 128
Width: 1060
VWidth: 6
Flags: W
LayerCount: 2
Fore
SplineSet
437.451291149 544.698858174 m 2
 452.946620371 525.529378724 l 1
 433.955857527 509.759271567 l 2
 276.397163272 378.921057624 141.673438469 253.883353445 64.1160932319 179.201357908 c 1
 130.453336727 108.883879803 l 1
 210.10010495 180.538436031 331.145711777 290.319114246 495.127112915 425.309328442 c 2
 514.929596824 441.610820721 l 1
 555.951432967 389.002664446 600.880068753 332.690198527 632.370046739 293.649772448 c 0
 691.516072232 220.322123976 732.889336082 169.09207597 771.609843501 106.081139251 c 1
 855.930796096 166.028066487 l 1
 817.152609148 214.911924677 788.084874742 255.346145955 748.04303732 311.0459163 c 0
 714.828070621 357.249241028 659.928938882 432.917122146 601.741087183 511.183880417 c 1
 769.440125502 649.143187803 912.436124767 769.328827612 993.2536152 837.197520567 c 1
 938.197129381 925.153613766 l 1
 884.305139541 879.818947023 710.619347588 737.33768729 540.77438843 600.495777067 c 1
 452.51454632 715.23357181 362.454334217 832.984025983 275.070083089 934.051664961 c 1
 197.945741521 854.172882623 l 1
 243.921947205 800.816946429 284.565716637 746.067763395 326.972893588 688.984413639 c 0
 361.349499626 642.710835275 396.898415857 594.86736369 437.451291149 544.698858174 c 2
EndSplineSet
Validated: 1
EndChar
